<?xml version="1.0" encoding="UTF-8" standalone="no"?>
<!DOCTYPE svg PUBLIC "-//W3C//DTD SVG 1.1//EN" "http://www.w3.org/Graphics/SVG/1.1/DTD/svg11.dtd">
<svg width="100%" height="100%" viewBox="0 0 76 96" version="1.1" xmlns="http://www.w3.org/2000/svg" xmlns:xlink="http://www.w3.org/1999/xlink" xml:space="preserve" xmlns:serif="http://www.serif.com/" style="fill-rule:evenodd;clip-rule:evenodd;stroke-linejoin:round;stroke-miterlimit:2;">
    <g transform="matrix(1,0,0,1,-11.7,-2.1)">
        <path d="M72.2,67.9C68.5,67.9 65.1,69.2 62.5,71.4L40.5,57.1C41.4,55.2 41.9,53.1 41.9,50.8C41.9,48.7 41.5,46.8 40.7,45L62.8,29.1C65.4,31.1 68.6,32.3 72.1,32.3C80.5,32.3 87.2,25.5 87.2,17.2C87.2,8.8 80.4,2.1 72.1,2.1C63.8,2.1 57.1,8.8 57.1,17.2C57.1,19 57.4,20.6 58,22.2L35.4,38.4C33,36.7 30,35.7 26.8,35.7C18.4,35.7 11.7,42.5 11.7,50.8C11.7,59.2 18.5,65.9 26.8,65.9C29.8,65.9 32.6,65 34.9,63.5L57.7,78.4C57.2,79.9 57,81.4 57,83C57,91.4 63.8,98.1 72.1,98.1C80.4,98.1 87.2,91.3 87.2,83C87.2,74.7 80.6,67.9 72.2,67.9Z" style="fill-rule:nonzero;"/>
    </g>
</svg>
