<?xml version="1.0" encoding="UTF-8" standalone="no"?>
<!DOCTYPE svg PUBLIC "-//W3C//DTD SVG 1.1//EN" "http://www.w3.org/Graphics/SVG/1.1/DTD/svg11.dtd">
<svg xmlns="http://www.w3.org/2000/svg" version="1.1" xmlns:dc="http://purl.org/dc/elements/1.1/" xmlns:xl="http://www.w3.org/1999/xlink" viewBox="-511 81.5 845.86 702.14286" width="845.86" height="702.14286">
  <defs/>
  <g id="Canvas_1" stroke-dasharray="none" fill="none" fill-opacity="1" stroke="none" stroke-opacity="1">
    <title>Canvas 1</title>
    <g id="Canvas_1_Layer_1">
      <title>Layer 1</title>
      <g id="Group_160">
        <g id="Graphic_3">
          <path d="M -14.125682 113.00655 L -20.708812 113.00655 L -22.756408 106.73166 L -24.781986 113.00655 L -31.365116 113.00655 L -26.036964 116.88157 L -28.08456 123.13444 L -22.756408 119.25942 L -17.428256 123.13444 L -19.453834 116.88157 Z" fill="#1c355e"/>
        </g>
        <g id="Graphic_4">
          <path d="M -66.79072 81.5 L -66.81274 81.5 C -66.834754 81.5 -66.87879 81.52202 -66.87879 81.54403 C -66.900806 81.58807 -66.87879 81.61009 -66.834754 81.6321 C -53.86665 87.6648 -44.02498 93.87364 -37.551937 100.03845 C -35.790564 101.71175 -34.27138 103.40707 -32.97237 105.12441 L -23.725162 105.12441 C -31.62932 96.84596 -46.02854 88.9418 -66.79072 81.5 Z" fill="#1c355e"/>
        </g>
        <g id="Graphic_5">
          <path d="M -28.524903 125.29212 C -29.053314 127.11955 -29.823915 128.96899 -30.836704 130.81843 L -19.651989 130.81843 C -18.55113 128.96899 -17.758513 127.11955 -17.252119 125.29212 Z" fill="#aa182c"/>
        </g>
        <g id="Graphic_6">
          <path d="M -39.37936 141.76096 L -29.38357 141.76096 C -27.181856 139.91152 -25.266363 138.06207 -23.637094 136.23465 L -34.4255 136.23465 C -35.856616 138.04006 -37.507902 139.8895 -39.37936 141.76096 Z" fill="#aa182c"/>
        </g>
        <g id="Graphic_7">
          <path d="M -74.58479 166.04588 C -74.62883 166.0679 -74.62883 166.11193 -74.60681 166.13395 C -74.58479 166.15597 -74.56278 166.17798 -74.54076 166.17798 L -74.51874 166.17798 C -58.73244 159.88108 -46.02854 153.4961 -36.6052 147.15516 L -45.41206 147.15516 C -52.78781 153.2319 -62.497375 159.50678 -74.58479 166.04588 Z" fill="#aa182c"/>
        </g>
        <g id="Graphic_8">
          <path d="M -79.27445 106.62158 L -75.24531 106.62158 L -76.19205 116.50728 C -76.3902 118.4668 -75.53153 119.58968 -73.61604 119.58968 C -71.70055 119.58968 -70.59969 118.4668 -70.40153 116.50728 L -69.4548 106.62158 L -65.42566 106.62158 L -66.372394 116.48526 C -66.81274 121.04281 -70.2254 123.31058 -74.034364 123.31058 C -77.86535 123.31058 -80.63951 121.04281 -80.19917 116.48526 Z" fill="#1c355e"/>
        </g>
        <g id="Graphic_9">
          <path d="M -59.1948 123.31058 C -62.73956 123.31058 -65.359605 121.5492 -65.16145 118.2026 L -60.868105 118.2026 C -60.868105 119.4796 -60.14154 120.09607 -58.99665 120.09607 C -57.82974 120.09607 -57.0151 119.50161 -56.927034 118.53286 C -56.64081 115.47247 -65.051365 117.12376 -64.434884 111.2672 C -64.126644 108.14076 -61.39652 106.4014 -57.93982 106.4014 C -54.32901 106.4014 -52.08326 108.18479 -52.21536 111.33325 L -56.57476 111.33325 C -56.55274 110.27642 -57.235274 109.63793 -58.314115 109.61591 C -59.28287 109.59389 -60.05347 110.07827 -60.163556 111.11308 C -60.44978 113.9753 -52.14931 112.69831 -52.67772 118.22462 C -52.963946 120.99878 -55.3418 123.31058 -59.1948 123.31058 Z" fill="#1c355e"/>
        </g>
        <g id="Graphic_10">
          <path d="M -41.55906 120.22818 L -47.72386 120.22818 L -49.00086 123.15646 L -53.206135 123.15646 L -45.632233 106.64359 L -40.964596 106.64359 L -36.58318 123.15646 L -40.85451 123.15646 Z M -43.760775 111.06904 L -46.3588 117.12376 L -42.285625 117.12376 Z" fill="#1c355e"/>
        </g>
        <g id="Graphic_11">
          <path d="M -77.38097 125.2701 L -78.92217 125.2701 L -81.67432 130.81843 L -80.15513 130.81843 L -79.67076 129.80564 L -77.513075 129.80564 L -77.22685 130.81843 L -75.70767 130.81843 Z M -77.821315 128.70478 L -79.14234 128.70478 L -78.32771 126.98744 Z" fill="#aa182c"/>
        </g>
        <g id="Graphic_12">
          <path d="M -70.73179 128.61671 C -69.78505 128.33049 -69.36673 127.60393 -69.32269 127.03148 C -69.234624 126.21684 -69.74102 125.29212 -71.392306 125.29212 L -73.72612 125.29212 L -74.25454 130.81843 L -72.82342 130.81843 L -72.62527 128.77083 L -72.27299 128.77083 L -71.17213 130.81843 L -69.49883 130.81843 Z M -72.405095 126.415 L -71.54643 126.415 C -70.996 126.415 -70.75381 126.61315 -70.79784 127.0535 C -70.84188 127.49384 -71.1281 127.71401 -71.67853 127.71401 L -72.5372 127.71401 Z" fill="#aa182c"/>
        </g>
        <g id="Graphic_13">
          <path d="M -63.90647 128.96899 C -64.192696 129.43135 -64.67707 129.67354 -65.27154 129.67354 C -66.24029 129.67354 -66.834754 129.03504 -66.746686 128.06629 C -66.65862 127.07551 -65.95407 126.45903 -64.963296 126.45903 C -64.36883 126.45903 -63.92849 126.70122 -63.730335 127.14156 L -63.70832 127.20762 L -62.101066 127.20762 L -62.1451 127.03148 C -62.45334 125.93062 -63.48815 125.24809 -64.85321 125.24809 C -66.65862 125.24809 -68.067715 126.43702 -68.221835 128.06629 C -68.375955 129.69555 -67.18703 130.88448 -65.38162 130.88448 C -63.99454 130.88448 -62.84965 130.22397 -62.32124 129.10109 L -62.23317 128.92495 L -63.84042 128.92495 Z" fill="#aa182c"/>
        </g>
        <g id="Graphic_14">
          <path d="M -56.684845 125.29212 L -56.90502 127.4498 L -59.15077 127.4498 L -58.930595 125.29212 L -60.38373 125.29212 L -60.91214 130.81843 L -59.481024 130.81843 L -59.26085 128.57268 L -56.993086 128.57268 L -57.21326 130.81843 L -55.78214 130.81843 L -55.25373 125.29212 Z" fill="#aa182c"/>
        </g>
        <g id="Graphic_15">
          <path d="M -49.639355 126.39298 L -49.551287 125.2701 L -53.206135 125.2701 L -53.734546 130.81843 L -50.0797 130.81843 L -49.96961 129.69555 L -52.193345 129.69555 L -52.08326 128.55066 L -50.101716 128.55066 L -50.013647 127.47182 L -51.973174 127.47182 L -51.885105 126.39298 Z" fill="#aa182c"/>
        </g>
        <g id="Graphic_16">
          <path d="M -44.70751 128.61671 C -43.760775 128.33049 -43.34245 127.60393 -43.298414 127.03148 C -43.210346 126.21684 -43.71674 125.29212 -45.368027 125.29212 L -47.701846 125.29212 L -48.23026 130.81843 L -46.79914 130.81843 L -46.60099 128.77083 L -46.248713 128.77083 L -45.147855 130.81843 L -43.47455 130.81843 Z M -46.380816 126.415 L -45.522147 126.415 C -44.97172 126.415 -44.72953 126.61315 -44.773564 127.0535 C -44.8176 127.49384 -45.10382 127.71401 -45.65425 127.71401 L -46.51292 127.71401 Z" fill="#aa182c"/>
        </g>
        <g id="Graphic_17">
          <path d="M -38.256486 125.29212 L -39.643566 127.53787 L -40.61232 125.29212 L -42.24159 125.29212 L -40.502236 128.88092 L -40.678373 130.81843 L -39.247258 130.81843 L -39.07112 128.88092 L -36.627216 125.29212 Z" fill="#aa182c"/>
        </g>
        <g id="Group_18">
          <g id="Graphic_20">
            <path d="M -68.59613 164.76888 L -68.59613 164.94502 L -69.080504 164.94502 L -69.080504 166.2 L -69.27866 166.2 L -69.27866 164.94502 L -69.76304 164.94502 L -69.76304 164.76888 Z" fill="#aa182c"/>
          </g>
          <g id="Graphic_19">
            <path d="M -68.41999 164.76888 L -68.15578 164.76888 L -67.73746 165.97983 L -67.34115 164.76888 L -67.054926 164.76888 L -67.054926 166.2 L -67.23106 166.2 L -67.23106 165.36335 C -67.23106 165.34133 -67.23106 165.27528 -67.23106 165.20923 C -67.23106 165.14318 -67.23106 165.07713 -67.23106 164.98906 L -67.62737 166.17798 L -67.82553 166.17798 L -68.24385 164.98906 L -68.24385 165.0331 C -68.24385 165.07713 -68.24385 165.12116 -68.24385 165.18721 C -68.24385 165.25326 -68.24385 165.31931 -68.24385 165.34133 L -68.24385 166.17798 L -68.41999 166.17798 L -68.41999 164.76888 Z" fill="#aa182c"/>
          </g>
        </g>
      </g>
      <g id="Group_21">
        <g id="Group_157">
          <g id="Group_158">
            <g id="Graphic_159">
              <path d="M 298.69814 136.77362 C 298.69814 137.5994 298.02844 138.2691 297.20266 138.2691 L 290.48098 138.2691 C 289.6549 138.2691 288.9855 137.5994 288.9855 136.77362 L 288.9855 134.50131 C 288.9855 133.67553 289.6549 133.00582 290.48098 133.00582 L 297.20266 133.00582 C 298.02844 133.00582 298.69814 133.67553 298.69814 134.50131 L 298.69814 136.77362 M 302.73596 125.92273 L 284.94738 125.92273 C 282.23384 125.92273 280.03393 128.12294 280.03393 130.83647 L 280.03393 157.52855 L 288.9855 157.52855 L 288.9855 146.8649 C 288.9855 146.03881 289.6549 145.3694 290.48098 145.3694 L 297.20266 145.3694 C 298.02844 145.3694 298.69814 146.03881 298.69814 146.8649 L 298.69814 157.52855 L 307.6497 157.52855 L 307.6497 130.83647 C 307.6497 128.12294 305.4498 125.92273 302.73596 125.92273" fill="#1b1b1a"/>
            </g>
          </g>
        </g>
        <g id="Group_154">
          <g id="Group_155">
            <g id="Graphic_156">
              <path d="M 220.30702 136.22053 L 220.30702 130.83677 C 220.30702 128.12294 218.1071 125.92303 215.39327 125.92303 L 197.56374 125.92303 C 194.8499 125.92303 192.65 128.12294 192.65 130.83677 L 192.65 140.26902 C 192.65 142.98286 194.8499 145.18277 197.56374 145.18277 L 209.8392 145.18277 C 210.66528 145.18277 211.3347 145.85218 211.3347 146.67825 L 211.3347 148.95027 C 211.3347 149.77635 210.66528 150.44575 209.8395 150.44575 L 203.11752 150.44575 C 202.29174 150.44575 201.62203 149.77635 201.62203 148.95027 L 201.62203 147.23135 L 192.65 147.23135 L 192.65 152.6151 C 192.65 155.32894 194.8499 157.52884 197.56374 157.52884 L 215.39327 157.52884 C 218.1071 157.52884 220.30702 155.32894 220.30702 152.6151 L 220.30702 143.18285 C 220.30702 140.46931 218.1071 138.2691 215.39327 138.2691 L 203.11752 138.2691 C 202.29174 138.2691 201.62203 137.5997 201.62203 136.77392 L 201.62203 134.5016 C 201.62203 133.67553 202.29174 133.00612 203.11752 133.00612 L 209.8392 133.00612 C 210.66528 133.00612 211.3347 133.67553 211.3347 134.5016 L 211.3347 136.22053 Z" fill="#1b1b1a"/>
            </g>
          </g>
        </g>
        <g id="Group_151">
          <g id="Group_152">
            <g id="Graphic_153">
              <path d="M 225.0276 164.09326 L 225.562 162.59095 L 226.1056 164.09326 Z M 224.638 160.92188 L 222.73986 166.15816 L 224.30062 166.15816 L 224.62257 165.24722 L 226.51032 165.24722 L 226.83998 166.15816 L 228.38206 166.15816 L 226.45484 160.92188 Z" fill="#1b1b1a"/>
            </g>
          </g>
        </g>
        <g id="Group_148">
          <g id="Group_149">
            <g id="Graphic_150">
              <path d="M 233.08572 162.1699 L 234.3189 162.1699 C 234.6907 162.1699 234.76518 162.2417 234.76607 162.2426 C 234.76666 162.24319 234.83965 162.32657 234.83965 162.72833 C 234.83965 163.10517 234.7619 163.2022 234.74648 163.21793 C 234.73076 163.23336 234.63402 163.3111 234.25066 163.3111 L 233.08572 163.3111 L 233.08572 162.1699 M 236.08233 163.68675 C 236.23188 163.46688 236.32624 163.09983 236.32624 162.56484 C 236.32624 161.96308 236.1758 161.53165 235.87878 161.2821 C 235.59036 161.03998 235.10997 160.92218 234.41 160.92218 L 231.61427 160.92218 L 231.61427 166.15816 L 233.08572 166.15816 L 233.08572 164.47337 L 234.2545 164.47337 C 234.70553 164.47337 234.7981 164.6686 234.7981 164.96207 L 234.7981 166.15816 L 236.26927 166.15816 L 236.26927 164.86682 C 236.26927 164.43716 236.10696 164.1161 235.8402 163.91998 C 235.9411 163.8538 236.0212 163.77636 236.08233 163.68675" fill="#1b1b1a"/>
            </g>
          </g>
        </g>
        <g id="Group_145">
          <g id="Group_146">
            <g id="Graphic_147">
              <path d="M 243.13605 164.43212 C 243.13605 164.64428 243.09688 164.7959 243.031 164.83804 C 242.9942 164.86148 242.82656 164.93833 242.21383 164.93833 C 241.45807 164.93833 241.35214 164.79946 241.35096 164.79798 C 241.33048 164.76623 241.22693 164.54488 241.22693 163.3194 C 241.22693 162.43725 241.33582 162.28058 241.348 162.26604 C 241.35303 162.261 241.4821 162.142 242.26309 162.142 C 242.8402 162.142 242.9776 162.2153 242.99896 162.22984 C 243.00252 162.23221 243.08323 162.29126 243.08323 162.62389 L 243.08323 162.99064 L 244.56625 162.99064 L 244.55468 162.63783 C 244.55468 161.9518 244.40395 161.49456 244.09357 161.23997 C 243.79744 160.99814 243.26334 160.88034 242.4601 160.88034 C 241.38093 160.88034 240.67858 161.01831 240.31242 161.30228 C 239.92757 161.60078 239.74034 162.1696 239.74034 163.04138 C 239.74034 164.9048 239.9703 165.41991 240.1436 165.64513 C 240.43408 166.02375 241.0943 166.2 242.22125 166.2 C 243.19658 166.2 243.79685 166.09259 244.1105 165.86174 C 244.44252 165.61694 244.60394 165.13328 244.60394 164.38346 L 244.60394 163.97517 L 243.11973 163.97517 Z" fill="#1b1b1a"/>
            </g>
          </g>
        </g>
        <g id="Group_142">
          <g id="Group_143">
            <g id="Graphic_144">
              <path d="M 251.45588 162.8589 L 249.51976 162.8589 L 249.51976 160.92218 L 248.0486 160.92218 L 248.0486 166.15816 L 249.51976 166.15816 L 249.51976 164.10661 L 251.45588 164.10661 L 251.45588 166.15816 L 252.92704 166.15816 L 252.92704 160.92218 L 251.45588 160.92218 Z" fill="#1b1b1a"/>
            </g>
          </g>
        </g>
        <g id="Group_139">
          <g id="Group_140">
            <g id="Graphic_141">
              <path d="M 258.25204 164.05795 L 260.25018 164.05795 L 260.25018 162.904 L 258.25204 162.904 L 258.25204 162.1699 L 260.8104 162.1699 L 260.8104 160.92218 L 256.7806 160.92218 L 256.7806 166.15816 L 260.83324 166.15816 L 260.83324 164.91044 L 258.25204 164.91044 Z" fill="#1b1b1a"/>
            </g>
          </g>
        </g>
        <g id="Group_136">
          <g id="Group_137">
            <g id="Graphic_138">
              <path d="M 265.96923 162.1699 L 267.2027 162.1699 C 267.5742 162.1699 267.64898 162.2417 267.64957 162.2426 C 267.65046 162.24319 267.72346 162.32657 267.72346 162.72833 C 267.72346 163.10517 267.64572 163.2022 267.63058 163.21763 C 267.61486 163.23306 267.51753 163.3111 267.13446 163.3111 L 265.96923 163.3111 L 265.96923 162.1699 M 268.9872 163.68675 C 269.13705 163.46658 269.21004 163.09953 269.21004 162.56484 C 269.21004 161.96338 269.0593 161.53165 268.7626 161.2821 C 268.47417 161.03998 267.99377 160.92218 267.2935 160.92218 L 264.49807 160.92218 L 264.49807 166.15816 L 265.96923 166.15816 L 265.96923 164.47337 L 267.13802 164.47337 C 267.58934 164.47337 267.68162 164.6686 267.68162 164.96207 L 267.68162 166.15816 L 269.15307 166.15816 L 269.15307 164.86682 C 269.15307 164.43716 269.01213 164.1161 268.74537 163.91998 C 268.84596 163.8538 268.92638 163.77636 268.9872 163.68675" fill="#1b1b1a"/>
            </g>
          </g>
        </g>
        <g id="Group_133">
          <g id="Group_134">
            <g id="Graphic_135">
              <path d="M 275.99226 160.92188 L 275.13324 162.28532 C 275.07538 162.37464 274.99764 162.50846 274.9027 162.68264 L 274.884 162.71528 L 274.86708 162.6862 C 274.76085 162.49333 274.6855 162.36158 274.64068 162.28889 L 273.7882 160.92188 L 272.06957 160.92188 L 274.13506 164.17278 L 274.13506 166.15787 L 275.6065 166.15787 L 275.6065 164.17427 L 277.73165 160.92188 Z" fill="#1b1b1a"/>
            </g>
          </g>
        </g>
        <g id="Group_130">
          <g id="Group_131">
            <g id="Graphic_132">
              <rect x="192.65" y="163.30101" width="24.860398" height=".5192664" fill="#1b1b1a"/>
            </g>
          </g>
        </g>
        <g id="Group_127">
          <g id="Group_128">
            <g id="Graphic_129">
              <rect x="282.7896" y="163.30101" width="24.860398" height=".5192664" fill="#1b1b1a"/>
            </g>
          </g>
        </g>
        <g id="Group_124">
          <g id="Group_125">
            <g id="Graphic_126">
              <path d="M 265.3093 156.1835 C 265.57726 156.10487 265.62355 155.86037 265.5357 155.61082 C 265.4479 155.36128 265.33246 155.0242 265.1476 155.0242 C 265.05977 155.02895 265.00458 155.03815 264.87996 155.37522 C 264.75533 155.7126 264.65652 156.10487 264.66097 156.16036 C 264.66572 156.21584 265.04167 156.26213 265.3093 156.1835" fill="#1b1b1a"/>
            </g>
          </g>
        </g>
        <g id="Group_121">
          <g id="Group_122">
            <g id="Graphic_123">
              <path d="M 263.8176 155.50434 C 264.01174 155.34299 264.2519 155.10746 264.2889 155.02878 C 264.3255 154.95024 264.25662 154.83966 264.13174 154.82415 C 263.9702 154.84695 263.68378 154.96894 263.6378 155.06569 C 263.5914 155.16258 263.6651 155.45809 263.8176 155.50434" fill="#1b1b1a"/>
            </g>
          </g>
        </g>
        <g id="Group_118">
          <g id="Group_119">
            <g id="Graphic_120">
              <path d="M 264.30995 156.00903 C 264.42775 156.05858 264.53368 155.81378 264.57047 155.73545 C 264.60756 155.65682 264.81052 155.23636 264.66275 155.12568 C 264.53368 155.07494 264.4411 155.17197 264.30728 155.29185 C 264.17316 155.41202 263.9898 155.60548 263.98385 155.66156 C 263.9699 155.79539 264.21945 155.97105 264.30995 156.00903" fill="#1b1b1a"/>
            </g>
          </g>
        </g>
        <g id="Group_115">
          <g id="Group_116">
            <g id="Graphic_117">
              <path d="M 270.6889 151.26857 C 270.67052 151.26352 270.65212 151.25759 270.6352 151.2472 C 269.42665 150.50836 268.0911 148.89033 268.21632 148.62624 C 268.34628 148.35148 268.3175 147.99037 268.23086 147.70136 C 268.13323 147.53252 268.07923 147.37259 268.05193 147.21532 L 267.66293 147.21503 C 267.57035 147.21503 267.5113 147.16993 267.4748 147.10376 L 265.37875 147.10198 L 265.2464 153.89724 C 265.35738 153.96015 265.46658 154.03225 265.56924 154.12572 C 265.6197 154.17201 265.65975 154.2269 265.69565 154.28476 C 267.9638 154.17112 270.0192 152.88571 270.6889 151.26857" fill="#1b1b1a"/>
            </g>
          </g>
        </g>
        <g id="Group_112">
          <g id="Group_113">
            <g id="Graphic_114">
              <path d="M 267.6751 146.10439 C 267.44068 146.13199 266.65288 146.42426 265.82947 146.73137 L 267.4745 146.73285 C 267.511 146.66639 267.57035 146.62158 267.66263 146.62158 L 268.0546 146.62188 C 268.06736 146.529 268.0834 146.43494 268.1012 146.33791 C 267.95312 146.23525 267.9184 146.0756 267.6751 146.10439" fill="#1b1b1a"/>
            </g>
          </g>
        </g>
        <g id="Group_109">
          <g id="Group_110">
            <g id="Graphic_111">
              <path d="M 265.4286 144.52704 C 265.67963 144.50538 265.90662 144.47036 266.136 144.42971 C 266.252 144.40924 266.3612 144.39025 266.46654 144.37185 C 266.37307 144.10154 266.03747 143.87543 266.08792 143.8235 C 266.15557 143.75437 266.05498 143.47664 266.54072 143.92766 C 266.80243 144.17067 267.12408 144.1867 267.36294 144.16118 C 267.39677 144.14634 267.42673 144.13091 267.45255 144.11459 C 267.64394 143.99293 267.94897 143.56447 268.2463 143.35824 L 268.25578 142.20814 L 265.4737 142.20577 Z" fill="#1b1b1a"/>
            </g>
          </g>
        </g>
        <g id="Group_106">
          <g id="Group_107">
            <g id="Graphic_108">
              <path d="M 268.26082 141.6289 L 265.5449 141.62713 C 265.52948 141.66095 265.509 141.69181 265.4835 141.71852 L 265.48112 141.83483 L 268.25904 141.8372 Z" fill="#1b1b1a"/>
            </g>
          </g>
        </g>
        <g id="Group_103">
          <g id="Group_104">
            <g id="Graphic_105">
              <path d="M 269.9839 148.68648 C 269.92574 148.64375 269.84563 148.65354 269.79518 148.70547 C 269.56136 148.94611 269.27354 149.27162 269.259 149.4274 C 269.24535 149.57012 269.7403 149.98465 269.8492 150.04577 C 269.9578 150.1069 270.33166 150.03212 270.49486 149.87575 C 270.65776 149.71937 270.8901 149.55647 270.6889 149.33898 C 270.52898 149.16599 270.1741 148.82564 269.9839 148.68648" fill="#1b1b1a"/>
            </g>
          </g>
        </g>
        <g id="Group_100">
          <g id="Group_101">
            <g id="Graphic_102">
              <path d="M 269.2889 140.51249 C 269.4631 140.58117 269.6482 140.6657 269.74312 140.63924 C 269.83838 140.61299 269.81714 140.41762 269.71165 140.40146 C 269.60567 140.38573 269.31017 140.21147 269.19926 140.21667 C 269.1411 140.26968 269.1145 140.44417 269.2889 140.51249" fill="#1b1b1a"/>
            </g>
          </g>
        </g>
        <g id="Group_97">
          <g id="Group_98">
            <g id="Graphic_99">
              <path d="M 268.8516 141.70816 C 268.68484 141.7141 268.59108 141.69481 268.58692 141.83753 L 269.22696 141.83813 C 269.21865 141.7236 269.02103 141.70193 268.8516 141.70816" fill="#1b1b1a"/>
            </g>
          </g>
        </g>
        <g id="Group_94">
          <g id="Group_95">
            <g id="Graphic_96">
              <path d="M 253.24364 141.82466 L 265.10992 141.83474 L 265.1108 141.78727 C 265.04048 141.75433 264.9835 141.69766 264.95117 141.62674 L 263.4453 141.62585 C 263.34293 141.62555 263.26014 141.55939 263.26014 141.47808 C 263.26014 141.39619 263.34322 141.33031 263.4456 141.33031 L 263.4459 141.33031 L 264.96868 141.3312 C 265.00428 141.26919 265.0559 141.21726 265.12268 141.18937 L 265.28676 132.75767 C 264.5049 133.1989 263.6714 133.23807 263.2646 132.73037 C 263.09872 132.52296 263.0385 132.26808 263.06608 131.99598 L 253.4837 140.27813 C 253.53473 140.44845 253.56114 140.60008 253.48814 140.66506 C 253.32138 140.81342 253.3739 140.8876 253.4297 141.18433 C 253.48517 141.48105 253.32138 141.49974 253.2472 141.79647 C 253.24453 141.80685 253.24512 141.81516 253.24364 141.82466" fill="#1b1b1a"/>
            </g>
          </g>
        </g>
        <g id="Group_91">
          <g id="Group_92">
            <g id="Graphic_93">
              <path d="M 264.11322 154.5717 C 264.11797 154.45182 263.89157 154.13759 263.74855 154.27616 C 263.60523 154.41473 263.56844 154.8165 263.63757 154.83044 C 263.707 154.84409 263.95625 154.72421 264.11322 154.5717" fill="#1b1b1a"/>
            </g>
          </g>
        </g>
        <g id="Group_88">
          <g id="Group_89">
            <g id="Graphic_90">
              <path d="M 268.33827 140.26425 C 268.33293 140.39629 268.42284 140.56542 268.44924 140.52299 C 268.47565 140.48085 268.4439 140.296 268.4546 140.11648 C 268.38575 140.10045 268.3436 140.1322 268.33827 140.26425" fill="#1b1b1a"/>
            </g>
          </g>
        </g>
        <g id="Group_85">
          <g id="Group_86">
            <g id="Graphic_87">
              <path d="M 270.85567 150.58343 C 270.9441 150.63803 271.01887 150.65138 271.08 150.56326 C 271.14112 150.47483 271.24972 150.29146 271.36544 150.11461 C 271.48057 149.93776 271.38562 149.89029 271.2699 149.81551 C 271.15477 149.74074 271.12065 149.74074 270.9711 149.93776 L 270.82185 150.15526 L 270.74707 150.29799 C 270.6723 150.44071 270.76725 150.52913 270.85567 150.58343" fill="#1b1b1a"/>
            </g>
          </g>
        </g>
        <g id="Group_82">
          <g id="Group_83">
            <g id="Graphic_84">
              <path d="M 258.25412 143.92911 C 258.84756 143.9475 258.82887 144.00329 259.32974 144.30001 C 259.8303 144.59674 260.2941 144.59674 261.11008 144.50386 C 261.92607 144.41129 262.5937 144.31841 263.7435 144.46677 C 264.28087 144.5362 264.69806 144.55579 265.0571 144.54689 L 265.1025 142.20544 L 253.49823 142.19595 C 253.56054 142.25945 253.63205 142.33926 253.7104 142.44549 C 254.0258 142.87188 253.82166 142.72382 255.11982 142.7793 C 256.4183 142.8348 256.45538 143.05734 256.7705 143.39145 C 257.08562 143.72526 257.66067 143.91071 258.25412 143.92911" fill="#1b1b1a"/>
            </g>
          </g>
        </g>
        <g id="Group_79">
          <g id="Group_80">
            <g id="Graphic_81">
              <path d="M 263.65033 154.0907 C 263.96456 153.74087 264.4245 153.62723 264.87847 153.74532 L 265.00755 147.10168 L 264.79183 147.10138 C 264.6304 147.17349 264.46692 147.24055 264.32063 147.29277 C 263.94884 147.4254 263.82095 147.4447 263.71146 147.26844 C 262.63494 147.39425 261.38455 147.40612 260.88754 147.30404 C 260.16442 147.15568 259.4226 147.04441 258.90335 147.02601 C 258.38408 147.00732 258.51375 147.04441 258.2912 147.30404 C 258.09893 147.52866 256.7423 147.65626 255.99486 147.89067 L 263.37616 154.99957 C 263.3634 154.63876 263.46518 154.29693 263.65033 154.0907" fill="#1b1b1a"/>
            </g>
          </g>
        </g>
        <g id="Group_76">
          <g id="Group_77">
            <g id="Graphic_78">
              <path d="M 270.82867 136.857 C 270.90997 136.75552 270.83223 136.6309 270.5904 136.42022 C 270.28656 136.20183 270.12484 136.14723 269.8041 136.37363 C 269.48333 136.59974 269.31953 136.88044 269.33526 136.99735 C 269.351 137.11426 269.89548 137.63649 269.96224 137.65222 C 270.0293 137.66794 270.74707 136.95818 270.82867 136.857" fill="#1b1b1a"/>
            </g>
          </g>
        </g>
        <g id="Group_73">
          <g id="Group_74">
            <g id="Graphic_75">
              <path d="M 265.07668 130.29415 C 264.98974 130.3268 264.94405 130.42204 264.97253 130.51017 C 265.10606 130.91994 265.51316 131.32942 265.60604 131.29856 C 265.70218 131.26652 265.87813 130.95792 265.95677 130.66832 C 265.96982 130.62085 265.96003 130.56744 265.93125 130.52767 C 265.68704 130.18704 265.3642 130.18615 265.07668 130.29415" fill="#1b1b1a"/>
            </g>
          </g>
        </g>
        <g id="Group_70">
          <g id="Group_71">
            <g id="Graphic_72">
              <path d="M 264.57047 130.50483 C 264.34615 130.62856 264.18117 130.77485 264.23043 130.85704 C 264.2868 130.9511 264.71557 131.22408 264.77432 131.23358 C 264.83278 131.24278 265.0114 131.13922 265.0114 131.08284 C 265.0114 131.03507 264.91052 130.72351 264.7592 130.53806 C 264.7135 130.48198 264.63368 130.47011 264.57047 130.50483" fill="#1b1b1a"/>
            </g>
          </g>
        </g>
        <g id="Group_67">
          <g id="Group_68">
            <g id="Graphic_69">
              <path d="M 266.06893 132.1323 C 265.95677 132.26315 265.82027 132.38985 265.66242 132.51032 L 265.4918 141.27791 C 265.50604 141.29394 265.51732 141.31263 265.528 141.33162 L 268.2362 141.3334 C 268.17507 141.0257 268.0353 140.16728 268.15727 139.2228 C 268.3074 138.05905 268.42996 138.64954 268.29762 137.55166 C 268.29317 137.51694 268.29732 137.48044 268.31245 137.4487 C 268.71837 136.59146 270.21594 135.42563 270.68268 135.0942 C 270.75746 135.04108 270.7803 134.94375 270.73728 134.86275 C 270.2931 134.0254 268.85605 132.3771 266.06893 132.1323" fill="#1b1b1a"/>
            </g>
          </g>
        </g>
        <g id="Group_64">
          <g id="Group_65">
            <g id="Graphic_66">
              <path d="M 263.83163 131.46888 C 263.8533 131.69469 264.54614 131.603 264.5595 131.56294 C 264.60638 131.4217 264.28146 131.15139 264.10254 131.06652 C 264.02717 131.04783 263.80997 131.24278 263.83163 131.46888" fill="#1b1b1a"/>
            </g>
          </g>
        </g>
        <g id="Group_61">
          <g id="Group_62">
            <g id="Graphic_63">
              <path d="M 272.71524 125.92273 L 251.47724 125.92273 L 251.47724 136.16563 C 251.73332 136.26563 251.98168 136.38491 252.20867 136.51102 C 252.74633 136.84483 253.07184 137.33977 253.09023 137.46973 C 253.10893 137.5994 252.96324 137.8175 253.0745 138.11422 C 253.18578 138.41094 253.48814 138.9403 253.52523 139.14444 C 253.56232 139.34829 253.311 139.40407 253.311 139.6637 C 253.311 139.72543 253.33147 139.80673 253.35877 139.89574 L 263.3189 131.2872 C 263.472 131.03231 263.68653 130.78395 263.95507 130.56468 C 264.8663 129.8205 265.57755 129.8472 266.1247 130.33323 C 266.452 130.62402 266.55882 131.0332 266.4419 131.4596 C 269.43644 131.94325 271.24676 134.17462 271.77374 135.84339 L 272.03574 135.87188 L 272.46748 136.55078 C 272.51377 136.62407 272.5019 136.71991 272.4384 136.77926 L 271.93604 137.25105 L 271.7236 137.11366 C 271.7236 137.11366 271.3521 137.34719 270.6073 137.54599 C 270.5901 137.55074 270.5729 137.55727 270.55776 137.56676 C 270.01327 137.8976 269.23853 138.89638 269.13408 139.80257 C 269.2596 139.92156 269.4587 140.09247 269.62694 140.15864 C 269.89637 140.26428 270.49337 140.20078 270.49337 140.20078 C 270.74678 139.82038 271.00018 139.62513 271.2432 139.61445 C 271.25655 139.61386 271.26723 139.61623 271.2803 139.61623 C 271.33637 139.52247 271.39215 139.46935 271.43963 139.47202 C 271.4868 139.4744 271.52686 139.54116 271.55683 139.65006 C 271.6417 139.67172 271.70816 139.69635 271.75564 139.70436 C 271.7693 139.70673 271.7862 139.71356 271.80193 139.7186 C 271.8417 139.6011 271.8871 139.52959 271.93426 139.53137 C 272.0025 139.53404 272.05622 139.68685 272.0847 139.91711 C 272.08915 139.92215 272.0942 139.92601 272.09895 139.93135 C 272.20428 140.05835 272.17758 140.42747 272.16215 140.62806 C 272.1479 140.8052 272.08767 141.09896 271.99153 141.20044 C 271.95236 141.31646 271.90667 141.38737 271.8598 141.3853 C 271.8227 141.38381 271.79006 141.33456 271.76305 141.25563 C 271.66662 141.26156 271.54556 141.26364 271.4224 141.26127 C 271.39512 141.30162 271.36663 141.32506 271.33815 141.32477 C 271.17198 141.3224 271.06575 141.28649 271.00136 141.22655 C 270.9518 141.21735 270.9082 141.20697 270.87882 141.19361 C 270.59515 141.06632 270.6094 140.94021 270.46667 140.90846 C 270.32394 140.87671 270.08122 140.79244 269.95423 140.79749 C 269.84385 140.80224 269.42814 140.79482 269.19402 140.71915 C 269.28808 141.23337 269.44772 141.65354 269.52516 141.8384 L 270.55776 141.83928 C 270.66013 141.83928 271.1705 141.92237 271.1705 142.02474 C 271.1705 142.1271 270.65984 142.21019 270.55776 142.21019 L 270.55747 142.21019 L 269.56878 142.2093 L 269.56878 142.65082 C 269.58006 142.65112 269.594 142.64726 269.6041 142.64934 C 269.88212 142.70512 270.58684 143.53951 270.19754 144.54095 C 269.80023 145.56228 269.32577 145.56109 269.2332 145.65367 C 269.22043 145.66643 269.1973 145.69165 269.1688 145.7228 C 269.16376 145.8504 269.16524 145.98481 269.17028 146.1222 C 269.5041 146.12516 269.6572 146.10647 269.7498 146.4299 C 269.75364 146.44325 269.7569 146.4563 269.76047 146.46966 C 269.96254 146.4664 270.12188 146.48716 270.27528 146.62366 L 270.48418 146.62395 C 270.48744 146.48924 270.65984 146.48123 270.65984 146.48123 C 270.90434 146.47233 271.08534 146.4744 271.25833 146.62455 L 271.47316 146.62484 C 271.48324 146.49785 271.64733 146.48983 271.64733 146.48983 C 271.8853 146.48123 272.06245 146.48301 272.2301 146.62544 L 272.45116 146.62544 C 272.46718 146.50615 272.62355 146.49844 272.62355 146.49844 C 272.8553 146.48983 273.02858 146.49132 273.19148 146.62603 L 273.5876 146.62662 C 273.7514 146.62662 273.84487 146.75273 273.7772 146.90228 C 273.73152 147.00346 273.73953 146.95332 273.69532 147.15568 C 273.72796 147.22156 273.6983 147.33134 273.61313 147.34618 C 273.45735 147.37348 273.19653 147.38268 272.92295 147.21918 L 272.71524 147.21918 C 272.7464 147.28327 272.7366 147.32778 272.65263 147.34262 C 272.49656 147.36962 272.23574 147.37912 271.96038 147.21859 L 271.74525 147.21829 C 271.77463 147.2806 271.76454 147.32422 271.68175 147.33846 C 271.5248 147.36576 271.26397 147.37496 270.98742 147.2177 L 270.76458 147.2177 C 270.79217 147.27793 270.7815 147.32066 270.6996 147.3346 C 270.54263 147.3616 270.2818 147.3714 270.0032 147.2168 L 269.88598 147.2168 C 269.88064 147.24856 269.87322 147.27497 269.85868 147.2895 C 269.80794 147.34024 269.56908 147.35122 269.36197 147.26606 C 269.69667 148.33457 270.29635 148.6123 271.53962 149.16064 L 271.77077 149.10278 L 272.29953 149.43719 C 272.39982 149.5004 272.43187 149.63184 272.37252 149.7345 L 271.9586 150.44664 L 271.68413 150.51905 L 271.62775 150.5692 C 270.95893 152.49552 269.41834 154.41354 265.94994 154.99809 C 265.96893 155.05892 265.9888 155.11856 266.01255 155.17405 C 266.14222 155.4764 266.0891 155.70696 265.9722 155.78619 C 265.78526 155.91348 265.77487 156.31495 265.4568 156.43957 C 264.977 156.6274 264.32686 156.51227 263.84973 156.07727 C 263.7245 155.96303 263.63283 155.82832 263.55894 155.68678 C 263.5551 155.68382 263.55063 155.68263 263.54737 155.67937 L 255.62514 148.04941 C 255.10914 148.36008 255.17027 148.77965 255.04594 149.86358 C 254.91627 150.9947 255.12012 152.16319 255.1572 153.03467 C 255.1943 153.90644 255.10172 154.31444 255.02754 154.62956 C 254.95336 154.94498 254.58246 155.223 254.8605 155.6126 C 255.1388 156.0019 255.1943 155.9835 255.1943 157.11462 C 255.1943 157.26298 255.18926 157.40007 255.18065 157.52855 L 272.71524 157.52855 C 275.42908 157.52855 277.629 155.32864 277.629 152.6148 L 277.629 130.83647 C 277.629 128.12294 275.42908 125.92273 272.71524 125.92273" fill="#1b1b1a"/>
            </g>
          </g>
        </g>
        <g id="Group_58">
          <g id="Group_59">
            <g id="Graphic_60">
              <path d="M 263.8346 131.83602 C 263.8064 131.95827 263.99453 132.15618 264.12183 132.1372 C 264.24882 132.1185 264.46543 131.81732 264.40906 131.77964 C 264.17375 131.76065 263.86308 131.71347 263.8346 131.83602" fill="#1b1b1a"/>
            </g>
          </g>
        </g>
        <g id="Group_55">
          <g id="Group_56">
            <g id="Graphic_57">
              <path d="M 271.261 136.53143 C 271.34675 136.516 271.53398 136.43589 271.50253 136.35013 C 271.47167 136.26438 271.3236 135.97567 271.22213 135.8276 C 271.12065 135.68725 271.05834 135.66411 270.95804 135.76678 C 270.7999 135.92938 270.90226 136.11632 270.97258 136.22521 C 271.0429 136.3344 271.17524 136.54716 271.261 136.53143" fill="#1b1b1a"/>
            </g>
          </g>
        </g>
        <g id="Group_52">
          <g id="Group_53">
            <g id="Graphic_54">
              <path d="M 270.70286 135.67951 C 270.70286 135.62373 270.65776 135.57833 270.60138 135.57833 C 270.5456 135.57833 270.5002 135.62373 270.5002 135.67951 C 270.5002 135.73559 270.5456 135.78099 270.60138 135.78099 C 270.65776 135.78099 270.70286 135.73559 270.70286 135.67951" fill="#1b1b1a"/>
            </g>
          </g>
        </g>
        <g id="Group_49">
          <g id="Group_50">
            <g id="Graphic_51">
              <path d="M 269.68302 137.9765 C 269.7127 137.93289 269.71536 137.87621 269.68807 137.83082 C 269.5679 137.6332 269.39253 137.43795 269.259 137.34063 C 269.1961 137.29493 269.10738 137.31125 269.06257 137.37475 C 268.85368 137.67325 268.70917 137.94861 268.6896 138.20647 C 268.6878 138.23169 268.69196 138.25691 268.70324 138.27976 C 268.7893 138.45453 269.01806 138.67025 269.17117 138.61921 C 269.30856 138.57322 269.5664 138.1492 269.68302 137.9765" fill="#1b1b1a"/>
            </g>
          </g>
        </g>
        <g id="Group_46">
          <g id="Group_47">
            <g id="Graphic_48">
              <path d="M 269.0709 142.59259 C 268.89684 142.57995 268.6644 142.70913 268.6063 142.83808 C 268.57873 142.89957 268.62285 142.99162 268.67674 143.07135 C 268.79477 142.96674 268.96726 142.852 269.17595 142.75632 C 269.1538 142.7104 269.12095 142.65646 269.0709 142.59259" fill="#1b1b1a"/>
            </g>
          </g>
        </g>
        <g id="Group_43">
          <g id="Group_44">
            <g id="Graphic_45">
              <path d="M 269.21004 147.91856 C 269.0062 147.88473 268.94032 147.90491 268.71155 148.11558 C 268.48307 148.32626 268.6617 148.48946 268.71155 148.59153 C 268.7614 148.6933 268.9519 149.01288 269.09432 148.95828 C 269.23734 148.90398 269.69934 148.42833 269.65157 148.3672 C 269.6041 148.30608 269.40054 148.03398 269.21004 147.91856" fill="#1b1b1a"/>
            </g>
          </g>
        </g>
        <g id="Group_40">
          <g id="Group_41">
            <g id="Graphic_42">
              <path d="M 270.56726 150.62616 C 270.56726 150.56741 270.51978 150.51994 270.46103 150.51994 C 270.40198 150.51994 270.3545 150.56741 270.3545 150.62616 C 270.3545 150.68491 270.40198 150.73269 270.46103 150.73269 C 270.51978 150.73269 270.56726 150.68491 270.56726 150.62616" fill="#1b1b1a"/>
            </g>
          </g>
        </g>
        <g id="Group_37">
          <g id="Group_38">
            <g id="Graphic_39">
              <path d="M 268.49642 147.77583 C 268.61897 147.94586 269.02667 147.55151 269.0605 147.43609 C 269.09462 147.32066 268.64597 147.30019 268.46942 147.32066 C 268.29257 147.34084 268.354 147.41561 268.49642 147.77583" fill="#1b1b1a"/>
            </g>
          </g>
        </g>
        <g id="Group_34">
          <g id="Group_35">
            <g id="Graphic_36">
              <path d="M 269.1487 142.22454 C 269.15003 142.22013 269.15174 142.21366 269.1534 142.20897 L 268.69112 142.20852 C 268.7564 142.31145 268.8512 142.33437 268.94204 142.33458 C 269.04508 142.33433 269.1228 142.30202 269.1487 142.22454" fill="#1b1b1a"/>
            </g>
          </g>
        </g>
        <g id="Group_31">
          <g id="Group_32">
            <g id="Graphic_33">
              <path d="M 268.88695 140.61824 C 268.93384 140.56533 268.8769 140.17461 268.86632 140.13745 C 268.85574 140.10028 268.69213 140.09004 268.64445 140.13205 C 268.6338 140.17982 268.63393 140.43871 268.67077 140.4966 C 268.70773 140.55476 268.84005 140.67114 268.88695 140.61824" fill="#1b1b1a"/>
            </g>
          </g>
        </g>
        <g id="Group_28">
          <g id="Group_29">
            <g id="Graphic_30">
              <path d="M 268.63405 141.02144 C 268.54374 141.03416 268.45788 140.998 268.49655 141.23716 C 268.49664 141.32072 268.5044 141.34 268.54895 141.33992 L 269.12295 141.34005 C 269.09703 141.08189 268.94432 141.04077 268.63405 141.02144" fill="#1b1b1a"/>
            </g>
          </g>
        </g>
        <g id="Group_25">
          <g id="Group_26">
            <g id="Graphic_27">
              <path d="M 246.7752 141.46543 C 246.2993 141.4178 246.22295 141.63706 245.6035 141.68457 C 245.91797 142.01767 247.41355 142.61808 247.73734 142.58931 C 248.0609 142.56074 248.4896 141.99884 248.47032 141.93252 C 248.4513 141.8656 247.25154 141.5131 246.7752 141.46543" fill="#1b1b1a"/>
            </g>
          </g>
        </g>
        <g id="Group_22">
          <g id="Group_23">
            <g id="Graphic_24">
              <path d="M 245.95878 156.68823 C 246.12554 155.8476 246.34808 155.6126 246.36677 154.74113 C 246.38517 153.86935 246.10714 154.29574 245.8291 152.31155 C 245.55078 150.32736 245.23537 147.73103 245.1428 147.36012 C 245.0499 146.98892 244.62352 146.43257 243.86332 145.61658 C 243.1028 144.80059 242.63903 144.09587 242.43518 144.02169 C 242.23104 143.9475 241.52632 143.44693 240.97026 143.11312 C 240.4139 142.7793 240.71063 142.68643 240.71063 142.50098 C 240.71063 142.31553 240.35812 142.50098 240.15427 142.4268 C 239.95012 142.35262 239.2454 141.72208 239.33828 140.90609 C 239.43086 140.0901 240.0059 139.6637 240.56227 139.58953 C 241.11862 139.51534 241.41505 139.42247 242.88027 139.27411 C 244.3455 139.12575 246.07005 139.75628 246.44095 139.75985 C 246.81186 139.76311 247.29403 139.73789 247.7762 139.75628 C 248.2584 139.77498 248.1842 139.7192 248.36966 139.51534 C 248.5551 139.3112 248.42544 139.05157 248.35126 138.86611 C 248.27678 138.68066 248.1842 138.1059 248.29548 137.86467 C 248.40675 137.62373 248.31387 137.3641 249.05598 136.43684 C 249.26072 136.18076 249.5174 136.0321 249.80165 135.95882 L 249.80165 125.92273 L 227.229 125.92273 C 224.51515 125.92273 222.31524 128.12294 222.31524 130.83647 L 222.31524 136.4312 L 231.20212 136.4312 L 231.20212 134.5016 C 231.20212 133.67553 231.87153 133.00582 232.6976 133.00582 L 239.4193 133.00582 C 240.24536 133.00582 240.91477 133.67553 240.91477 134.5016 L 240.91477 136.77362 C 240.91477 137.5994 240.24536 138.2691 239.4193 138.2691 L 233.2863 138.2691 L 233.2863 145.56732 L 239.4193 145.56732 C 240.24536 145.56732 240.91477 146.23673 240.91477 147.0628 L 240.91477 149.33482 C 240.91477 150.1609 240.24536 150.8303 239.4193 150.8303 L 232.6976 150.8303 C 231.87153 150.8303 231.20212 150.1609 231.20212 149.33482 L 231.20212 147.57584 L 222.31524 147.57584 L 222.31524 152.6148 C 222.31524 155.32864 224.51515 157.52884 227.229 157.52884 L 245.81012 157.52884 C 245.85493 157.24488 245.90596 156.9541 245.95878 156.68823" fill="#1b1b1a"/>
            </g>
          </g>
        </g>
      </g>
      <g id="Group_191">
        <g id="Graphic_161">
          <text transform="translate(-435.5 185)" fill="#424242">
            <tspan font-family="Concourse T4" font-size="24" fill="#424242" x="0" y="23">Freestyle</tspan>
          </text>
        </g>
        <g id="Graphic_162">
          <text transform="translate(-472.94 260.2347)" fill="#424242">
            <tspan font-family="Concourse T4" font-size="24" fill="#424242" x="7105427e-20" y="23">Freestyle Limited</tspan>
            <tspan font-family="Concourse T4" font-size="16" fill="#424242" x="26.96" y="44">(No release aids)</tspan>
          </text>
        </g>
        <g id="Graphic_163">
          <text transform="translate(-487.82 354.4694)" fill="#424242">
            <tspan font-family="Concourse T4" font-size="24" fill="#424242" x="0" y="23">Bowhunter Freestyle</tspan>
          </text>
        </g>
        <g id="Graphic_164">
          <text transform="translate(-436.34 580.1735)" fill="#424242">
            <tspan font-family="Concourse T4" font-size="24" fill="#424242" x=".64" y="23">Barebow</tspan>
            <tspan font-family="Concourse T4" font-size="16" fill="#424242" x="7247536e-19" y="44">(Rarely used)</tspan>
          </text>
        </g>
        <g id="Graphic_165">
          <text transform="translate(-506 504.9388)" fill="#424242">
            <tspan font-family="Concourse T4" font-size="24" fill="#424242" x="0" y="23">Freestyle Limited Recurve</tspan>
          </text>
        </g>
        <g id="Graphic_166">
          <text transform="translate(-472.94 429.7041)" fill="#424242">
            <tspan font-family="Concourse T4" font-size="24" fill="#424242" x="45474735e-20" y="23">Barebow Recurve</tspan>
          </text>
        </g>
        <g id="Graphic_167">
          <text transform="translate(-445.06 674.4082)" fill="#424242">
            <tspan font-family="Concourse T4" font-size="24" fill="#424242" x="781597e-19" y="23">Traditional</tspan>
          </text>
        </g>
        <g id="Graphic_168">
          <text transform="translate(-430.66 749.6429)" fill="#424242">
            <tspan font-family="Concourse T4" font-size="24" fill="#424242" x="0" y="23">Longbow</tspan>
          </text>
        </g>
      </g>
      <g id="Group_192">
        <g id="Graphic_170">
          <text transform="translate(-99.86 185)" fill="#424242">
            <tspan font-family="Concourse T4" font-size="24" fill="#424242" x="0" y="23">Compound</tspan>
          </text>
        </g>
        <g id="Graphic_171">
          <text transform="translate(-131.39 346.68673)" fill="#424242">
            <tspan font-family="Concourse T4" font-size="24" fill="#424242" x="37.08" y="23">Fixed Pins</tspan>
            <tspan font-family="Concourse T4" font-size="16" fill="#424242" x="4405365e-19" y="44">(Youth and collegiate only)</tspan>
          </text>
        </g>
        <g id="Graphic_172">
          <text transform="translate(-126.62 580.1735)" fill="#424242">
            <tspan font-family="Concourse T4" font-size="24" fill="#424242" x="0" y="23">Basic Compound</tspan>
            <tspan font-family="Concourse T4" font-size="16" fill="#424242" x="39.84" y="44">(Youth only)</tspan>
          </text>
        </g>
        <g id="Graphic_173">
          <text transform="translate(-88.46 429.7041)" fill="#424242">
            <tspan font-family="Concourse T4" font-size="24" fill="#424242" x="0" y="23">Barebow</tspan>
          </text>
        </g>
        <g id="Graphic_174">
          <text transform="translate(-85.22 504.9388)" fill="#424242">
            <tspan font-family="Concourse T4" font-size="24" fill="#424242" x="0" y="23">Recurve</tspan>
          </text>
        </g>
      </g>
      <g id="Group_193">
        <g id="Graphic_175">
          <text transform="translate(223.9 185)" fill="#424242">
            <tspan font-family="Concourse T4" font-size="24" fill="#424242" x="6536993e-19" y="23">Open</tspan>
          </text>
        </g>
        <g id="Graphic_176">
          <text transform="translate(231.22 354.4694)" fill="#424242">
            <tspan font-family="Concourse T4" font-size="24" fill="#424242" x="0" y="23">Pins</tspan>
          </text>
        </g>
        <g id="Graphic_177">
          <text transform="translate(209.62 429.7041)" fill="#424242">
            <tspan font-family="Concourse T4" font-size="24" fill="#424242" x="0" y="23">Barebow</tspan>
          </text>
        </g>
        <g id="Graphic_178">
          <text transform="translate(170.5 504.9388)" fill="#424242">
            <tspan font-family="Concourse T4" font-size="24" fill="#424242" x="29842795e-20" y="23">Olympic Recurve</tspan>
          </text>
        </g>
      </g>
      <g id="Line_179">
        <line x1="-346.74" y1="199.5" x2="-104.86" y2="199.5" stroke="#424242" stroke-linecap="round" stroke-linejoin="round" stroke-width="1.5"/>
      </g>
      <g id="Line_180">
        <line x1="-308.1" y1="284.2347" x2="-104.86" y2="218.04915" stroke="#424242" stroke-linecap="round" stroke-linejoin="round" stroke-width="1.5"/>
      </g>
      <g id="Line_181">
        <line x1="-293.22" y1="368.9694" x2="-136.39" y2="370.06713" stroke="#424242" stroke-linecap="round" stroke-linejoin="round" stroke-width="1.5"/>
      </g>
      <g id="Line_182">
        <line x1="-306.9" y1="444.2041" x2="-93.46" y2="444.2041" stroke="#424242" stroke-linecap="round" stroke-linejoin="round" stroke-width="1.5"/>
      </g>
      <g id="Line_183">
        <line x1="-261.24" y1="519.4388" x2="-90.22" y2="519.4388" stroke="#424242" stroke-linecap="round" stroke-linejoin="round" stroke-width="1.5"/>
      </g>
      <g id="Line_184">
        <line x1="-348.94" y1="604.1735" x2="-131.62" y2="604.1735" stroke="#424242" stroke-linecap="round" stroke-linejoin="round" stroke-dasharray="12.0,7.5" stroke-width="1.5"/>
      </g>
      <g id="Line_185">
        <line x1="9.06" y1="199.5" x2="218.9" y2="199.5" stroke="#424242" stroke-linecap="round" stroke-linejoin="round" stroke-width="1.5"/>
      </g>
      <g id="Line_186">
        <line x1="40.65" y1="370.1321" x2="226.22" y2="368.9694" stroke="#424242" stroke-linecap="round" stroke-linejoin="round" stroke-width="1.5"/>
      </g>
      <g id="Line_187">
        <line x1="-2.34" y1="444.2041" x2="204.62" y2="444.2041" stroke="#424242" stroke-linecap="round" stroke-linejoin="round" stroke-width="1.5"/>
      </g>
      <g id="Line_188">
        <line x1="-5.58" y1="519.4388" x2="165.5" y2="519.4388" stroke="#424242" stroke-linecap="round" stroke-linejoin="round" stroke-width="1.5"/>
      </g>
      <g id="Group_194">
        <g id="Group_279">
          <g id="Graphic_280">
            <path d="M -353.29365 111.61717 C -353.34697 111.48043 -353.31492 111.36248 -353.2014 111.27878 L -349.45423 108.48215 L -353.61022 110.13571 C -353.75884 110.19399 -353.8696 110.14565 -353.92817 109.99704 L -354.20026 109.30064 C -354.25883 109.15175 -354.2105 109.04098 -354.0616 108.98269 L -347.70565 106.49463 C -347.5562 106.43717 -347.446 106.4844 -347.38743 106.6333 L -346.946 107.7631 C -346.89075 107.9004 -346.91313 108.0142 -347.0366 108.10122 L -350.8473 110.97602 L -346.6101 109.29014 C -346.4615 109.23186 -346.35126 109.2802 -346.2927 109.42882 L -346.0195 110.12521 C -345.96287 110.2741 -346.0112 110.38487 -346.15928 110.4426 L -352.51632 112.9315 C -352.6641 112.98979 -352.7749 112.94062 -352.83317 112.79255 Z" fill="#051837"/>
          </g>
        </g>
        <g id="Group_277">
          <g id="Graphic_278">
            <path d="M -345.59962 116.52369 L -349.08794 116.7317 L -348.94043 117.55074 Z M -351.48402 118.57171 C -351.51192 118.41674 -351.4553 118.31785 -351.30033 118.27807 L -350.0846 117.90847 L -350.2802 116.8223 L -351.55143 116.89081 C -351.7108 116.90655 -351.7984 116.83528 -351.8271 116.67866 L -351.96 115.94276 C -351.9887 115.78614 -351.90777 115.68365 -351.74617 115.68006 L -344.86345 115.36764 C -344.70323 115.35106 -344.6154 115.42316 -344.58777 115.57896 L -344.32175 117.05103 C -344.293 117.2082 -344.34965 117.30627 -344.50158 117.3582 L -351.05834 119.4797 C -351.21027 119.53274 -351.32243 119.46589 -351.35033 119.30926 Z" fill="#051837"/>
          </g>
        </g>
        <g id="Group_275">
          <g id="Graphic_276">
            <path d="M -351.1064 122.99095 C -351.10917 122.83156 -351.0241 122.74538 -350.86553 122.74261 L -344.94218 122.65532 L -344.9535 121.99263 C -344.95544 121.8338 -344.8701 121.74595 -344.7115 121.74402 L -344.04772 121.73435 C -343.88916 121.73242 -343.80215 121.81667 -343.7994 121.97633 L -343.76237 124.53816 C -343.7596 124.69754 -343.84414 124.78566 -344.00352 124.78732 L -344.6662 124.79699 C -344.82478 124.79975 -344.91207 124.7155 -344.914 124.55528 L -344.92422 123.89342 L -350.8462 123.98071 C -351.0064 123.98347 -351.09343 123.89839 -351.09536 123.73955 Z" fill="#051837"/>
          </g>
        </g>
        <g id="Group_273">
          <g id="Graphic_274">
            <path d="M -351.34756 128.0693 C -351.32767 127.91046 -351.2307 127.8367 -351.07354 127.85659 L -344.3013 128.74552 C -344.14413 128.76569 -344.06982 128.86237 -344.09137 129.02066 L -344.18777 129.76208 C -344.20794 129.92008 -344.30462 129.99384 -344.46263 129.97284 L -351.23403 129.08474 C -351.3912 129.06485 -351.4658 128.96734 -351.4459 128.80989 Z" fill="#051837"/>
          </g>
        </g>
        <g id="Group_271">
          <g id="Graphic_272">
            <path d="M -350.673 133.8653 C -351.1669 133.71751 -351.44784 133.88989 -351.53126 134.17192 C -351.6158 134.45369 -351.47463 134.75147 -350.98183 134.89843 L -347.41036 135.96305 C -346.91727 136.11028 -346.6369 135.93791 -346.5529 135.65642 C -346.4684 135.37494 -346.60954 135.07688 -347.10263 134.92992 Z M -351.71164 135.97299 C -352.88538 135.62217 -352.91714 134.65451 -352.67184 133.83132 C -352.48483 133.20896 -351.86965 132.21672 -350.6959 132.56671 L -346.3728 133.85563 C -345.1988 134.20563 -345.22698 135.37328 -345.41316 135.99564 C -345.6582 136.8191 -346.2137 137.6119 -347.38826 137.26191 Z" fill="#051837"/>
          </g>
        </g>
        <g id="Group_269">
          <g id="Graphic_270">
            <path d="M -355.49858 140.8588 C -355.4295 140.72869 -355.31847 140.67676 -355.1812 140.7077 L -350.61747 141.74248 L -354.57677 139.65495 C -354.7171 139.57954 -354.753 139.4627 -354.67788 139.32237 L -354.32485 138.66299 C -354.25026 138.52183 -354.13424 138.48758 -353.99364 138.56188 L -347.9692 141.7817 C -347.82858 141.85629 -347.79267 141.97286 -347.8681 142.11346 L -348.4407 143.18416 C -348.5098 143.31427 -348.60978 143.37172 -348.757 143.33388 L -353.4196 142.30296 L -349.38435 144.4322 C -349.24457 144.50678 -349.2095 144.6228 -349.2838 144.76313 L -349.63627 145.42306 C -349.7114 145.56367 -349.82826 145.59875 -349.96886 145.52416 L -355.9936 142.30434 C -356.1331 142.2292 -356.169 142.11236 -356.09387 141.97286 Z" fill="#051837"/>
          </g>
        </g>
        <g id="Group_267">
          <g id="Graphic_268">
            <path d="M -354.25137 149.92158 L -356.6737 147.40147 L -357.20213 148.04676 Z M -359.6308 146.77497 C -359.52888 146.65176 -359.41755 146.63215 -359.28745 146.72386 L -358.21565 147.40838 L -357.51677 146.5537 L -358.3938 145.63134 C -358.51067 145.52085 -358.5126 145.4076 -358.4115 145.28439 L -357.9386 144.70484 C -357.83665 144.58192 -357.70737 144.57722 -357.59964 144.69766 L -352.8931 149.73264 C -352.7779 149.84313 -352.77516 149.95556 -352.8757 150.07931 L -353.82265 151.23675 C -353.92347 151.35995 -354.0348 151.38039 -354.17402 151.29862 L -360.04406 147.68848 C -360.1833 147.60672 -360.204 147.47744 -360.10317 147.35451 Z" fill="#051837"/>
          </g>
        </g>
        <g id="Group_265">
          <g id="Graphic_266">
            <path d="M -362.4545 149.68319 C -362.33434 149.57822 -362.2125 149.58678 -362.10866 149.7064 L -357.61594 154.84938 C -357.51207 154.96899 -357.51953 155.0908 -357.64024 155.19467 L -358.2024 155.68748 C -358.32283 155.79245 -358.44437 155.78361 -358.54934 155.66428 L -362.4443 151.2047 L -363.2379 151.89806 C -363.35835 152.00303 -363.47907 151.99447 -363.58376 151.87485 L -364.01966 151.37625 C -364.12463 151.25664 -364.11524 151.1351 -363.99646 151.0304 Z" fill="#051837"/>
          </g>
        </g>
        <g id="Group_263">
          <g id="Graphic_264">
            <path d="M -370.0444 154.99026 C -369.89965 154.92313 -369.78584 154.96429 -369.7187 155.10793 L -366.80137 161.28432 C -366.73397 161.42907 -366.7743 161.54288 -366.91877 161.61083 L -369.25878 162.71578 C -369.4027 162.78373 -369.51733 162.74285 -369.5853 162.5981 L -369.86733 162.00005 C -369.9353 161.85558 -369.89523 161.74066 -369.74965 161.67354 L -368.30935 160.99261 L -369.1154 159.28547 L -370.5021 159.9396 C -370.6452 160.00755 -370.76068 159.96667 -370.82863 159.82275 L -371.11067 159.22359 C -371.17862 159.08022 -371.13774 158.9653 -370.99327 158.89653 L -369.6074 158.2424 L -370.83802 155.63665 C -370.90515 155.493 -370.8648 155.37837 -370.72145 155.31014 Z" fill="#051837"/>
          </g>
        </g>
        <g id="Group_261">
          <g id="Graphic_262">
            <path d="M -375.3252 157.16728 C -375.17384 157.12004 -375.0661 157.17667 -375.0183 157.32888 L -372.98963 163.84918 C -372.94157 164.00194 -372.99875 164.10912 -373.15096 164.15608 L -373.86613 164.37873 C -374.0167 164.42652 -374.1244 164.36989 -374.17138 164.21796 L -376.20117 157.696 C -376.24813 157.54462 -376.19177 157.43606 -376.03957 157.3891 Z" fill="#051837"/>
          </g>
        </g>
        <g id="Group_259">
          <g id="Graphic_260">
            <path d="M -379.65855 158.28908 C -379.50027 158.26532 -379.40275 158.33687 -379.379 158.4946 L -378.35416 165.24528 C -378.3304 165.40384 -378.4025 165.50053 -378.5597 165.524 L -381.11653 165.91378 C -381.2748 165.93753 -381.37343 165.8646 -381.3961 165.70826 L -381.49553 165.0533 C -381.51984 164.89612 -381.448 164.7975 -381.28973 164.77375 L -379.7138 164.53425 L -379.99777 162.66854 L -381.5124 162.8981 C -381.67066 162.92185 -381.76817 162.84975 -381.79193 162.69258 L -381.89137 162.0379 C -381.91485 161.88044 -381.84303 161.78293 -381.6856 161.75834 L -380.17097 161.52851 L -380.4671 159.57745 L -382.0422 159.81612 C -382.2005 159.83987 -382.298 159.7686 -382.32175 159.61115 L -382.4209 158.95647 C -382.4447 158.79818 -382.3737 158.70067 -382.21595 158.67692 Z" fill="#051837"/>
          </g>
        </g>
        <g id="Group_257">
          <g id="Graphic_258">
            <path d="M -385.77333 158.87746 C -385.6145 158.88023 -385.5297 158.96641 -385.5319 159.12663 L -385.6275 165.9577 C -385.62886 166.11764 -385.71726 166.20217 -385.8758 166.19996 L -386.62387 166.19001 C -386.7841 166.1878 -386.86834 166.10024 -386.86613 165.94002 L -386.78353 160.0164 L -387.83765 160.00175 C -387.99787 159.99954 -388.08212 159.91197 -388.0799 159.75314 L -388.07163 159.09017 C -388.0686 158.9316 -387.98185 158.84736 -387.82246 158.84874 Z" fill="#051837"/>
          </g>
        </g>
        <g id="Group_255">
          <g id="Graphic_256">
            <path d="M -394.14498 163.51549 C -394.24304 164.0326 -394.11045 164.25773 -393.7621 164.32293 L -393.2798 164.41436 L -392.35137 159.48795 L -392.83285 159.39734 C -393.1823 159.33215 -393.38753 159.49347 -393.487 160.0222 Z M -391.163 158.54046 C -391.00637 158.56918 -390.9376 158.67029 -390.96714 158.82691 L -392.2312 165.53395 C -392.26104 165.69085 -392.3613 165.75964 -392.51794 165.72897 L -394.38364 165.37788 C -395.22727 165.21904 -395.6071 164.58673 -395.4281 163.63482 L -394.63806 159.4443 C -394.45823 158.4935 -393.8729 158.02942 -393.02925 158.18825 Z" fill="#051837"/>
          </g>
        </g>
        <g id="Group_253">
          <g id="Graphic_254">
            <path d="M -405.2044 160.3324 L -403.22406 157.45623 L -403.96134 157.06894 Z M -403.20307 154.43585 C -403.0619 154.51043 -403.01964 154.61568 -403.08263 154.76153 L -403.53925 155.94714 L -402.56275 156.46011 L -401.8357 155.41704 C -401.7506 155.28141 -401.64095 155.256 -401.50034 155.32975 L -400.83792 155.67726 C -400.6965 155.75157 -400.6661 155.87808 -400.7625 156.00764 L -404.7478 161.62464 C -404.83314 161.75862 -404.94253 161.78486 -405.08314 161.71028 L -406.40686 161.01554 C -406.5483 160.94178 -406.58973 160.83654 -406.5381 160.6835 L -404.17984 154.21458 C -404.12736 154.06238 -404.0058 154.01486 -403.86465 154.08945 Z" fill="#051837"/>
          </g>
        </g>
        <g id="Group_251">
          <g id="Graphic_252">
            <path d="M -409.9203 154.8712 L -410.30567 154.56927 C -410.5855 154.34966 -410.8413 154.3969 -411.167 154.81208 L -411.7272 155.52478 C -411.9316 155.78554 -411.8051 156.04106 -411.5932 156.20736 L -411.2076 156.50984 Z M -406.61984 152.27512 C -406.49415 152.37263 -406.47924 152.49307 -406.5784 152.61848 L -410.79406 157.98743 C -410.8924 158.11201 -411.01284 158.1272 -411.13825 158.02886 L -412.6026 156.87834 C -413.26776 156.3557 -413.3512 155.5897 -412.75313 154.82838 L -411.98934 153.85465 C -411.5797 153.33366 -411.19543 153.12262 -410.59904 153.21626 L -409.43663 150.40555 C -409.37697 150.24975 -409.2408 150.21605 -409.106 150.32213 L -408.5278 150.77598 C -408.41207 150.86659 -408.3731 150.97598 -408.4347 151.11437 L -409.4844 153.70133 L -409.18664 153.93586 L -407.5513 151.85469 C -407.45297 151.72928 -407.33253 151.71491 -407.2071 151.81325 Z" fill="#051837"/>
          </g>
        </g>
        <g id="Group_249">
          <g id="Graphic_250">
            <path d="M -413.5164 148.46222 C -413.12965 148.123 -413.1255 147.79373 -413.3186 147.57108 C -413.51196 147.35092 -413.83958 147.31114 -414.22714 147.6498 L -414.531 147.91693 C -414.6506 148.0219 -414.77215 148.01334 -414.87795 147.89373 L -415.36965 147.33158 C -415.4746 147.21114 -415.4669 147.09043 -415.34645 146.98546 L -414.74757 146.4606 C -413.82493 145.65317 -412.9893 146.14349 -412.42386 146.7885 C -411.9954 147.27744 -411.48383 148.3277 -412.40673 149.13486 L -415.7995 152.10607 C -416.7224 152.91323 -417.695 152.26684 -418.12263 151.77707 C -418.68864 151.13205 -419.0632 150.23925 -418.1414 149.43099 L -417.45856 148.83348 C -417.33895 148.72851 -417.2174 148.7379 -417.11326 148.85669 L -416.62073 149.41994 C -416.51576 149.54038 -416.5235 149.66026 -416.6431 149.76578 L -417.02984 150.10417 C -417.41823 150.4434 -417.42237 150.77294 -417.2293 150.99476 C -417.03453 151.21575 -416.70774 151.2547 -416.3199 150.91631 Z" fill="#051837"/>
          </g>
        </g>
        <g id="Group_247">
          <g id="Graphic_248">
            <path d="M -416.7359 140.8867 C -416.65443 141.02371 -416.6862 141.14139 -416.8235 141.22177 L -419.2773 142.65848 L -418.7381 143.57863 L -416.28483 142.14164 C -416.147 142.06098 -416.0293 142.09192 -415.9492 142.22893 L -415.57075 142.87422 C -415.49064 143.01206 -415.52103 143.12919 -415.6597 143.2093 L -421.54963 146.65922 C -421.68747 146.73905 -421.8046 146.70867 -421.88553 146.57166 L -422.26287 145.92664 C -422.3438 145.7888 -422.3126 145.67167 -422.1756 145.59074 L -419.732 144.16038 L -420.27203 143.24051 L -422.71397 144.6706 C -422.8518 144.75153 -422.96893 144.72114 -423.04904 144.5833 L -423.4275 143.93801 C -423.5073 143.80017 -423.47693 143.68332 -423.3399 143.60238 L -417.4486 140.15329 C -417.3116 140.07235 -417.19447 140.10356 -417.11354 140.24058 Z" fill="#051837"/>
          </g>
        </g>
        <g id="Group_245">
          <g id="Graphic_246">
            <path d="M -418.63975 136.91634 C -418.58533 137.06606 -418.637 137.176 -418.7859 137.23042 L -425.2073 139.54722 C -425.357 139.60081 -425.46695 139.54916 -425.52054 139.39888 L -426.39787 136.96689 C -426.452 136.818 -426.40146 136.70806 -426.2509 136.65364 L -425.6291 136.4285 C -425.4788 136.37492 -425.3686 136.42657 -425.3142 136.5763 L -424.77497 138.07488 L -422.9985 137.43373 L -423.51837 135.99371 C -423.5728 135.84344 -423.52196 135.73405 -423.3714 135.67963 L -422.74877 135.45477 C -422.59905 135.40035 -422.4891 135.45256 -422.4355 135.60228 L -421.9148 137.04313 L -420.0588 136.37298 L -420.60075 134.87495 C -420.65517 134.7255 -420.6027 134.61529 -420.45297 134.5617 L -419.83116 134.33684 C -419.6806 134.28325 -419.5715 134.33463 -419.5171 134.48352 Z" fill="#051837"/>
          </g>
        </g>
        <g id="Group_243">
          <g id="Graphic_244">
            <path d="M -424.60895 130.772 L -424.6907 130.28775 C -424.749 129.93831 -424.97165 129.8013 -425.49153 129.88859 L -426.38737 130.03914 C -426.71333 130.09384 -426.7915 130.3687 -426.7462 130.63443 L -426.66443 131.11868 Z M -420.41733 131.0742 C -420.39137 131.23166 -420.46153 131.33083 -420.61816 131.35624 L -427.3545 132.4902 C -427.5108 132.51699 -427.6108 132.44572 -427.63707 132.28937 L -427.94673 130.45073 C -428.0868 129.61622 -427.6321 128.99248 -426.6763 128.83226 L -425.4545 128.62619 C -424.8023 128.51625 -424.375 128.61763 -423.99626 129.09027 L -421.24273 127.79306 C -421.09356 127.71875 -420.9709 127.7845 -420.9422 127.9541 L -420.82064 128.67867 C -420.7955 128.8248 -420.84 128.9317 -420.97865 128.99248 L -423.4982 130.20046 L -423.43605 130.57504 L -420.8234 130.13582 C -420.66705 130.10903 -420.5679 130.17836 -420.54164 130.33582 Z" fill="#051837"/>
          </g>
        </g>
        <g id="Group_241">
          <g id="Graphic_242">
            <path d="M -421.14384 123.74121 C -421.14605 123.9006 -421.2328 123.98568 -421.39245 123.98264 L -423.562 123.95474 L -428.2111 125.15444 C -428.3713 125.20168 -428.48014 125.11522 -428.47765 124.94367 L -428.4677 124.19562 C -428.4655 124.04894 -428.3909 123.96358 -428.24396 123.9285 L -425.30507 123.30586 L -428.2376 122.58019 C -428.37186 122.54179 -428.4437 122.4556 -428.4423 122.30837 L -428.4329 121.56115 C -428.4304 121.3896 -428.31827 121.3059 -428.16053 121.35563 L -423.5573 122.70477 L -421.3756 122.7335 C -421.21676 122.73488 -421.13196 122.82245 -421.1339 122.98184 Z" fill="#051837"/>
          </g>
        </g>
        <g id="Group_239">
          <g id="Graphic_240">
            <path d="M -425.47993 111.73512 L -422.288 113.15332 L -422.04326 112.35693 Z M -419.31515 112.61963 C -419.36183 112.77184 -419.45824 112.83178 -419.6132 112.79808 L -420.86373 112.56687 L -421.1883 113.62099 L -420.0284 114.14474 C -419.8792 114.20275 -419.83364 114.30716 -419.88143 114.45937 L -420.1016 115.174 C -420.1483 115.32593 -420.26734 115.37896 -420.41264 115.30935 L -426.66637 112.42212 C -426.81526 112.36411 -426.8603 112.25942 -426.81333 112.10749 L -426.37383 110.67768 C -426.32604 110.52548 -426.23157 110.46498 -426.0711 110.48901 L -419.2762 111.61855 C -419.11736 111.64258 -419.0483 111.75335 -419.0958 111.90556 Z" fill="#051837"/>
          </g>
        </g>
        <g id="Group_237">
          <g id="Graphic_238">
            <path d="M -417.5345 105.45653 C -416.6011 105.94574 -416.65167 106.91478 -417.06105 107.69626 C -417.4765 108.48906 -418.25495 109.07689 -419.1762 108.59403 L -419.948 108.19017 C -420.08916 108.11669 -420.12507 108.00067 -420.0516 107.85951 L -419.7049 107.19793 C -419.63116 107.05649 -419.5146 107.01975 -419.3748 107.09351 L -419.00493 107.28715 C -418.53864 107.53107 -418.23837 107.38328 -418.1146 107.14516 C -418.029 106.98163 -417.9892 106.61506 -418.3149 106.4449 L -418.81405 106.18386 C -419.42233 105.86563 -421.16373 107.55455 -422.3692 106.92252 L -423.16147 106.50761 C -424.0084 106.0648 -424.27084 105.1383 -423.7706 104.18363 C -423.17307 103.0436 -422.3869 102.91625 -421.52946 103.36458 L -420.79136 103.75104 C -420.65075 103.82507 -420.614 103.94081 -420.6886 104.08225 L -421.035 104.74356 C -421.10875 104.88554 -421.22395 104.92173 -421.36593 104.84798 L -421.8209 104.60875 C -422.29934 104.35876 -422.5924 104.49633 -422.717 104.735 C -422.80816 104.90792 -422.83745 105.28001 -422.52226 105.44548 L -422.0126 105.71287 C -421.14384 106.16673 -419.6839 104.33058 -418.47925 104.96179 Z" fill="#051837"/>
          </g>
        </g>
        <g id="Group_235">
          <g id="Graphic_236">
            <path d="M -413.64013 100.02405 C -412.81087 100.67376 -413.036 101.61738 -413.58046 102.31212 C -414.13266 103.01597 -415.00585 103.45326 -415.82517 102.81073 L -416.51024 102.27428 C -416.6348 102.17704 -416.65084 102.05577 -416.55084 101.93036 L -416.09063 101.34115 C -415.9931 101.21656 -415.8713 101.20165 -415.74644 101.29971 L -415.41827 101.55744 C -415.00336 101.88202 -414.68265 101.79086 -414.51636 101.57843 C -414.40393 101.43424 -414.2973 101.08093 -414.5868 100.85442 L -415.03154 100.5058 C -415.5713 100.08289 -417.58977 101.42816 -418.661 100.58923 L -419.36487 100.03703 C -420.11706 99.44754 -420.20767 98.489 -419.5422 97.64095 C -418.7483 96.62771 -417.95247 96.64429 -417.19033 97.24179 L -416.53427 97.75587 C -416.4086 97.85503 -416.39366 97.97437 -416.49283 98.09923 L -416.95387 98.68817 C -417.0514 98.8144 -417.1724 98.82767 -417.29696 98.73043 L -417.70247 98.41276 C -418.12733 98.07989 -418.4406 98.16138 -418.60715 98.37381 C -418.7276 98.52795 -418.82427 98.88816 -418.5436 99.10832 L -418.09086 99.46329 C -417.3188 100.06769 -415.5506 98.52684 -414.48017 99.36577 Z" fill="#051837"/>
          </g>
        </g>
        <g id="Group_233">
          <g id="Graphic_234">
            <path d="M -410.791 96.4954 C -410.45015 96.88296 -410.1206 96.8871 -409.8996 96.69235 C -409.67806 96.4976 -409.63994 96.16999 -409.97916 95.78326 L -412.4385 92.98055 C -412.77855 92.59382 -413.10893 92.58885 -413.3299 92.78277 C -413.55146 92.97779 -413.5896 93.30541 -413.24953 93.69269 Z M -408.78913 95.262 C -407.9803 96.18325 -408.46953 97.02107 -409.11564 97.58653 C -409.60376 98.0147 -410.65373 98.5296 -411.46256 97.60753 L -414.4404 94.21423 C -415.2492 93.29298 -414.6028 92.31786 -414.1139 91.88969 C -413.4694 91.32258 -412.5758 90.94634 -411.76614 91.86842 Z" fill="#051837"/>
          </g>
        </g>
        <g id="Group_231">
          <g id="Graphic_232">
            <path d="M -405.2171 92.34908 C -404.9555 92.79244 -404.6323 92.85873 -404.379 92.7104 C -404.12487 92.5604 -404.02487 92.24659 -404.28674 91.80157 L -404.4909 91.45379 C -404.57265 91.31512 -404.54143 91.198 -404.4036 91.11734 L -403.75913 90.73889 C -403.6221 90.65795 -403.50334 90.68917 -403.4235 90.82618 L -403.0191 91.51374 C -402.3984 92.57007 -403.03677 93.30127 -403.77653 93.73551 C -404.33647 94.06479 -405.4646 94.37196 -406.0853 93.3148 L -408.37174 89.42317 C -408.99244 88.36601 -408.17533 87.52984 -407.6154 87.20057 C -406.8748 86.7666 -405.9262 86.56412 -405.3047 87.62211 L -404.8453 88.40496 C -404.76436 88.54198 -404.79557 88.65938 -404.93286 88.74087 L -405.5779 89.11931 C -405.7149 89.19942 -405.83367 89.16959 -405.9135 89.03175 L -406.17455 88.587 C -406.4353 88.14392 -406.7585 88.07735 -407.0118 88.22651 C -407.26596 88.37568 -407.36596 88.68976 -407.1049 89.13451 Z" fill="#051837"/>
          </g>
        </g>
        <g id="Group_229">
          <g id="Graphic_230">
            <path d="M -399.26724 91.38059 C -399.4153 91.43915 -399.5269 91.38998 -399.58547 91.24192 L -402.07436 84.88515 C -402.131 84.73792 -402.08292 84.62632 -401.93486 84.56858 L -401.2393 84.29456 C -401.0907 84.2371 -400.9791 84.28627 -400.9222 84.43406 L -398.433 90.79027 C -398.3739 90.93916 -398.42306 91.04993 -398.57195 91.10822 Z" fill="#051837"/>
          </g>
        </g>
        <g id="Group_227">
          <g id="Graphic_228">
            <path d="M -395.0726 83.66004 L -394.72645 87.13538 L -393.9135 86.95472 Z M -392.79307 89.45466 C -392.9483 89.48975 -393.04776 89.43726 -393.09417 89.2834 L -393.5124 88.08287 L -394.58806 88.32264 L -394.4704 89.58919 C -394.44746 89.74748 -394.5157 89.83753 -394.6712 89.87178 L -395.40103 90.03476 C -395.55655 90.06902 -395.6615 89.99139 -395.67146 89.83035 L -396.2557 82.96862 C -396.2778 82.81116 -396.20957 82.72083 -396.0549 82.68603 L -394.59524 82.36172 C -394.4389 82.32747 -394.34 82.380785 -394.2817 82.53051 L -391.90414 88.99362 C -391.84503 89.14417 -391.90773 89.25854 -392.0627 89.29334 Z" fill="#051837"/>
          </g>
        </g>
        <g id="Group_225">
          <g id="Graphic_226">
            <path d="M -388.36692 88.89667 C -388.5266 88.90495 -388.61775 88.82457 -388.62603 88.66545 L -388.94233 82.75232 L -389.60364 82.78879 C -389.7622 82.79707 -389.85253 82.71614 -389.8619 82.55675 L -389.8973 81.89516 C -389.9064 81.73605 -389.8238 81.64544 -389.6644 81.63798 L -387.10673 81.50069 C -386.94817 81.49158 -386.85784 81.57252 -386.84955 81.7319 L -386.8131 82.39349 C -386.8048 82.5526 -386.88657 82.64293 -387.04596 82.65067 L -387.7067 82.68686 L -387.3896 88.59916 C -387.3805 88.75772 -387.4614 88.84805 -387.6208 88.85716 Z" fill="#051837"/>
          </g>
        </g>
        <g id="Group_223">
          <g id="Graphic_224">
            <path d="M -383.2916 88.93451 C -383.4488 88.92015 -383.5264 88.82678 -383.5129 88.66849 L -382.89467 81.86975 C -382.8806 81.71063 -382.78804 81.63329 -382.62893 81.6482 L -381.8839 81.71643 C -381.7251 81.72997 -381.64746 81.82361 -381.66155 81.98217 L -382.2792 88.7812 C -382.29413 88.93921 -382.38667 89.0171 -382.5466 89.00274 Z" fill="#051837"/>
          </g>
        </g>
        <g id="Group_221">
          <g id="Graphic_222">
            <path d="M -377.51467 88.03121 C -377.6423 88.53038 -377.4597 88.8033 -377.17407 88.87678 C -376.8887 88.9497 -376.59674 88.79667 -376.4694 88.29751 L -375.54787 84.68654 C -375.4205 84.18738 -375.60394 83.9139 -375.8893 83.84097 C -376.17354 83.76722 -376.4658 83.92108 -376.59342 84.42024 Z M -375.3672 88.98396 C -375.67024 90.1715 -376.63707 90.24139 -377.4688 90.02896 C -378.0978 89.86792 -379.11464 89.29251 -378.8116 88.10497 L -377.6959 83.73379 C -377.3923 82.54542 -376.2238 82.52802 -375.594 82.68824 C -374.76225 82.90066 -373.94818 83.42441 -374.25066 84.61278 Z" fill="#051837"/>
          </g>
        </g>
        <g id="Group_219">
          <g id="Graphic_220">
            <path d="M -370.3654 92.55681 C -370.49742 92.49355 -370.55378 92.38443 -370.52947 92.24715 L -369.68114 87.64421 L -371.6057 91.68583 C -371.6753 91.82947 -371.7902 91.86953 -371.93413 91.79992 L -372.60705 91.47479 C -372.75097 91.406 -372.79074 91.29081 -372.7203 91.14717 L -369.7505 84.9962 C -369.68087 84.85255 -369.56568 84.81195 -369.42314 84.88156 L -368.33034 85.41 C -368.19803 85.47436 -368.13587 85.57105 -368.16626 85.72077 L -369.00712 90.42205 L -367.045 86.30308 C -366.9754 86.15943 -366.8613 86.11938 -366.71767 86.18816 L -366.0442 86.5144 C -365.90084 86.58401 -365.85996 86.69809 -365.92957 86.84091 L -368.90105 92.99271 C -368.96983 93.13635 -369.0842 93.17613 -369.22784 93.10652 Z" fill="#051837"/>
          </g>
        </g>
        <g id="Group_217">
          <g id="Graphic_218">
            <path d="M -365.371 114.98256 C -365.28013 115.16129 -365.18483 115.33918 -365.0876 115.52178 C -364.16248 117.256 -363.01085 119.4134 -363.873 126.79529 C -364.0868 128.62785 -364.7379 134.20397 -372.48357 140.61433 C -372.6587 140.7588 -372.8065 140.88145 -372.9217 140.9809 C -374.2987 142.16816 -380.70217 145.38107 -389.12934 145.23577 C -394.94496 145.1355 -397.96257 142.29854 -399.2432 140.61626 C -399.85176 139.8171 -400.64124 139.11905 -401.6578 138.48233 C -403.03567 137.6202 -404.3293 136.31746 -405.503 134.61059 C -407.17397 132.18219 -408.1201 129.24358 -408.23804 126.11326 C -408.28086 124.97682 -408.3212 123.87187 -408.33666 123.3263 C -408.3781 121.86639 -407.9303 119.07115 -407.00657 115.01875 C -406.02814 110.7263 -404.59033 109.52301 -401.92215 107.60013 C -401.64564 107.40096 -401.20615 107.0261 -400.59787 106.50733 C -398.4921 104.71124 -394.11045 100.97347 -391.00223 100.15775 C -390.31605 99.97764 -389.5296 99.89753 -388.68073 99.89753 C -384.84573 99.89753 -379.74253 101.52899 -376.92795 102.92343 C -374.6186 104.06705 -372.57555 105.75818 -371.3231 106.88467 L -370.0911 105.69989 C -371.3999 104.51511 -373.61586 102.66128 -376.17106 101.39584 C -379.68866 99.65334 -386.94265 97.32963 -391.4351 98.50861 C -394.92037 99.42378 -399.33326 103.18779 -401.7045 105.2104 C -402.26027 105.68442 -402.69893 106.05845 -402.9188 106.21728 C -405.7602 108.26448 -407.5582 109.76665 -408.6687 114.63975 C -409.6383 118.89132 -410.0869 121.74816 -410.04076 123.37437 C -410.02557 123.92325 -409.98496 125.03483 -409.9416 126.17762 C -409.8112 129.63142 -408.76206 132.8819 -406.9077 135.57659 C -405.6011 137.47655 -404.13923 138.94088 -402.56275 139.92732 C -401.7238 140.453 -401.08184 141.01597 -400.5998 141.64911 C -399.1319 143.57697 -395.6933 146.828 -389.1589 146.9407 C -388.96277 146.94375 -388.76857 146.9454 -388.5744 146.9454 C -380.1022 146.9454 -373.5388 143.76426 -371.80844 142.2723 C -371.6996 142.17866 -371.56066 142.06347 -371.3963 141.92756 C -369.3505 140.23422 -363.1241 135.08102 -362.17937 126.99308 C -361.25564 119.08164 -362.5462 116.66264 -363.5835 114.71958 C -363.6752 114.54694 -363.76525 114.37926 -363.8506 114.21076 C -364.47684 112.97763 -365.9152 110.75807 -367.15053 109.03048 L -368.39415 110.22686 C -367.28313 111.79534 -365.97487 113.79364 -365.371 114.98256 Z" fill="#051837"/>
          </g>
        </g>
        <g id="Group_215">
          <g id="Graphic_216">
            <path d="M -389.10033 102.52206 L -389.1335 102.52206 C -391.837 102.5309 -393.83255 104.28445 -396.59465 106.7112 L -396.9369 107.01202 C -397.954 107.90371 -398.85565 108.70286 -399.599 109.36445 C -401.2498 110.83431 -402.797 112.3293 -403.59146 114.45467 C -403.72046 114.8008 -403.8539 115.132 -403.9859 115.46073 C -404.713 117.26815 -405.4649 119.13717 -405.3243 122.85394 C -405.31656 123.05255 -405.32705 123.2299 -405.35606 123.39674 C -405.63174 124.98262 -406.5969 133.12637 -398.54516 137.72019 C -398.08964 137.97958 -397.6311 138.29835 -397.1822 138.66768 C -395.78776 139.81462 -392.22043 142.285 -387.3805 142.28473 C -386.8783 142.28473 -386.36144 142.25794 -385.8333 142.20048 C -385.7507 142.19164 -385.6681 142.17949 -385.5855 142.16733 C -385.4438 142.14634 -385.2974 142.12507 -385.2206 142.1386 C -381.98916 142.7198 -373.97276 141.58806 -369.82976 134.3849 C -367.2475 129.8955 -366.43094 125.68067 -366.00774 122.51002 C -365.6724 119.9935 -366.64695 116.8665 -368.4914 114.54279 C -369.1027 113.77237 -369.74412 112.88758 -370.32395 112.08263 L -371.49657 113.2105 C -370.9416 113.97927 -370.33914 114.8055 -369.7527 115.54388 C -368.19167 117.51124 -367.3279 120.22527 -367.6041 122.29732 C -368.0077 125.32074 -368.78392 129.3364 -371.22586 133.58216 C -375.3092 140.68118 -383.0781 140.88725 -384.9358 140.55328 C -385.27196 140.49278 -385.5764 140.53753 -385.82085 140.57427 C -385.88328 140.58339 -385.94543 140.59278 -386.0073 140.59969 C -391.01852 141.14249 -394.77673 138.56023 -396.159 137.42351 C -396.67835 136.99673 -397.21286 136.62546 -397.74683 136.32105 C -404.8641 132.26064 -404.01244 125.07185 -403.76963 123.67188 C -403.72156 123.39702 -403.70306 123.10172 -403.71466 122.79372 C -403.842 119.41976 -403.1862 117.7883 -402.49176 116.06154 C -402.35474 115.72094 -402.2166 115.37703 -402.08265 115.01847 C -401.41636 113.23592 -400.07855 111.9481 -398.5283 110.56747 C -397.78744 109.90836 -396.8883 109.1117 -395.87505 108.22276 L -395.5317 107.92139 C -392.94003 105.64409 -391.22764 104.13998 -389.12823 104.1328 C -389.11884 104.13252 -389.10945 104.13252 -389.10033 104.13252 C -386.4791 104.13252 -383.65984 105.36924 -383.6314 105.38194 L -383.5952 105.39686 C -378.40195 107.40648 -375.8437 108.60425 -374.3313 109.77798 L -373.80564 109.27247 C -373.7468 109.086 -373.60067 108.69099 -373.37858 108.47773 C -375.03407 107.19986 -377.6528 105.97005 -382.99632 103.90159 C -383.28748 103.77424 -386.21973 102.52206 -389.10033 102.52206 Z" fill="#051837"/>
          </g>
        </g>
        <g id="Group_213">
          <g id="Graphic_214">
            <path d="M -372.15927 120.93409 C -371.33995 126.808 -375.57024 131.72198 -375.61195 131.77004 L -375.69234 131.87584 C -377.7467 135.03682 -380.88836 136.63872 -385.03164 136.63872 C -385.07307 136.63872 -385.11506 136.63872 -385.15705 136.63845 C -388.39703 136.61303 -391.0547 135.5846 -391.0804 135.57438 L -391.1558 135.54841 C -391.226 135.52742 -398.19323 133.37332 -399.29155 126.98866 C -399.66613 124.81163 -399.58187 120.40372 -398.22224 117.41925 C -397.4054 115.62592 -396.42255 114.73975 -395.38197 113.80137 C -394.8574 113.32818 -394.31486 112.83896 -393.81045 112.2387 C -392.68064 110.89315 -391.534 109.80422 -390.40334 109.00148 C -389.72656 108.52082 -388.92023 108.27138 -388.0918 108.27138 C -387.73075 108.27138 -387.365 108.31917 -387.00397 108.4153 C -382.93196 109.50312 -379.6743 111.64258 -377.792 113.10664 L -376.45448 111.8202 C -378.4329 110.24565 -381.9748 107.86531 -386.5316 106.64738 C -388.2476 106.18938 -390.04506 106.50291 -391.4627 107.50897 C -392.72014 108.40177 -393.9817 109.59704 -395.2118 111.06165 C -395.63445 111.56496 -396.1071 111.99119 -396.60735 112.44229 C -397.68827 113.41713 -398.9131 114.52125 -399.88767 116.66043 C -401.4937 120.18687 -401.48073 125.0572 -401.0951 127.2986 C -399.83076 134.64622 -392.36214 137.09258 -391.7105 137.2923 C -391.33067 137.43401 -388.49814 138.44145 -385.04075 138.44145 C -381.4066 138.44145 -377.0821 137.32849 -374.19237 132.92582 C -373.67166 132.3145 -369.448 127.1265 -370.34687 120.68106 C -370.62504 118.68469 -371.8858 116.96788 -373.39294 115.03477 L -374.71915 116.31043 C -373.4272 117.97393 -372.3659 119.44932 -372.15927 120.93409 Z" fill="#051837"/>
          </g>
        </g>
        <g id="Group_211">
          <g id="Graphic_212">
            <path d="M -379.7276 114.00938 C -380.03644 113.79088 -387.32717 108.69955 -390.74836 112.54477 C -394.54883 116.81788 -398.16174 121.93158 -396.1405 127.46102 C -394.8342 131.0336 -390.2956 134.45838 -385.6833 134.45838 C -385.18025 134.45838 -384.67667 134.4175 -384.1764 134.33214 C -378.51244 133.3631 -375.84565 130.87945 -374.6631 125.47405 C -374.03188 122.58792 -374.5164 119.96505 -376.09178 117.63085 L -377.44755 118.93469 C -376.29813 120.78244 -375.97382 122.81665 -376.46856 125.07903 C -377.49755 129.78556 -379.52154 131.66093 -384.48773 132.51036 C -388.64675 133.22195 -393.23035 130.03859 -394.40464 126.82623 C -395.3513 124.2365 -395.4933 120.66034 -389.36746 113.77264 C -388.844 113.18481 -388.1023 112.9536 -387.2642 112.9536 C -385.01037 112.9536 -382.06016 114.62511 -380.79775 115.51598 C -380.70024 115.58586 -380.6113 115.65741 -380.5171 115.72785 L -379.1696 114.43202 C -379.3508 114.29142 -379.5312 114.15054 -379.72264 114.01297 Z" fill="#051837"/>
          </g>
        </g>
        <g id="Group_209">
          <g id="Graphic_210">
            <path d="M -381.561 126.61325 C -383.643 129.54219 -387.3443 127.71046 -387.50617 127.62842 C -389.03873 126.85855 -389.8133 125.80139 -389.8738 124.39672 C -389.9959 121.5827 -387.3001 118.36315 -386.1703 117.66676 C -386.00316 117.56372 -385.80786 117.51814 -385.5938 117.51814 C -384.93827 117.51814 -384.10735 117.94769 -383.36455 118.46702 L -382.02065 117.17423 C -383.3839 116.1563 -385.44516 115.06847 -387.13104 116.10768 C -388.80863 117.14136 -391.85773 120.92608 -391.70387 124.476 C -391.64144 125.91851 -391.00526 127.92013 -388.3368 129.26098 C -387.51114 129.68583 -386.21835 130.09715 -384.82695 130.09715 C -383.17063 130.09715 -381.37536 129.51319 -380.0685 127.67428 C -378.3608 125.27184 -378.74863 122.62521 -379.38977 120.80288 L -380.87786 122.23406 C -380.56157 123.55696 -380.53975 125.17654 -381.561 126.61325 Z" fill="#051837"/>
          </g>
        </g>
        <g id="Group_207">
          <g id="Graphic_208">
            <path d="M -356.5864 111.7075 C -357.1129 110.4926 -357.0027 111.56054 -357.93416 109.60146 C -358.52282 108.78187 -360.35483 105.7637 -361.6222 103.71292 L -364.79202 106.76202 C -363.53514 108.6606 -362.5222 110.64564 -361.68297 112.72267 C -361.4907 113.19807 -361.3073 113.67845 -361.1316 114.16435 C -360.8587 114.81627 -360.5924 115.4762 -360.3399 116.14303 C -358.2137 122.10423 -358.9115 128.78447 -361.9034 134.2117 C -362.17965 134.7766 -362.47053 135.33571 -362.77494 135.88653 C -363.9934 138.08841 -365.4539 140.14859 -367.0298 142.00325 C -367.54583 142.47672 -368.0798 142.92809 -368.62757 143.36537 C -369.20795 143.859 -369.80186 144.35154 -370.4046 144.81562 C -372.16203 146.07581 -374.0678 147.13766 -376.0672 147.97466 C -376.73375 148.25366 -377.41053 148.50752 -378.09477 148.73404 C -382.9317 150.34257 -388.17494 150.24202 -393.13505 148.98569 C -393.8436 148.80641 -394.54635 148.60338 -395.24164 148.37825 C -400.39954 146.7175 -404.48646 142.94687 -407.7013 138.5815 C -408.10296 138.03593 -408.49135 137.48097 -408.86676 136.91993 C -413.39787 130.90238 -413.88294 122.68129 -412.35784 115.41874 C -412.1954 114.68423 -411.99956 113.95717 -411.7675 113.2395 C -411.5355 112.52184 -411.26753 111.81385 -410.9612 111.11773 C -410.6294 110.44343 -410.26396 109.78461 -409.86563 109.14429 C -409.56674 108.66419 -409.24907 108.19404 -408.9104 107.73852 C -407.5129 106.16452 -406.00245 104.65682 -404.38177 103.27398 C -403.84173 102.81294 -403.28925 102.36571 -402.7249 101.93478 C -397.07696 97.49123 -389.79756 94.62803 -382.63804 95.95784 C -381.92314 96.06364 -381.2113 96.19844 -380.50605 96.36308 C -377.68456 97.02163 -374.9661 98.16552 -372.5098 99.7166 C -372.001 100.0304 -371.50237 100.35774 -371.0137 100.69834 C -370.42864 101.10773 -369.85655 101.53617 -369.3027 101.97566 C -368.72453 102.41681 -368.18062 102.882 -367.6671 103.36817 L -364.38457 100.21078 C -364.2981 100.06769 -364.18955 99.89891 -364.0705 99.71853 C -364.93014 98.77463 -366.03067 98.03735 -366.9337 98.15392 C -367.3171 99.55638 -367.9273 100.58205 -367.9624 98.43872 C -368.26377 97.57548 -368.29996 97.1382 -369.2875 96.53407 C -369.90683 96.08214 -369.66015 95.89071 -371.2872 95.41061 C -371.6626 95.29901 -375.2114 94.11009 -375.9288 93.33607 C -376.8625 92.45598 -379.4837 91.80738 -381.05603 91.74633 C -382.24137 91.45269 -381.8806 91.47285 -383.6369 91.82229 C -385.51643 90.39912 -385.2435 91.09468 -386.3004 91.93279 C -387.39954 92.92669 -390.7387 92.43664 -392.14806 92.31731 C -393.72703 92.22836 -396.7745 94.43632 -397.84075 93.98606 C -398.36394 94.64599 -401.61885 96.586 -403.0097 96.62081 C -404.22293 97.78321 -405.5544 96.865 -405.52235 97.86885 C -405.9207 99.43815 -408.77477 101.16076 -409.57226 102.13533 C -410.2692 102.90962 -413.7708 106.9844 -414.3089 108.2932 C -415.00253 109.51694 -416.4423 112.06605 -416.21687 112.96051 C -416.88647 114.40882 -417.2456 116.44386 -417.69944 118.09907 C -417.96297 118.55265 -418.62483 123.1567 -418.11324 124.21468 C -417.83175 124.45225 -418.0732 125.97735 -417.6862 126.32983 C -417.13867 127.3834 -417.40856 129.88638 -417.1 129.61208 C -416.9196 131.92888 -416.6956 133.80342 -415.66467 134.97992 C -415.0694 135.2255 -415.35087 136.01995 -414.61967 137.74201 C -413.8476 138.18316 -411.44294 141.8828 -410.9438 143.13554 C -410.03303 144.37308 -409.3571 144.4217 -408.92476 145.50538 C -408.65847 146.73602 -404.8008 147.67246 -404.19365 149.5354 C -402.8354 150.71024 -402.34204 151.4732 -401.3332 151.421 C -400.49815 151.85137 -397.14574 153.76155 -395.8104 153.69277 C -394.26155 154.06818 -393.76404 154.5817 -392.74694 154.51375 C -391.61823 155.02727 -388.078 155.75516 -386.47387 155.14882 C -385.567 153.37593 -381.7527 154.78142 -379.9845 154.67949 C -379.13757 154.4933 -378.33676 155.23417 -376.9053 153.86763 C -376.5031 154.07453 -375.2117 153.4715 -374.01005 153.17925 C -373.0084 152.93837 -371.01233 151.37956 -371.138 151.48923 C -369.977 150.85996 -365.08815 146.2294 -363.7625 146.05012 C -362.38793 146.19818 -362.39373 144.94351 -361.72027 144.60015 C -361.26696 143.57752 -359.45125 142.06789 -358.5231 139.54114 C -357.67615 139.35082 -357.37948 137.93731 -357.4248 137.14727 C -357.29246 137.83234 -356.0063 132.88797 -355.48035 131.95954 C -355.1066 131.05763 -354.75633 130.2267 -354.85135 129.22618 C -354.37954 128.85878 -354.0884 127.34749 -354.4649 126.41602 C -354.50053 119.55125 -355.8845 114.34722 -356.5864 111.7075 Z" fill="#051837"/>
          </g>
        </g>
        <g id="Group_205">
          <g id="Graphic_206">
            <path d="M -353.65028 87.46272 C -353.6456 87.2735 -353.8627 87.16604 -354.0091 87.28593 C -355.06047 88.14558 -357.6941 90.49193 -358.01897 91.86483 C -358.1952 92.60929 -358.11012 93.44988 -357.99576 94.06534 L -353.41603 89.66046 C -353.60276 88.88921 -353.6641 87.99503 -353.65028 87.46272 Z" fill="#d53b28"/>
          </g>
        </g>
        <g id="Group_203">
          <g id="Graphic_204">
            <path d="M -348.61337 94.81256 C -348.24404 94.4634 -347.92664 94.146 -347.7029 93.91258 C -347.5714 93.77612 -347.66146 93.55126 -347.85068 93.54104 C -348.48823 93.50651 -349.6385 93.32557 -350.45504 92.97172 L -354.953 97.29814 C -354.34225 97.47742 -353.4185 97.67382 -352.58593 97.54565 C -351.7318 97.41416 -350.44565 96.44788 -349.3603 95.49404 C -350.08323 95.26117 -350.6111 94.9667 -350.6111 94.9667 C -350.07466 94.99874 -349.2719 94.90841 -348.61337 94.81256 Z" fill="#d53b28"/>
          </g>
        </g>
        <g id="Group_201">
          <g id="Graphic_202">
            <path d="M -359.53937 135.59952 C -359.53937 135.59952 -362.11446 132.00374 -363.8481 130.96536 C -365.5818 129.92699 -366.55856 129.08723 -366.55856 129.08723 C -366.55856 129.08723 -361.70038 130.63333 -360.7385 131.69076 C -359.77694 132.7482 -358.65597 132.47859 -358.65597 132.47859 Z" fill="#051837"/>
          </g>
        </g>
        <g id="Group_199">
          <g id="Graphic_200">
            <path d="M -408.37837 139.90992 C -407.71733 139.44336 -399.7142 136.15669 -399.7142 136.15669 C -399.7142 136.15669 -404.91463 140.02815 -405.29004 141.66375 L -405.66544 143.29935 Z" fill="#051837"/>
          </g>
        </g>
        <g id="Group_197">
          <g id="Graphic_198">
            <path d="M -379.95274 94.70289 C -378.88923 95.22553 -381.2657 103.20409 -381.2657 103.20409 L -377.34147 94.81836 C -377.34147 94.81836 -381.01626 94.18025 -379.95274 94.70289 Z" fill="#051837"/>
          </g>
        </g>
        <g id="Group_195">
          <g id="Graphic_196">
            <path d="M -348.2443 88.00663 C -348.23686 88.00304 -348.22885 87.99917 -348.22885 87.99917 C -348.22885 87.99917 -348.4841 87.35333 -349.35728 87.58841 C -349.49567 87.6257 -349.63793 87.81161 -349.79097 88.129 L -360.33715 98.31525 C -361.44016 98.84728 -363.82188 101.24336 -363.93486 101.60219 L -371.71314 109.11556 C -372.56257 109.32578 -372.8112 110.02438 -372.86257 110.22576 L -384.42005 121.38905 L -385.6438 122.63267 C -385.64765 122.63626 -385.64848 122.64151 -385.65207 122.64538 C -385.78466 122.79759 -385.8678 122.99427 -385.8678 123.21222 C -385.8678 123.69066 -385.47997 124.07877 -385.00125 124.07877 C -384.82115 124.07877 -384.65375 124.0238 -384.51563 123.9296 C -384.49822 123.92132 -382.0676 121.50065 -382.0676 121.50065 L -364.48457 104.5176 L -351.99727 92.6441 C -351.9923 92.64189 -351.9887 92.63995 -351.984 92.63774 C -351.33375 92.5604 -350.09372 90.76541 -349.85837 90.70353 C -349.62854 90.64304 -349.4559 90.46155 -349.4559 90.46155 L -349.13877 89.88283 L -348.3609 89.13147 C -348.0537 88.83506 -348.02056 88.36021 -348.2443 88.00663 Z" fill="#051837"/>
          </g>
        </g>
      </g>
      <g id="Line_281">
        <line x1="-293.22" y1="368.9694" x2="-76.12775" y2="219" stroke="#424242" stroke-linecap="round" stroke-linejoin="round" stroke-dasharray="12.0,7.5" stroke-width="1.5"/>
      </g>
      <g id="Graphic_282">
        <path d="M -222.39197 300.27327 L -211.92635 293.04352 L -205.47585 288.58745 L -199.15698 284.22232 L -196.1292 282.1307 L -192.04826 279.31155 L -185.53193 274.81 L -174.50996 290.76517 L -181.02628 295.2667 L -185.10722 298.08586 L -188.135 300.1775 L -194.45387 304.5426 L -200.90437 308.9987 L -211.37 316.22843 Z" fill="white"/>
        <text fill="black">
          <path d="M -293.22 368.9694 L -47.9 199.5" id="TextPath1"/>
          <textPath xl:href="#TextPath1" pathLength="298.164008200335">
            <tspan font-family="Concourse T4" font-size="16" fill="black" x="114.88715" y="0">Adults</tspan>
          </textPath>
        </text>
      </g>
    </g>
  </g>
</svg>
