<?xml version="1.0" encoding="UTF-8" standalone="no"?>
<!DOCTYPE svg PUBLIC "-//W3C//DTD SVG 1.1//EN" "http://www.w3.org/Graphics/SVG/1.1/DTD/svg11.dtd">
<svg width="100%" height="100%" viewBox="0 0 66 85" version="1.1" xmlns="http://www.w3.org/2000/svg" xmlns:xlink="http://www.w3.org/1999/xlink" xml:space="preserve" xmlns:serif="http://www.serif.com/" style="fill-rule:evenodd;clip-rule:evenodd;stroke-linejoin:round;stroke-miterlimit:2;">
    <g transform="matrix(1,0,0,1,-17,-7.8)">
        <path d="M75.7,33.1L57.5,33.1L57.5,39.1L75.7,39.1C76.4,39.1 77,39.7 77,40.3L77,84.8C77,85.5 76.4,86 75.7,86L24.3,86C23.6,86 23,85.4 23,84.8L23,40.4C23,39.7 23.6,39.2 24.3,39.2L40.5,39.2L40.5,33.2L24.3,33.2C20.3,33.2 17,36.4 17,40.4L17,84.9C17,88.9 20.3,92.1 24.3,92.1L75.7,92.1C79.7,92.1 83,88.9 83,84.9L83,40.4C83,36.4 79.7,33.1 75.7,33.1Z" style="fill-rule:nonzero;"/>
        <path d="M47,17.4L47,68.4L53,68.4L53,17.4L62.1,24.2L65.7,19.4L50,7.8L34.3,19.4L37.9,24.2L47,17.4Z" style="fill-rule:nonzero;"/>
    </g>
</svg>
