<?xml version="1.0" encoding="UTF-8" standalone="no"?>
<!DOCTYPE svg PUBLIC "-//W3C//DTD SVG 1.1//EN" "http://www.w3.org/Graphics/SVG/1.1/DTD/svg11.dtd">
<svg width="100%" height="100%" viewBox="0 0 1799 426" version="1.1" xmlns="http://www.w3.org/2000/svg" xmlns:xlink="http://www.w3.org/1999/xlink" xml:space="preserve" xmlns:serif="http://www.serif.com/" style="fill-rule:evenodd;clip-rule:evenodd;stroke-linejoin:round;stroke-miterlimit:2;">
    <g id="Arrow" transform="matrix(1,0,0,1,0,-80.5586)">
        <path id="Shaft" d="M1798.43,387.32C1796.78,393.741 1791.69,398.788 1785.24,400.375L1785.24,400.898L42.544,400.898L42.544,364.742L1785.24,364.742L1785.24,365.265C1791.69,366.852 1796.78,371.899 1798.43,378.32L1758.25,378.32L1758.25,387.32L1798.43,387.32ZM0,382.82L42.544,364.742L42.544,400.898L0,382.82Z" style="fill:white;"/>
        <g id="Top-vane" serif:id="Top vane" transform="matrix(-0.377671,0,0,0.536517,1813.02,188.585)">
            <path d="M1028.52,321.001C880.664,321.393 732.81,321.907 584.955,321.907C460.188,321.907 335.419,321.75 210.654,321.001C209.158,320.992 210.188,317.693 211.14,316.539C216.37,310.205 216.756,309.901 223.876,307.009C234.728,302.602 235.502,304.622 248.19,296.439C253.791,292.827 258.527,288.022 263.554,283.649C280.91,268.55 281.593,265.096 301.711,254.307C334.057,236.962 367.946,229.174 404.346,225.804C447.876,221.773 471.276,222.245 514.674,223.348C623.328,226.111 732.106,238.301 838.286,262.04C877.64,270.839 920.47,283.093 959.409,294.253C982.273,300.807 1009.28,305.644 1028.52,321.001" style="fill:white;"/>
        </g>
        <g id="Bottom-vane" serif:id="Bottom vane" transform="matrix(-0.377671,0,0,-0.536517,1813.02,577.289)">
            <path d="M1028.52,321.001C880.664,321.393 732.81,321.907 584.955,321.907C460.188,321.907 335.419,321.75 210.654,321.001C209.158,320.992 210.188,317.693 211.14,316.539C216.37,310.205 216.756,309.901 223.876,307.009C234.728,302.602 235.502,304.622 248.19,296.439C253.791,292.827 258.527,288.022 263.554,283.649C280.91,268.55 281.593,265.096 301.711,254.307C334.057,236.962 367.946,229.174 404.346,225.804C447.876,221.773 471.276,222.245 514.674,223.348C623.328,226.111 732.106,238.301 838.286,262.04C877.64,270.839 920.47,283.093 959.409,294.253C982.273,300.807 1009.28,305.644 1028.52,321.001" style="fill:white;"/>
        </g>
    </g>
    <g transform="matrix(1,0,0,1,-176.075,398.776)">
        <g transform="matrix(87.5,0,0,87.5,472.612,25.518)">
            <path d="M0.045,-0L0.173,-0.754L0.367,-0.754L0.518,-0.352L0.668,-0.754L0.862,-0.754L0.99,-0L0.795,-0L0.73,-0.434L0.552,-0L0.474,-0L0.305,-0.434L0.24,-0L0.045,-0Z" style="fill:white;fill-rule:nonzero;"/>
        </g>
        <g transform="matrix(87.5,0,0,87.5,560.287,25.518)">
            <path d="M0.243,-0.513L0.243,-0L0.062,-0L0.062,-0.513L0.243,-0.513ZM0.05,-0.71C0.05,-0.724 0.053,-0.737 0.058,-0.75C0.063,-0.762 0.071,-0.773 0.08,-0.782C0.089,-0.791 0.1,-0.799 0.113,-0.804C0.125,-0.809 0.138,-0.812 0.152,-0.812C0.166,-0.812 0.179,-0.809 0.192,-0.804C0.204,-0.799 0.215,-0.791 0.224,-0.782C0.233,-0.773 0.241,-0.762 0.246,-0.75C0.251,-0.737 0.254,-0.724 0.254,-0.71C0.254,-0.696 0.251,-0.683 0.246,-0.671C0.241,-0.658 0.233,-0.647 0.224,-0.638C0.215,-0.629 0.204,-0.621 0.192,-0.616C0.179,-0.611 0.166,-0.608 0.152,-0.608C0.138,-0.608 0.125,-0.611 0.113,-0.616C0.1,-0.621 0.089,-0.629 0.08,-0.638C0.071,-0.647 0.063,-0.658 0.058,-0.671C0.053,-0.683 0.05,-0.696 0.05,-0.71Z" style="fill:white;fill-rule:nonzero;"/>
        </g>
        <g transform="matrix(87.5,0,0,87.5,584.087,25.518)">
            <path d="M0.062,-0.513L0.243,-0.513L0.243,-0.448C0.268,-0.478 0.293,-0.498 0.318,-0.509C0.343,-0.519 0.373,-0.524 0.407,-0.524C0.443,-0.524 0.474,-0.518 0.5,-0.507C0.525,-0.495 0.547,-0.478 0.565,-0.457C0.58,-0.44 0.59,-0.42 0.595,-0.399C0.6,-0.378 0.603,-0.353 0.603,-0.326L0.603,-0L0.422,-0L0.422,-0.259C0.422,-0.284 0.42,-0.305 0.417,-0.321C0.413,-0.336 0.406,-0.349 0.397,-0.358C0.389,-0.366 0.38,-0.372 0.37,-0.375C0.36,-0.378 0.349,-0.38 0.338,-0.38C0.307,-0.38 0.284,-0.371 0.268,-0.353C0.251,-0.334 0.243,-0.308 0.243,-0.274L0.243,-0L0.062,-0L0.062,-0.513Z" style="fill:white;fill-rule:nonzero;"/>
        </g>
        <g transform="matrix(87.5,0,0,87.5,639.3,25.518)">
            <path d="M0.062,-0.513L0.243,-0.513L0.243,-0.448C0.268,-0.478 0.293,-0.498 0.318,-0.509C0.343,-0.519 0.373,-0.524 0.407,-0.524C0.443,-0.524 0.474,-0.518 0.5,-0.507C0.525,-0.495 0.547,-0.478 0.565,-0.457C0.58,-0.44 0.59,-0.42 0.595,-0.399C0.6,-0.378 0.603,-0.353 0.603,-0.326L0.603,-0L0.422,-0L0.422,-0.259C0.422,-0.284 0.42,-0.305 0.417,-0.321C0.413,-0.336 0.406,-0.349 0.397,-0.358C0.389,-0.366 0.38,-0.372 0.37,-0.375C0.36,-0.378 0.349,-0.38 0.338,-0.38C0.307,-0.38 0.284,-0.371 0.268,-0.353C0.251,-0.334 0.243,-0.308 0.243,-0.274L0.243,-0L0.062,-0L0.062,-0.513Z" style="fill:white;fill-rule:nonzero;"/>
        </g>
        <g transform="matrix(87.5,0,0,87.5,694.512,25.518)">
            <path d="M0.437,-0.331C0.431,-0.356 0.419,-0.377 0.4,-0.392C0.381,-0.407 0.359,-0.415 0.332,-0.415C0.304,-0.415 0.281,-0.408 0.264,-0.393C0.246,-0.378 0.235,-0.358 0.23,-0.331L0.437,-0.331ZM0.225,-0.226C0.225,-0.148 0.262,-0.109 0.335,-0.109C0.374,-0.109 0.404,-0.125 0.424,-0.157L0.599,-0.157C0.564,-0.04 0.475,0.019 0.334,0.019C0.291,0.019 0.251,0.012 0.215,-0.001C0.179,-0.014 0.148,-0.032 0.123,-0.056C0.097,-0.08 0.077,-0.109 0.063,-0.142C0.049,-0.175 0.042,-0.213 0.042,-0.254C0.042,-0.297 0.049,-0.335 0.062,-0.37C0.075,-0.404 0.094,-0.433 0.119,-0.457C0.144,-0.481 0.173,-0.5 0.209,-0.513C0.244,-0.526 0.283,-0.532 0.327,-0.532C0.37,-0.532 0.409,-0.526 0.444,-0.513C0.479,-0.5 0.508,-0.481 0.532,-0.456C0.556,-0.431 0.574,-0.401 0.587,-0.366C0.6,-0.33 0.606,-0.29 0.606,-0.245L0.606,-0.226L0.225,-0.226Z" style="fill:white;fill-rule:nonzero;"/>
        </g>
        <g transform="matrix(87.5,0,0,87.5,748.237,25.518)">
            <path d="M0.402,-0.381C0.369,-0.398 0.336,-0.407 0.304,-0.407C0.287,-0.407 0.274,-0.404 0.264,-0.397C0.253,-0.39 0.248,-0.381 0.248,-0.37C0.248,-0.364 0.249,-0.359 0.251,-0.356C0.252,-0.352 0.256,-0.348 0.262,-0.345C0.267,-0.342 0.276,-0.339 0.287,-0.336C0.298,-0.333 0.312,-0.33 0.33,-0.326C0.38,-0.316 0.417,-0.298 0.442,-0.273C0.467,-0.247 0.479,-0.214 0.479,-0.174C0.479,-0.144 0.473,-0.117 0.461,-0.093C0.449,-0.069 0.432,-0.049 0.411,-0.033C0.39,-0.016 0.364,-0.004 0.334,0.006C0.304,0.014 0.271,0.019 0.235,0.019C0.166,0.019 0.097,-0.001 0.03,-0.04L0.096,-0.168C0.147,-0.133 0.195,-0.116 0.24,-0.116C0.257,-0.116 0.27,-0.12 0.281,-0.127C0.292,-0.134 0.297,-0.144 0.297,-0.155C0.297,-0.162 0.296,-0.167 0.295,-0.172C0.293,-0.176 0.289,-0.18 0.284,-0.184C0.279,-0.187 0.271,-0.191 0.261,-0.194C0.25,-0.197 0.237,-0.2 0.22,-0.203C0.164,-0.214 0.125,-0.231 0.103,-0.254C0.08,-0.276 0.069,-0.307 0.069,-0.346C0.069,-0.375 0.074,-0.401 0.085,-0.424C0.096,-0.447 0.111,-0.466 0.131,-0.482C0.151,-0.498 0.175,-0.51 0.204,-0.519C0.232,-0.528 0.263,-0.532 0.298,-0.532C0.355,-0.532 0.41,-0.521 0.463,-0.499L0.402,-0.381Z" style="fill:white;fill-rule:nonzero;"/>
        </g>
        <g transform="matrix(87.5,0,0,87.5,789.887,25.518)">
            <path d="M0.233,-0.259C0.233,-0.242 0.236,-0.226 0.243,-0.212C0.249,-0.197 0.257,-0.185 0.268,-0.174C0.278,-0.163 0.29,-0.155 0.305,-0.149C0.319,-0.143 0.334,-0.14 0.35,-0.14C0.366,-0.14 0.381,-0.143 0.396,-0.149C0.41,-0.155 0.422,-0.163 0.433,-0.174C0.443,-0.185 0.451,-0.197 0.458,-0.212C0.464,-0.226 0.467,-0.241 0.467,-0.258C0.467,-0.274 0.464,-0.289 0.458,-0.304C0.451,-0.318 0.443,-0.33 0.433,-0.341C0.422,-0.352 0.41,-0.36 0.396,-0.366C0.381,-0.372 0.366,-0.375 0.35,-0.375C0.334,-0.375 0.319,-0.372 0.305,-0.366C0.29,-0.36 0.278,-0.352 0.268,-0.341C0.257,-0.33 0.249,-0.318 0.243,-0.304C0.236,-0.29 0.233,-0.275 0.233,-0.259ZM0.042,-0.261C0.042,-0.299 0.05,-0.335 0.065,-0.368C0.08,-0.401 0.102,-0.429 0.129,-0.454C0.156,-0.478 0.189,-0.497 0.227,-0.511C0.264,-0.525 0.305,-0.532 0.35,-0.532C0.394,-0.532 0.435,-0.525 0.473,-0.512C0.51,-0.498 0.543,-0.479 0.571,-0.455C0.598,-0.43 0.62,-0.401 0.635,-0.368C0.65,-0.334 0.658,-0.297 0.658,-0.256C0.658,-0.215 0.65,-0.178 0.635,-0.145C0.619,-0.111 0.597,-0.082 0.57,-0.058C0.543,-0.033 0.51,-0.014 0.472,-0.001C0.433,0.012 0.392,0.019 0.347,0.019C0.303,0.019 0.262,0.012 0.225,-0.001C0.188,-0.014 0.156,-0.033 0.129,-0.058C0.101,-0.083 0.08,-0.112 0.065,-0.147C0.05,-0.181 0.042,-0.219 0.042,-0.261Z" style="fill:white;fill-rule:nonzero;"/>
        </g>
        <g transform="matrix(87.5,0,0,87.5,848.512,25.518)">
            <path d="M0.264,-0.362L0.264,-0L0.083,-0L0.083,-0.362L0.023,-0.362L0.023,-0.513L0.083,-0.513L0.083,-0.667L0.264,-0.667L0.264,-0.513L0.367,-0.513L0.367,-0.362L0.264,-0.362Z" style="fill:white;fill-rule:nonzero;"/>
        </g>
        <g transform="matrix(87.5,0,0,87.5,879.137,25.518)">
            <path d="M0.23,-0.258C0.23,-0.241 0.233,-0.226 0.239,-0.212C0.245,-0.197 0.253,-0.185 0.264,-0.174C0.274,-0.163 0.286,-0.155 0.301,-0.149C0.315,-0.143 0.33,-0.14 0.347,-0.14C0.363,-0.14 0.378,-0.143 0.393,-0.149C0.407,-0.155 0.419,-0.163 0.43,-0.174C0.44,-0.185 0.448,-0.197 0.455,-0.211C0.461,-0.225 0.464,-0.24 0.464,-0.256C0.464,-0.272 0.461,-0.287 0.455,-0.302C0.448,-0.316 0.44,-0.328 0.43,-0.339C0.419,-0.35 0.407,-0.358 0.393,-0.364C0.378,-0.37 0.363,-0.373 0.347,-0.373C0.33,-0.373 0.315,-0.37 0.301,-0.364C0.286,-0.358 0.274,-0.35 0.264,-0.339C0.253,-0.328 0.245,-0.316 0.239,-0.303C0.233,-0.289 0.23,-0.274 0.23,-0.258ZM0.458,-0.513L0.64,-0.513L0.64,-0L0.458,-0L0.458,-0.057C0.419,-0.008 0.367,0.016 0.301,0.016C0.264,0.016 0.229,0.009 0.198,-0.005C0.167,-0.018 0.139,-0.037 0.116,-0.062C0.093,-0.087 0.075,-0.116 0.062,-0.149C0.049,-0.182 0.042,-0.219 0.042,-0.258C0.042,-0.295 0.048,-0.329 0.061,-0.363C0.074,-0.396 0.091,-0.424 0.114,-0.449C0.137,-0.474 0.164,-0.493 0.195,-0.508C0.226,-0.522 0.261,-0.529 0.299,-0.529C0.363,-0.529 0.416,-0.507 0.458,-0.462L0.458,-0.513Z" style="fill:white;fill-rule:nonzero;"/>
        </g>
        <g transform="matrix(87.5,0,0,87.5,964.45,25.518)">
            <path d="M0.489,-0.28L0.401,-0.531L0.313,-0.28L0.489,-0.28ZM0.541,-0.131L0.261,-0.131L0.216,-0L0.007,-0L0.294,-0.754L0.508,-0.754L0.795,-0L0.586,-0L0.541,-0.131Z" style="fill:white;fill-rule:nonzero;"/>
        </g>
        <g transform="matrix(87.5,0,0,87.5,1032.7,25.518)">
            <path d="M0.062,-0.513L0.243,-0.513L0.243,-0.429C0.262,-0.46 0.286,-0.483 0.314,-0.5C0.342,-0.516 0.375,-0.524 0.412,-0.524L0.428,-0.524C0.433,-0.524 0.44,-0.523 0.447,-0.522L0.447,-0.349C0.423,-0.361 0.397,-0.367 0.369,-0.367C0.327,-0.367 0.296,-0.355 0.275,-0.33C0.254,-0.305 0.243,-0.268 0.243,-0.22L0.243,-0L0.062,-0L0.062,-0.513Z" style="fill:white;fill-rule:nonzero;"/>
        </g>
        <g transform="matrix(87.5,0,0,87.5,1071.02,25.518)">
            <path d="M0.449,-0.347C0.418,-0.368 0.386,-0.379 0.354,-0.379C0.337,-0.379 0.321,-0.376 0.306,-0.37C0.291,-0.364 0.277,-0.356 0.266,-0.345C0.255,-0.334 0.246,-0.321 0.24,-0.306C0.233,-0.291 0.23,-0.274 0.23,-0.255C0.23,-0.237 0.233,-0.221 0.24,-0.206C0.246,-0.191 0.255,-0.178 0.266,-0.167C0.277,-0.156 0.29,-0.147 0.305,-0.141C0.32,-0.135 0.337,-0.132 0.354,-0.132C0.388,-0.132 0.42,-0.144 0.449,-0.167L0.449,-0.013C0.404,0.006 0.362,0.016 0.322,0.016C0.285,0.016 0.249,0.01 0.216,-0.003C0.182,-0.016 0.152,-0.034 0.127,-0.058C0.101,-0.081 0.08,-0.11 0.065,-0.143C0.05,-0.175 0.042,-0.212 0.042,-0.253C0.042,-0.294 0.049,-0.331 0.064,-0.365C0.079,-0.398 0.099,-0.427 0.124,-0.452C0.149,-0.476 0.18,-0.495 0.215,-0.509C0.25,-0.522 0.287,-0.529 0.327,-0.529C0.371,-0.529 0.412,-0.52 0.449,-0.501L0.449,-0.347Z" style="fill:white;fill-rule:nonzero;"/>
        </g>
        <g transform="matrix(87.5,0,0,87.5,1113.2,25.518)">
            <path d="M0.062,-0.83L0.243,-0.83L0.243,-0.448C0.268,-0.478 0.293,-0.498 0.318,-0.509C0.343,-0.519 0.373,-0.524 0.407,-0.524C0.472,-0.524 0.521,-0.506 0.554,-0.471C0.587,-0.435 0.603,-0.387 0.603,-0.326L0.603,-0L0.422,-0L0.422,-0.259C0.422,-0.285 0.42,-0.306 0.416,-0.322C0.412,-0.338 0.405,-0.35 0.396,-0.359C0.38,-0.373 0.361,-0.38 0.338,-0.38C0.307,-0.38 0.284,-0.371 0.268,-0.353C0.251,-0.334 0.243,-0.308 0.243,-0.274L0.243,-0L0.062,-0L0.062,-0.83Z" style="fill:white;fill-rule:nonzero;"/>
        </g>
        <g transform="matrix(87.5,0,0,87.5,1168.41,25.518)">
            <path d="M0.437,-0.331C0.431,-0.356 0.419,-0.377 0.4,-0.392C0.381,-0.407 0.359,-0.415 0.332,-0.415C0.304,-0.415 0.281,-0.408 0.264,-0.393C0.246,-0.378 0.235,-0.358 0.23,-0.331L0.437,-0.331ZM0.225,-0.226C0.225,-0.148 0.262,-0.109 0.335,-0.109C0.374,-0.109 0.404,-0.125 0.424,-0.157L0.599,-0.157C0.564,-0.04 0.475,0.019 0.334,0.019C0.291,0.019 0.251,0.012 0.215,-0.001C0.179,-0.014 0.148,-0.032 0.123,-0.056C0.097,-0.08 0.077,-0.109 0.063,-0.142C0.049,-0.175 0.042,-0.213 0.042,-0.254C0.042,-0.297 0.049,-0.335 0.062,-0.37C0.075,-0.404 0.094,-0.433 0.119,-0.457C0.144,-0.481 0.173,-0.5 0.209,-0.513C0.244,-0.526 0.283,-0.532 0.327,-0.532C0.37,-0.532 0.409,-0.526 0.444,-0.513C0.479,-0.5 0.508,-0.481 0.532,-0.456C0.556,-0.431 0.574,-0.401 0.587,-0.366C0.6,-0.33 0.606,-0.29 0.606,-0.245L0.606,-0.226L0.225,-0.226Z" style="fill:white;fill-rule:nonzero;"/>
        </g>
        <g transform="matrix(87.5,0,0,87.5,1222.14,25.518)">
            <path d="M0.062,-0.513L0.243,-0.513L0.243,-0.429C0.262,-0.46 0.286,-0.483 0.314,-0.5C0.342,-0.516 0.375,-0.524 0.412,-0.524L0.428,-0.524C0.433,-0.524 0.44,-0.523 0.447,-0.522L0.447,-0.349C0.423,-0.361 0.397,-0.367 0.369,-0.367C0.327,-0.367 0.296,-0.355 0.275,-0.33C0.254,-0.305 0.243,-0.268 0.243,-0.22L0.243,-0L0.062,-0L0.062,-0.513Z" style="fill:white;fill-rule:nonzero;"/>
        </g>
        <g transform="matrix(87.5,0,0,87.5,1259.76,25.518)">
            <path d="M0.402,-0.381C0.369,-0.398 0.336,-0.407 0.304,-0.407C0.287,-0.407 0.274,-0.404 0.264,-0.397C0.253,-0.39 0.248,-0.381 0.248,-0.37C0.248,-0.364 0.249,-0.359 0.251,-0.356C0.252,-0.352 0.256,-0.348 0.262,-0.345C0.267,-0.342 0.276,-0.339 0.287,-0.336C0.298,-0.333 0.312,-0.33 0.33,-0.326C0.38,-0.316 0.417,-0.298 0.442,-0.273C0.467,-0.247 0.479,-0.214 0.479,-0.174C0.479,-0.144 0.473,-0.117 0.461,-0.093C0.449,-0.069 0.432,-0.049 0.411,-0.033C0.39,-0.016 0.364,-0.004 0.334,0.006C0.304,0.014 0.271,0.019 0.235,0.019C0.166,0.019 0.097,-0.001 0.03,-0.04L0.096,-0.168C0.147,-0.133 0.195,-0.116 0.24,-0.116C0.257,-0.116 0.27,-0.12 0.281,-0.127C0.292,-0.134 0.297,-0.144 0.297,-0.155C0.297,-0.162 0.296,-0.167 0.295,-0.172C0.293,-0.176 0.289,-0.18 0.284,-0.184C0.279,-0.187 0.271,-0.191 0.261,-0.194C0.25,-0.197 0.237,-0.2 0.22,-0.203C0.164,-0.214 0.125,-0.231 0.103,-0.254C0.08,-0.276 0.069,-0.307 0.069,-0.346C0.069,-0.375 0.074,-0.401 0.085,-0.424C0.096,-0.447 0.111,-0.466 0.131,-0.482C0.151,-0.498 0.175,-0.51 0.204,-0.519C0.232,-0.528 0.263,-0.532 0.298,-0.532C0.355,-0.532 0.41,-0.521 0.463,-0.499L0.402,-0.381Z" style="fill:white;fill-rule:nonzero;"/>
        </g>
        <g transform="matrix(87.5,0,0,87.5,1328.27,25.518)">
            <path d="M0.489,-0.28L0.401,-0.531L0.313,-0.28L0.489,-0.28ZM0.541,-0.131L0.261,-0.131L0.216,-0L0.007,-0L0.294,-0.754L0.508,-0.754L0.795,-0L0.586,-0L0.541,-0.131Z" style="fill:white;fill-rule:nonzero;"/>
        </g>
        <g transform="matrix(87.5,0,0,87.5,1396.52,25.518)">
            <rect x="0.062" y="-0.83" width="0.181" height="0.83" style="fill:white;"/>
        </g>
        <g transform="matrix(87.5,0,0,87.5,1420.32,25.518)">
            <rect x="0.062" y="-0.83" width="0.181" height="0.83" style="fill:white;"/>
        </g>
        <g transform="matrix(87.5,0,0,87.5,1444.12,25.518)">
            <path d="M0.243,-0.513L0.243,-0L0.062,-0L0.062,-0.513L0.243,-0.513ZM0.05,-0.71C0.05,-0.724 0.053,-0.737 0.058,-0.75C0.063,-0.762 0.071,-0.773 0.08,-0.782C0.089,-0.791 0.1,-0.799 0.113,-0.804C0.125,-0.809 0.138,-0.812 0.152,-0.812C0.166,-0.812 0.179,-0.809 0.192,-0.804C0.204,-0.799 0.215,-0.791 0.224,-0.782C0.233,-0.773 0.241,-0.762 0.246,-0.75C0.251,-0.737 0.254,-0.724 0.254,-0.71C0.254,-0.696 0.251,-0.683 0.246,-0.671C0.241,-0.658 0.233,-0.647 0.224,-0.638C0.215,-0.629 0.204,-0.621 0.192,-0.616C0.179,-0.611 0.166,-0.608 0.152,-0.608C0.138,-0.608 0.125,-0.611 0.113,-0.616C0.1,-0.621 0.089,-0.629 0.08,-0.638C0.071,-0.647 0.063,-0.658 0.058,-0.671C0.053,-0.683 0.05,-0.696 0.05,-0.71Z" style="fill:white;fill-rule:nonzero;"/>
        </g>
        <g transform="matrix(87.5,0,0,87.5,1467.92,25.518)">
            <path d="M0.23,-0.258C0.23,-0.241 0.233,-0.226 0.239,-0.212C0.245,-0.197 0.253,-0.185 0.264,-0.174C0.274,-0.163 0.286,-0.155 0.301,-0.149C0.315,-0.143 0.33,-0.14 0.347,-0.14C0.363,-0.14 0.378,-0.143 0.393,-0.149C0.407,-0.155 0.419,-0.163 0.43,-0.174C0.44,-0.185 0.448,-0.197 0.455,-0.211C0.461,-0.225 0.464,-0.24 0.464,-0.256C0.464,-0.272 0.461,-0.287 0.455,-0.302C0.448,-0.316 0.44,-0.328 0.43,-0.339C0.419,-0.35 0.407,-0.358 0.393,-0.364C0.378,-0.37 0.363,-0.373 0.347,-0.373C0.33,-0.373 0.315,-0.37 0.301,-0.364C0.286,-0.358 0.274,-0.35 0.264,-0.339C0.253,-0.328 0.245,-0.316 0.239,-0.303C0.233,-0.289 0.23,-0.274 0.23,-0.258ZM0.458,-0.513L0.64,-0.513L0.64,-0L0.458,-0L0.458,-0.057C0.419,-0.008 0.367,0.016 0.301,0.016C0.264,0.016 0.229,0.009 0.198,-0.005C0.167,-0.018 0.139,-0.037 0.116,-0.062C0.093,-0.087 0.075,-0.116 0.062,-0.149C0.049,-0.182 0.042,-0.219 0.042,-0.258C0.042,-0.295 0.048,-0.329 0.061,-0.363C0.074,-0.396 0.091,-0.424 0.114,-0.449C0.137,-0.474 0.164,-0.493 0.195,-0.508C0.226,-0.522 0.261,-0.529 0.299,-0.529C0.363,-0.529 0.416,-0.507 0.458,-0.462L0.458,-0.513Z" style="fill:white;fill-rule:nonzero;"/>
        </g>
        <g transform="matrix(87.5,0,0,87.5,1526.37,25.518)">
            <path d="M0.062,-0.513L0.243,-0.513L0.243,-0.448C0.268,-0.478 0.293,-0.498 0.318,-0.509C0.343,-0.519 0.373,-0.524 0.407,-0.524C0.443,-0.524 0.474,-0.518 0.5,-0.507C0.525,-0.495 0.547,-0.478 0.565,-0.457C0.58,-0.44 0.59,-0.42 0.595,-0.399C0.6,-0.378 0.603,-0.353 0.603,-0.326L0.603,-0L0.422,-0L0.422,-0.259C0.422,-0.284 0.42,-0.305 0.417,-0.321C0.413,-0.336 0.406,-0.349 0.397,-0.358C0.389,-0.366 0.38,-0.372 0.37,-0.375C0.36,-0.378 0.349,-0.38 0.338,-0.38C0.307,-0.38 0.284,-0.371 0.268,-0.353C0.251,-0.334 0.243,-0.308 0.243,-0.274L0.243,-0L0.062,-0L0.062,-0.513Z" style="fill:white;fill-rule:nonzero;"/>
        </g>
        <g transform="matrix(87.5,0,0,87.5,1581.59,25.518)">
            <path d="M0.449,-0.347C0.418,-0.368 0.386,-0.379 0.354,-0.379C0.337,-0.379 0.321,-0.376 0.306,-0.37C0.291,-0.364 0.277,-0.356 0.266,-0.345C0.255,-0.334 0.246,-0.321 0.24,-0.306C0.233,-0.291 0.23,-0.274 0.23,-0.255C0.23,-0.237 0.233,-0.221 0.24,-0.206C0.246,-0.191 0.255,-0.178 0.266,-0.167C0.277,-0.156 0.29,-0.147 0.305,-0.141C0.32,-0.135 0.337,-0.132 0.354,-0.132C0.388,-0.132 0.42,-0.144 0.449,-0.167L0.449,-0.013C0.404,0.006 0.362,0.016 0.322,0.016C0.285,0.016 0.249,0.01 0.216,-0.003C0.182,-0.016 0.152,-0.034 0.127,-0.058C0.101,-0.081 0.08,-0.11 0.065,-0.143C0.05,-0.175 0.042,-0.212 0.042,-0.253C0.042,-0.294 0.049,-0.331 0.064,-0.365C0.079,-0.398 0.099,-0.427 0.124,-0.452C0.149,-0.476 0.18,-0.495 0.215,-0.509C0.25,-0.522 0.287,-0.529 0.327,-0.529C0.371,-0.529 0.412,-0.52 0.449,-0.501L0.449,-0.347Z" style="fill:white;fill-rule:nonzero;"/>
        </g>
        <g transform="matrix(87.5,0,0,87.5,1621.57,25.518)">
            <path d="M0.437,-0.331C0.431,-0.356 0.419,-0.377 0.4,-0.392C0.381,-0.407 0.359,-0.415 0.332,-0.415C0.304,-0.415 0.281,-0.408 0.264,-0.393C0.246,-0.378 0.235,-0.358 0.23,-0.331L0.437,-0.331ZM0.225,-0.226C0.225,-0.148 0.262,-0.109 0.335,-0.109C0.374,-0.109 0.404,-0.125 0.424,-0.157L0.599,-0.157C0.564,-0.04 0.475,0.019 0.334,0.019C0.291,0.019 0.251,0.012 0.215,-0.001C0.179,-0.014 0.148,-0.032 0.123,-0.056C0.097,-0.08 0.077,-0.109 0.063,-0.142C0.049,-0.175 0.042,-0.213 0.042,-0.254C0.042,-0.297 0.049,-0.335 0.062,-0.37C0.075,-0.404 0.094,-0.433 0.119,-0.457C0.144,-0.481 0.173,-0.5 0.209,-0.513C0.244,-0.526 0.283,-0.532 0.327,-0.532C0.37,-0.532 0.409,-0.526 0.444,-0.513C0.479,-0.5 0.508,-0.481 0.532,-0.456C0.556,-0.431 0.574,-0.401 0.587,-0.366C0.6,-0.33 0.606,-0.29 0.606,-0.245L0.606,-0.226L0.225,-0.226Z" style="fill:white;fill-rule:nonzero;"/>
        </g>
    </g>
    <g transform="matrix(1,0,0,1,-5.86865,246.118)">
        <g transform="matrix(358.333,0,0,358.333,423.052,24.0655)">
            <path d="M0.045,-0L0.173,-0.754L0.367,-0.754L0.518,-0.352L0.668,-0.754L0.862,-0.754L0.99,-0L0.795,-0L0.73,-0.434L0.552,-0L0.474,-0L0.305,-0.434L0.24,-0L0.045,-0Z" style="fill:white;fill-rule:nonzero;"/>
        </g>
        <g transform="matrix(358.333,0,0,358.333,790.344,24.0655)">
            <path d="M0.489,-0.28L0.401,-0.531L0.313,-0.28L0.489,-0.28ZM0.541,-0.131L0.261,-0.131L0.216,-0L0.007,-0L0.294,-0.754L0.508,-0.754L0.795,-0L0.586,-0L0.541,-0.131Z" style="fill:white;fill-rule:nonzero;"/>
        </g>
        <g transform="matrix(358.333,0,0,358.333,1086.69,24.0655)">
            <path d="M0.489,-0.28L0.401,-0.531L0.313,-0.28L0.489,-0.28ZM0.541,-0.131L0.261,-0.131L0.216,-0L0.007,-0L0.294,-0.754L0.508,-0.754L0.795,-0L0.586,-0L0.541,-0.131Z" style="fill:white;fill-rule:nonzero;"/>
        </g>
    </g>
</svg>
