<?xml version="1.0" encoding="UTF-8" standalone="no"?>
<!DOCTYPE svg PUBLIC "-//W3C//DTD SVG 1.1//EN" "http://www.w3.org/Graphics/SVG/1.1/DTD/svg11.dtd">
<svg width="100%" height="100%" viewBox="0 0 1278 1278" version="1.1" xmlns="http://www.w3.org/2000/svg" xmlns:xlink="http://www.w3.org/1999/xlink" xml:space="preserve" xmlns:serif="http://www.serif.com/" style="fill-rule:evenodd;clip-rule:evenodd;stroke-linejoin:round;stroke-miterlimit:2;">
    <g transform="matrix(1,0,0,1,0.000629366,-1.57708)">
        <g transform="matrix(4.16667,0,0,4.16667,0,0)">
            <path d="M272.172,109.405C271.979,108.91 272.095,108.483 272.506,108.18L286.071,98.056L271.026,104.042C270.488,104.253 270.087,104.078 269.875,103.54L268.89,101.019C268.678,100.48 268.853,100.079 269.392,99.868L292.401,90.861C292.942,90.653 293.341,90.824 293.553,91.363L295.151,95.453C295.351,95.95 295.27,96.362 294.823,96.677L281.028,107.084L296.367,100.981C296.905,100.77 297.304,100.945 297.516,101.483L298.505,104.004C298.71,104.543 298.535,104.944 297.999,105.153L274.986,114.163C274.451,114.374 274.05,114.196 273.839,113.66L272.172,109.405Z" style="fill:rgb(5,24,55);fill-rule:nonzero;"/>
        </g>
        <g transform="matrix(4.16667,0,0,4.16667,0,0)">
            <path d="M300.025,127.167L287.397,127.92L287.931,130.885L300.025,127.167ZM278.723,134.581C278.622,134.02 278.827,133.662 279.388,133.518L283.789,132.18L283.081,128.248L278.479,128.496C277.902,128.553 277.585,128.295 277.481,127.728L277,125.064C276.896,124.497 277.189,124.126 277.774,124.113L302.69,122.982C303.27,122.922 303.588,123.183 303.688,123.747L304.651,129.076C304.755,129.645 304.55,130 304,130.188L280.264,137.868C279.714,138.06 279.308,137.818 279.207,137.251L278.723,134.581Z" style="fill:rgb(5,24,55);fill-rule:nonzero;"/>
        </g>
        <g transform="matrix(4.16667,0,0,4.16667,0,0)">
            <path d="M280.09,150.579C280.08,150.002 280.388,149.69 280.962,149.68L302.405,149.364L302.364,146.965C302.357,146.39 302.666,146.072 303.24,146.065L305.643,146.03C306.217,146.023 306.532,146.328 306.542,146.906L306.676,156.18C306.686,156.757 306.38,157.076 305.803,157.082L303.404,157.117C302.83,157.127 302.514,156.822 302.507,156.242L302.47,153.846L281.032,154.162C280.452,154.172 280.137,153.864 280.13,153.289L280.09,150.579Z" style="fill:rgb(5,24,55);fill-rule:nonzero;"/>
        </g>
        <g transform="matrix(4.16667,0,0,4.16667,0,0)">
            <path d="M279.217,168.963C279.289,168.388 279.64,168.121 280.209,168.193L304.725,171.411C305.294,171.484 305.563,171.834 305.485,172.407L305.136,175.091C305.063,175.663 304.713,175.93 304.141,175.854L279.628,172.639C279.059,172.567 278.789,172.214 278.861,171.644L279.217,168.963Z" style="fill:rgb(5,24,55);fill-rule:nonzero;"/>
        </g>
        <g transform="matrix(4.16667,0,0,4.16667,0,0)">
            <path d="M281.659,189.945C279.871,189.41 278.854,190.034 278.552,191.055C278.246,192.075 278.757,193.153 280.541,193.685L293.47,197.539C295.255,198.072 296.27,197.448 296.574,196.429C296.88,195.41 296.369,194.331 294.584,193.799L281.659,189.945ZM277.899,197.575C273.65,196.305 273.535,192.802 274.423,189.822C275.1,187.569 277.327,183.977 281.576,185.244L297.226,189.91C301.476,191.177 301.374,195.404 300.7,197.657C299.813,200.638 297.802,203.508 293.55,202.241L277.899,197.575Z" style="fill:rgb(5,24,55);fill-rule:nonzero;"/>
        </g>
        <g transform="matrix(4.16667,0,0,4.16667,0,0)">
            <path d="M264.19,215.262C264.44,214.791 264.842,214.603 265.339,214.715L281.86,218.461L267.527,210.904C267.019,210.631 266.889,210.208 267.161,209.7L268.439,207.313C268.709,206.802 269.129,206.678 269.638,206.947L291.447,218.603C291.956,218.873 292.086,219.295 291.813,219.804L289.74,223.68C289.49,224.151 289.128,224.359 288.595,224.222L271.716,220.49L286.324,228.198C286.83,228.468 286.957,228.888 286.688,229.396L285.412,231.785C285.14,232.294 284.717,232.421 284.208,232.151L262.398,220.495C261.893,220.223 261.763,219.8 262.035,219.295L264.19,215.262Z" style="fill:rgb(5,24,55);fill-rule:nonzero;"/>
        </g>
        <g transform="matrix(4.16667,0,0,4.16667,0,0)">
            <path d="M268.705,248.07L259.936,238.947L258.023,241.283L268.705,248.07ZM249.231,236.679C249.6,236.233 250.003,236.162 250.474,236.494L254.354,238.972L256.884,235.878L253.709,232.539C253.286,232.139 253.279,231.729 253.645,231.283L255.357,229.185C255.726,228.74 256.194,228.723 256.584,229.159L273.622,247.386C274.039,247.786 274.049,248.193 273.685,248.641L270.257,252.831C269.892,253.277 269.489,253.351 268.985,253.055L247.735,239.986C247.231,239.69 247.156,239.222 247.521,238.777L249.231,236.679Z" style="fill:rgb(5,24,55);fill-rule:nonzero;"/>
        </g>
        <g transform="matrix(4.16667,0,0,4.16667,0,0)">
            <path d="M239.009,247.207C239.444,246.827 239.885,246.858 240.261,247.291L256.525,265.909C256.901,266.342 256.874,266.783 256.437,267.159L254.402,268.943C253.966,269.323 253.526,269.291 253.146,268.859L239.046,252.715L236.173,255.225C235.737,255.605 235.3,255.574 234.921,255.141L233.343,253.336C232.963,252.903 232.997,252.463 233.427,252.084L239.009,247.207Z" style="fill:rgb(5,24,55);fill-rule:nonzero;"/>
        </g>
        <g transform="matrix(4.16667,0,0,4.16667,0,0)">
            <path d="M211.533,266.419C212.057,266.176 212.469,266.325 212.712,266.845L223.273,289.204C223.517,289.728 223.371,290.14 222.848,290.386L214.377,294.386C213.856,294.632 213.441,294.484 213.195,293.96L212.174,291.795C211.928,291.272 212.073,290.856 212.6,290.613L217.814,288.148L214.896,281.968L209.876,284.336C209.358,284.582 208.94,284.434 208.694,283.913L207.673,281.744C207.427,281.225 207.575,280.809 208.098,280.56L213.115,278.192L208.66,268.759C208.417,268.239 208.563,267.824 209.082,267.577L211.533,266.419Z" style="fill:rgb(5,24,55);fill-rule:nonzero;"/>
        </g>
        <g transform="matrix(4.16667,0,0,4.16667,0,0)">
            <path d="M192.416,274.3C192.964,274.129 193.354,274.334 193.527,274.885L200.871,298.489C201.045,299.042 200.838,299.43 200.287,299.6L197.698,300.406C197.153,300.579 196.763,300.374 196.593,299.824L189.245,276.214C189.075,275.666 189.279,275.273 189.83,275.103L192.416,274.3Z" style="fill:rgb(5,24,55);fill-rule:nonzero;"/>
        </g>
        <g transform="matrix(4.16667,0,0,4.16667,0,0)">
            <path d="M176.729,278.361C177.302,278.275 177.655,278.534 177.741,279.105L181.451,303.543C181.537,304.117 181.276,304.467 180.707,304.552L171.451,305.963C170.878,306.049 170.521,305.785 170.439,305.219L170.079,302.848C169.991,302.279 170.251,301.922 170.824,301.836L176.529,300.969L175.501,294.215L170.018,295.046C169.445,295.132 169.092,294.871 169.006,294.302L168.646,291.932C168.561,291.362 168.821,291.009 169.391,290.92L174.874,290.088L173.802,283.025L168.1,283.889C167.527,283.975 167.174,283.717 167.088,283.147L166.729,280.777C166.643,280.204 166.9,279.851 167.471,279.765L176.729,278.361Z" style="fill:rgb(5,24,55);fill-rule:nonzero;"/>
        </g>
        <g transform="matrix(4.16667,0,0,4.16667,0,0)">
            <path d="M154.593,280.491C155.168,280.501 155.475,280.813 155.467,281.393L155.121,306.122C155.116,306.701 154.796,307.007 154.222,306.999L151.514,306.963C150.934,306.955 150.629,306.638 150.637,306.058L150.936,284.614L147.12,284.561C146.54,284.553 146.235,284.236 146.243,283.661L146.273,281.261C146.284,280.687 146.598,280.382 147.175,280.387L154.593,280.491Z" style="fill:rgb(5,24,55);fill-rule:nonzero;"/>
        </g>
        <g transform="matrix(4.16667,0,0,4.16667,0,0)">
            <path d="M124.287,297.281C123.932,299.153 124.412,299.968 125.673,300.204L127.419,300.535L130.78,282.701L129.037,282.373C127.772,282.137 127.029,282.721 126.669,284.635L124.287,297.281ZM135.082,279.271C135.649,279.375 135.898,279.741 135.791,280.308L131.215,304.588C131.107,305.156 130.744,305.405 130.177,305.294L123.423,304.023C120.369,303.448 118.994,301.159 119.642,297.713L122.502,282.543C123.153,279.101 125.272,277.421 128.326,277.996L135.082,279.271Z" style="fill:rgb(5,24,55);fill-rule:nonzero;"/>
        </g>
        <g transform="matrix(4.16667,0,0,4.16667,0,0)">
            <path d="M84.251,285.758L91.42,275.346L88.751,273.944L84.251,285.758ZM91.496,264.412C92.007,264.682 92.16,265.063 91.932,265.591L90.279,269.883L93.814,271.74L96.446,267.964C96.754,267.473 97.151,267.381 97.66,267.648L100.058,268.906C100.57,269.175 100.68,269.633 100.331,270.102L85.904,290.436C85.595,290.921 85.199,291.016 84.69,290.746L79.898,288.231C79.386,287.964 79.236,287.583 79.423,287.029L87.96,263.611C88.15,263.06 88.59,262.888 89.101,263.158L91.496,264.412Z" style="fill:rgb(5,24,55);fill-rule:nonzero;"/>
        </g>
        <g transform="matrix(4.16667,0,0,4.16667,0,0)">
            <path d="M67.179,265.988L65.784,264.895C64.771,264.1 63.845,264.271 62.666,265.774L60.638,268.354C59.898,269.298 60.356,270.223 61.123,270.825L62.519,271.92L67.179,265.988ZM79.127,256.59C79.582,256.943 79.636,257.379 79.277,257.833L64.016,277.269C63.66,277.72 63.224,277.775 62.77,277.419L57.469,273.254C55.061,271.362 54.759,268.589 56.924,265.833L59.689,262.308C61.172,260.422 62.563,259.658 64.722,259.997L68.93,249.822C69.146,249.258 69.639,249.136 70.127,249.52L72.22,251.163C72.639,251.491 72.78,251.887 72.557,252.388L68.757,261.753L69.835,262.602L75.755,255.068C76.111,254.614 76.547,254.562 77.001,254.918L79.127,256.59Z" style="fill:rgb(5,24,55);fill-rule:nonzero;"/>
        </g>
        <g transform="matrix(4.16667,0,0,4.16667,0,0)">
            <path d="M54.161,242.787C55.561,241.559 55.576,240.367 54.877,239.561C54.177,238.764 52.991,238.62 51.588,239.846L50.488,240.813C50.055,241.193 49.615,241.162 49.232,240.729L47.452,238.694C47.072,238.258 47.1,237.821 47.536,237.441L49.704,235.541C53.044,232.618 56.069,234.393 58.116,236.728C59.667,238.498 61.519,242.3 58.178,245.222L45.896,255.978C42.555,258.9 39.034,256.56 37.486,254.787C35.437,252.452 34.081,249.22 37.418,246.294L39.89,244.131C40.323,243.751 40.763,243.785 41.14,244.215L42.923,246.254C43.303,246.69 43.275,247.124 42.842,247.506L41.442,248.731C40.036,249.959 40.021,251.152 40.72,251.955C41.425,252.755 42.608,252.896 44.012,251.671L54.161,242.787Z" style="fill:rgb(5,24,55);fill-rule:nonzero;"/>
        </g>
        <g transform="matrix(4.16667,0,0,4.16667,0,0)">
            <path d="M42.506,215.363C42.801,215.859 42.686,216.285 42.189,216.576L33.306,221.777L35.258,225.108L44.139,219.906C44.638,219.614 45.064,219.726 45.354,220.222L46.724,222.558C47.014,223.057 46.904,223.481 46.402,223.771L25.08,236.26C24.581,236.549 24.157,236.439 23.864,235.943L22.498,233.608C22.205,233.109 22.318,232.685 22.814,232.392L31.66,227.214L29.705,223.884L20.865,229.061C20.366,229.354 19.942,229.244 19.652,228.745L18.282,226.409C17.993,225.91 18.103,225.487 18.599,225.194L39.926,212.708C40.422,212.415 40.846,212.528 41.139,213.024L42.506,215.363Z" style="fill:rgb(5,24,55);fill-rule:nonzero;"/>
        </g>
        <g transform="matrix(4.16667,0,0,4.16667,0,0)">
            <path d="M35.614,200.99C35.811,201.532 35.624,201.93 35.085,202.127L11.839,210.514C11.297,210.708 10.899,210.521 10.705,209.977L7.529,201.173C7.333,200.634 7.516,200.236 8.061,200.039L10.312,199.224C10.856,199.03 11.255,199.217 11.452,199.759L13.404,205.184L19.835,202.863L17.953,197.65C17.756,197.106 17.94,196.71 18.485,196.513L20.739,195.699C21.281,195.502 21.679,195.691 21.873,196.233L23.758,201.449L30.477,199.023L28.515,193.6C28.318,193.059 28.508,192.66 29.05,192.466L31.301,191.652C31.846,191.458 32.241,191.644 32.438,192.183L35.614,200.99Z" style="fill:rgb(5,24,55);fill-rule:nonzero;"/>
        </g>
        <g transform="matrix(4.16667,0,0,4.16667,0,0)">
            <path d="M14.005,178.747L13.709,176.994C13.498,175.729 12.692,175.233 10.81,175.549L7.567,176.094C6.387,176.292 6.104,177.287 6.268,178.249L6.564,180.002L14.005,178.747ZM29.179,179.841C29.273,180.411 29.019,180.77 28.452,180.862L4.066,184.967C3.5,185.064 3.138,184.806 3.043,184.24L1.922,177.584C1.415,174.563 3.061,172.305 6.521,171.725L10.944,170.979C13.305,170.581 14.852,170.948 16.223,172.659L26.191,167.963C26.731,167.694 27.175,167.932 27.279,168.546L27.719,171.169C27.81,171.698 27.649,172.085 27.147,172.305L18.026,176.678L18.251,178.034L27.709,176.444C28.275,176.347 28.634,176.598 28.729,177.168L29.179,179.841Z" style="fill:rgb(5,24,55);fill-rule:nonzero;"/>
        </g>
        <g transform="matrix(4.16667,0,0,4.16667,0,0)">
            <path d="M26.549,153.295C26.541,153.872 26.227,154.18 25.649,154.169L17.795,154.068L0.965,158.411C0.385,158.582 -0.009,158.269 0,157.648L0.036,154.94C0.044,154.409 0.314,154.1 0.846,153.973L11.485,151.719L0.869,149.092C0.383,148.953 0.123,148.641 0.128,148.108L0.162,145.403C0.171,144.782 0.577,144.479 1.148,144.659L17.812,149.543L25.71,149.647C26.285,149.652 26.592,149.969 26.585,150.546L26.549,153.295Z" style="fill:rgb(5,24,55);fill-rule:nonzero;"/>
        </g>
        <g transform="matrix(4.16667,0,0,4.16667,0,0)">
            <path d="M10.852,109.832L22.407,114.966L23.293,112.083L10.852,109.832ZM33.169,113.034C33,113.585 32.651,113.802 32.09,113.68L27.563,112.843L26.388,116.659L30.587,118.555C31.127,118.765 31.292,119.143 31.119,119.694L30.322,122.281C30.153,122.831 29.722,123.023 29.196,122.771L6.557,112.319C6.018,112.109 5.855,111.73 6.025,111.18L7.616,106.004C7.789,105.453 8.131,105.234 8.712,105.321L33.31,109.41C33.885,109.497 34.135,109.898 33.963,110.449L33.169,113.034Z" style="fill:rgb(5,24,55);fill-rule:nonzero;"/>
        </g>
        <g transform="matrix(4.16667,0,0,4.16667,0,0)">
            <path d="M39.615,87.103C42.994,88.874 42.811,92.382 41.329,95.211C39.825,98.081 37.007,100.209 33.672,98.461L30.878,96.999C30.367,96.733 30.237,96.313 30.503,95.802L31.758,93.407C32.025,92.895 32.447,92.762 32.953,93.029L34.292,93.73C35.98,94.613 37.067,94.078 37.515,93.216C37.825,92.624 37.969,91.297 36.79,90.681L34.983,89.736C32.781,88.584 26.477,94.698 22.113,92.41L19.245,90.908C16.179,89.305 15.229,85.951 17.04,82.495C19.203,78.368 22.049,77.907 25.153,79.53L27.825,80.929C28.334,81.197 28.467,81.616 28.197,82.128L26.943,84.522C26.676,85.036 26.259,85.167 25.745,84.9L24.098,84.034C22.366,83.129 21.305,83.627 20.854,84.491C20.524,85.117 20.418,86.464 21.559,87.063L23.404,88.031C26.549,89.674 31.834,83.027 36.195,85.312L39.615,87.103Z" style="fill:rgb(5,24,55);fill-rule:nonzero;"/>
        </g>
        <g transform="matrix(4.16667,0,0,4.16667,0,0)">
            <path d="M53.713,67.437C56.715,69.789 55.9,73.205 53.929,75.72C51.93,78.268 48.769,79.851 45.803,77.525L43.323,75.583C42.872,75.231 42.814,74.792 43.176,74.338L44.842,72.205C45.195,71.754 45.636,71.7 46.088,72.055L47.276,72.988C48.778,74.163 49.939,73.833 50.541,73.064C50.948,72.542 51.334,71.263 50.286,70.443L48.676,69.181C46.722,67.65 39.415,72.52 35.537,69.483L32.989,67.484C30.266,65.35 29.938,61.88 32.347,58.81C35.221,55.142 38.102,55.202 40.861,57.365L43.236,59.226C43.691,59.585 43.745,60.017 43.386,60.469L41.717,62.601C41.364,63.058 40.926,63.106 40.475,62.754L39.007,61.604C37.469,60.399 36.335,60.694 35.732,61.463C35.296,62.021 34.946,63.325 35.962,64.122L37.601,65.407C40.396,67.595 46.797,62.017 50.672,65.054L53.713,67.437Z" style="fill:rgb(5,24,55);fill-rule:nonzero;"/>
        </g>
        <g transform="matrix(4.16667,0,0,4.16667,0,0)">
            <path d="M64.027,54.663C65.261,56.066 66.454,56.081 67.254,55.376C68.056,54.671 68.194,53.485 66.966,52.085L58.063,41.939C56.832,40.539 55.636,40.521 54.836,41.223C54.034,41.929 53.896,43.115 55.127,44.517L64.027,54.663ZM71.274,50.198C74.202,53.533 72.431,56.566 70.092,58.613C68.325,60.163 64.524,62.027 61.596,58.689L50.816,46.405C47.888,43.07 50.228,39.54 51.998,37.99C54.331,35.937 57.566,34.575 60.497,37.913L71.274,50.198Z" style="fill:rgb(5,24,55);fill-rule:nonzero;"/>
        </g>
        <g transform="matrix(4.16667,0,0,4.16667,0,0)">
            <path d="M84.205,39.653C85.152,41.258 86.322,41.498 87.239,40.961C88.159,40.418 88.521,39.282 87.573,37.671L86.834,36.412C86.538,35.91 86.651,35.486 87.15,35.194L89.483,33.824C89.979,33.531 90.409,33.644 90.698,34.14L92.162,36.629C94.409,40.453 92.098,43.1 89.42,44.672C87.393,45.864 83.309,46.976 81.062,43.149L72.785,29.061C70.538,25.234 73.496,22.207 75.523,21.015C78.204,19.444 81.638,18.711 83.888,22.541L85.551,25.375C85.844,25.871 85.731,26.296 85.234,26.591L82.899,27.961C82.403,28.251 81.973,28.143 81.684,27.644L80.739,26.034C79.795,24.43 78.625,24.189 77.708,24.729C76.788,25.269 76.426,26.406 77.371,28.016L84.205,39.653Z" style="fill:rgb(5,24,55);fill-rule:nonzero;"/>
        </g>
        <g transform="matrix(4.16667,0,0,4.16667,0,0)">
            <path d="M105.744,36.147C105.208,36.359 104.804,36.181 104.592,35.645L95.582,12.633C95.377,12.1 95.551,11.696 96.087,11.487L98.605,10.495C99.143,10.287 99.547,10.465 99.753,11L108.764,34.01C108.978,34.549 108.8,34.95 108.261,35.161L105.744,36.147Z" style="fill:rgb(5,24,55);fill-rule:nonzero;"/>
        </g>
        <g transform="matrix(4.16667,0,0,4.16667,0,0)">
            <path d="M120.929,8.198L122.182,20.779L125.125,20.125L120.929,8.198ZM129.181,29.175C128.619,29.302 128.259,29.112 128.091,28.555L126.577,24.209L122.683,25.077L123.109,29.662C123.192,30.235 122.945,30.561 122.382,30.685L119.74,31.275C119.177,31.399 118.797,31.118 118.761,30.535L116.646,5.695C116.566,5.125 116.813,4.798 117.373,4.672L122.657,3.498C123.223,3.374 123.581,3.567 123.792,4.109L132.399,27.506C132.613,28.051 132.386,28.465 131.825,28.591L129.181,29.175Z" style="fill:rgb(5,24,55);fill-rule:nonzero;"/>
        </g>
        <g transform="matrix(4.16667,0,0,4.16667,0,0)">
            <path d="M145.204,27.155C144.626,27.185 144.296,26.894 144.266,26.318L143.121,4.912L140.727,5.044C140.153,5.074 139.826,4.781 139.792,4.204L139.664,1.809C139.631,1.233 139.93,0.905 140.507,0.878L149.766,0.381C150.34,0.348 150.667,0.641 150.697,1.218L150.829,3.613C150.859,4.189 150.563,4.516 149.986,4.544L147.594,4.675L148.742,26.078C148.775,26.652 148.482,26.979 147.905,27.012L145.204,27.155Z" style="fill:rgb(5,24,55);fill-rule:nonzero;"/>
        </g>
        <g transform="matrix(4.16667,0,0,4.16667,0,0)">
            <path d="M163.577,27.292C163.008,27.24 162.727,26.902 162.776,26.329L165.014,1.717C165.065,1.141 165.4,0.861 165.976,0.915L168.673,1.162C169.248,1.211 169.529,1.55 169.478,2.124L167.242,26.737C167.188,27.309 166.853,27.591 166.274,27.539L163.577,27.292Z" style="fill:rgb(5,24,55);fill-rule:nonzero;"/>
        </g>
        <g transform="matrix(4.16667,0,0,4.16667,0,0)">
            <path d="M184.49,24.022C184.028,25.829 184.689,26.817 185.723,27.083C186.756,27.347 187.813,26.793 188.274,24.986L191.61,11.914C192.071,10.107 191.407,9.117 190.374,8.853C189.345,8.586 188.287,9.143 187.825,10.95L184.49,24.022ZM192.264,27.471C191.167,31.77 187.667,32.023 184.656,31.254C182.379,30.671 178.698,28.588 179.795,24.289L183.834,8.465C184.933,4.163 189.163,4.1 191.443,4.68C194.454,5.449 197.401,7.345 196.306,11.647L192.264,27.471Z" style="fill:rgb(5,24,55);fill-rule:nonzero;"/>
        </g>
        <g transform="matrix(4.16667,0,0,4.16667,0,0)">
            <path d="M210.371,40.405C209.893,40.176 209.689,39.781 209.777,39.284L212.848,22.621L205.881,37.252C205.629,37.772 205.213,37.917 204.692,37.665L202.256,36.488C201.735,36.239 201.591,35.822 201.846,35.302L212.597,13.035C212.849,12.515 213.266,12.368 213.782,12.62L217.738,14.533C218.217,14.766 218.442,15.116 218.332,15.658L215.288,32.677L222.391,17.766C222.643,17.246 223.056,17.101 223.576,17.35L226.014,18.531C226.533,18.783 226.681,19.196 226.429,19.713L215.672,41.983C215.423,42.503 215.009,42.647 214.489,42.395L210.371,40.405Z" style="fill:rgb(5,24,55);fill-rule:nonzero;"/>
        </g>
        <g transform="matrix(4.16667,0,0,4.16667,0,0)">
            <path d="M228.451,121.588C228.78,122.235 229.125,122.879 229.477,123.54C232.826,129.818 236.995,137.628 233.874,164.351C233.1,170.985 230.743,191.171 202.703,214.377C202.069,214.9 201.534,215.344 201.117,215.704C196.132,220.002 172.951,231.633 142.444,231.107C121.391,230.744 110.467,220.474 105.831,214.384C103.628,211.491 100.77,208.964 97.09,206.659C92.102,203.538 87.419,198.822 83.17,192.643C77.121,183.852 73.696,173.214 73.269,161.882C73.114,157.768 72.968,153.768 72.912,151.793C72.762,146.508 74.383,136.389 77.727,121.719C81.269,106.18 86.474,101.824 96.133,94.863C97.134,94.142 98.725,92.785 100.927,90.907C108.55,84.405 124.412,70.874 135.664,67.921C138.148,67.269 140.995,66.979 144.068,66.979C157.951,66.979 176.425,72.885 186.614,77.933C194.974,82.073 202.37,88.195 206.904,92.273L211.364,87.984C206.626,83.695 198.604,76.984 189.354,72.403C176.62,66.095 150.36,57.683 134.097,61.951C121.48,65.264 105.505,78.89 96.921,86.212C94.909,87.928 93.321,89.282 92.525,89.857C82.239,97.268 75.73,102.706 71.71,120.347C68.2,135.738 66.576,146.08 66.743,151.967C66.798,153.954 66.945,157.978 67.102,162.115C67.574,174.618 71.372,186.385 78.085,196.14C82.815,203.018 88.107,208.319 93.814,211.89C96.851,213.793 99.175,215.831 100.92,218.123C106.234,225.102 118.682,236.871 142.337,237.279C143.047,237.29 143.75,237.296 144.453,237.296C175.123,237.296 198.883,225.78 205.147,220.379C205.541,220.04 206.044,219.623 206.639,219.131C214.045,213.001 236.585,194.346 240.005,165.067C243.349,136.427 238.677,127.67 234.922,120.636C234.59,120.011 234.264,119.404 233.955,118.794C231.688,114.33 226.481,106.295 222.009,100.041L217.507,104.372C221.529,110.05 226.265,117.284 228.451,121.588Z" style="fill:rgb(5,24,55);fill-rule:nonzero;"/>
        </g>
        <g transform="matrix(4.16667,0,0,4.16667,0,0)">
            <path d="M142.549,76.48L142.429,76.48C132.642,76.512 125.418,82.86 115.419,91.645L114.18,92.734C110.498,95.962 107.234,98.855 104.543,101.25C98.567,106.571 92.966,111.983 90.09,119.677C89.623,120.93 89.14,122.129 88.662,123.319C86.03,129.862 83.308,136.628 83.817,150.083C83.845,150.802 83.807,151.444 83.702,152.048C82.704,157.789 79.21,187.27 108.358,203.9C110.007,204.839 111.667,205.993 113.292,207.33C118.34,211.482 131.254,220.425 148.775,220.424C150.593,220.424 152.464,220.327 154.376,220.119C154.675,220.087 154.974,220.043 155.273,219.999C155.786,219.923 156.316,219.846 156.594,219.895C168.292,221.999 197.312,217.902 212.31,191.826C221.658,175.574 224.614,160.316 226.146,148.838C227.36,139.728 223.832,128.408 217.155,119.996C214.942,117.207 212.62,114.004 210.521,111.09L206.276,115.173C208.285,117.956 210.466,120.947 212.589,123.62C218.24,130.742 221.367,140.567 220.367,148.068C218.906,159.013 216.096,173.55 207.256,188.92C192.474,214.619 164.35,215.365 157.625,214.156C156.408,213.937 155.306,214.099 154.421,214.232C154.195,214.265 153.97,214.299 153.746,214.324C135.605,216.289 122,206.941 116.996,202.826C115.116,201.281 113.181,199.937 111.248,198.835C85.483,184.136 88.566,158.112 89.445,153.044C89.619,152.049 89.686,150.98 89.644,149.865C89.183,137.651 91.557,131.745 94.071,125.494C94.567,124.261 95.067,123.016 95.552,121.718C97.964,115.265 102.807,110.603 108.419,105.605C111.101,103.219 114.356,100.335 118.024,97.117L119.267,96.026C128.649,87.782 134.848,82.337 142.448,82.311C142.482,82.31 142.516,82.31 142.549,82.31C152.038,82.31 162.244,86.787 162.347,86.833L162.478,86.887C181.278,94.162 190.539,98.498 196.014,102.747L197.917,100.917C198.13,100.242 198.659,98.812 199.463,98.04C193.47,93.414 183.99,88.962 164.646,81.474C163.592,81.013 152.977,76.48 142.549,76.48Z" style="fill:rgb(5,24,55);fill-rule:nonzero;"/>
        </g>
        <g transform="matrix(4.16667,0,0,4.16667,0,0)">
            <path d="M203.877,143.133C206.843,164.397 191.529,182.186 191.378,182.36L191.087,182.743C183.65,194.186 172.277,199.985 157.278,199.985C157.128,199.985 156.976,199.985 156.824,199.984C145.095,199.892 135.474,196.169 135.381,196.132L135.108,196.038C134.854,195.962 109.632,188.164 105.656,165.051C104.3,157.17 104.605,141.213 109.527,130.409C112.484,123.917 116.042,120.709 119.809,117.312C121.708,115.599 123.672,113.828 125.498,111.655C129.588,106.784 133.739,102.842 137.832,99.936C140.282,98.196 143.201,97.293 146.2,97.293C147.507,97.293 148.831,97.466 150.138,97.814C164.879,101.752 176.672,109.497 183.486,114.797L188.328,110.14C181.166,104.44 168.344,95.823 151.848,91.414C145.636,89.756 139.129,90.891 133.997,94.533C129.445,97.765 124.878,102.092 120.425,107.394C118.895,109.216 117.184,110.759 115.373,112.392C111.46,115.921 107.026,119.918 103.498,127.662C97.684,140.428 97.731,158.059 99.127,166.173C103.704,192.772 130.741,201.628 133.1,202.351C134.475,202.864 144.729,206.511 157.245,206.511C170.401,206.511 186.056,202.482 196.517,186.544C198.402,184.331 213.692,165.55 210.438,142.217C209.431,134.99 204.867,128.775 199.411,121.777L194.61,126.395C199.287,132.417 203.129,137.758 203.877,143.133Z" style="fill:rgb(5,24,55);fill-rule:nonzero;"/>
        </g>
        <g transform="matrix(4.16667,0,0,4.16667,0,0)">
            <path d="M176.479,118.065C175.361,117.274 148.968,98.843 136.583,112.763C122.825,128.232 109.746,146.744 117.063,166.761C121.792,179.694 138.222,192.092 154.919,192.092C156.74,192.092 158.563,191.944 160.374,191.635C180.878,188.127 190.532,179.136 194.813,159.568C197.098,149.12 195.344,139.625 189.641,131.175L184.733,135.895C188.894,142.584 190.068,149.948 188.277,158.138C184.552,175.176 177.225,181.965 159.247,185.04C144.191,187.616 127.598,176.092 123.347,164.463C119.92,155.088 119.406,142.142 141.582,117.208C143.477,115.08 146.162,114.243 149.196,114.243C157.355,114.243 168.035,120.294 172.605,123.519C172.958,123.772 173.28,124.031 173.621,124.286L178.499,119.595C177.843,119.086 177.19,118.576 176.497,118.078L176.479,118.065Z" style="fill:rgb(5,24,55);fill-rule:nonzero;"/>
        </g>
        <g transform="matrix(4.16667,0,0,4.16667,0,0)">
            <path d="M169.842,163.692C162.305,174.295 148.906,167.664 148.32,167.367C142.772,164.58 139.968,160.753 139.749,155.668C139.307,145.481 149.066,133.826 153.156,131.305C153.761,130.932 154.468,130.767 155.243,130.767C157.616,130.767 160.624,132.322 163.313,134.202L168.178,129.522C163.243,125.837 155.781,121.899 149.678,125.661C143.605,129.403 132.567,143.104 133.124,155.955C133.35,161.177 135.653,168.423 145.313,173.277C148.302,174.815 152.982,176.304 158.019,176.304C164.015,176.304 170.514,174.19 175.245,167.533C181.427,158.836 180.023,149.255 177.702,142.658L172.315,147.839C173.46,152.628 173.539,158.491 169.842,163.692Z" style="fill:rgb(5,24,55);fill-rule:nonzero;"/>
        </g>
        <g transform="matrix(4.16667,0,0,4.16667,0,0)">
            <path d="M260.252,109.732C258.346,105.334 258.745,109.2 255.373,102.108C253.242,99.141 246.61,88.215 242.022,80.791L230.547,91.829C235.097,98.702 238.764,105.888 241.802,113.407C242.498,115.128 243.162,116.867 243.798,118.626C244.786,120.986 245.75,123.375 246.664,125.789C254.361,147.369 251.835,171.552 241.004,191.199C240.004,193.244 238.951,195.268 237.849,197.262C233.438,205.233 228.151,212.691 222.446,219.405C220.578,221.119 218.645,222.753 216.662,224.336C214.561,226.123 212.411,227.906 210.229,229.586C203.867,234.148 196.968,237.992 189.73,241.022C187.317,242.032 184.867,242.951 182.39,243.771C164.88,249.594 145.899,249.23 127.943,244.682C125.378,244.033 122.834,243.298 120.317,242.483C101.645,236.471 86.85,222.821 75.212,207.018C73.758,205.043 72.352,203.034 70.993,201.003C54.59,179.219 52.834,149.458 58.355,123.167C58.943,120.508 59.652,117.876 60.492,115.278C61.332,112.68 62.302,110.117 63.411,107.597C64.612,105.156 65.935,102.771 67.377,100.453C68.459,98.715 69.609,97.013 70.835,95.364C75.894,89.666 81.362,84.208 87.229,79.202C89.184,77.533 91.184,75.914 93.227,74.354C113.673,58.268 140.025,47.903 165.943,52.717C168.531,53.1 171.108,53.588 173.661,54.184C183.875,56.568 193.716,60.709 202.608,66.324C204.45,67.46 206.255,68.645 208.024,69.878C210.142,71.36 212.213,72.911 214.218,74.502C216.311,76.099 218.28,77.783 220.139,79.543L232.022,68.113C232.335,67.595 232.728,66.984 233.159,66.331C230.047,62.914 226.063,60.245 222.794,60.667C221.406,65.744 219.197,69.457 219.07,61.698C217.979,58.573 217.848,56.99 214.273,54.803C212.031,53.167 212.924,52.474 207.034,50.736C205.675,50.332 192.828,46.028 190.231,43.226C186.851,40.04 177.362,37.692 171.67,37.471C167.379,36.408 168.685,36.481 162.327,37.746C155.523,32.594 156.511,35.112 152.685,38.146C148.706,41.744 136.618,39.97 131.516,39.538C125.8,39.216 114.768,47.209 110.908,45.579C109.014,47.968 97.231,54.991 92.196,55.117C87.804,59.325 82.984,56.001 83.1,59.635C81.658,65.316 71.326,71.552 68.439,75.08C65.916,77.883 53.24,92.634 51.292,97.372C48.781,101.802 43.569,111.03 44.385,114.268C41.961,119.511 40.661,126.878 39.018,132.87C38.064,134.512 35.668,151.179 37.52,155.009C38.539,155.869 37.665,161.39 39.066,162.666C41.048,166.48 40.071,175.541 41.188,174.548C41.841,182.935 42.652,189.721 46.384,193.98C48.539,194.869 47.52,197.745 50.167,203.979C52.962,205.576 61.667,218.969 63.474,223.504C66.771,227.984 69.218,228.16 70.783,232.083C71.747,236.538 85.712,239.928 87.91,246.672C92.827,250.925 94.613,253.687 98.265,253.498C101.288,255.056 113.424,261.971 118.258,261.722C123.865,263.081 125.666,264.94 129.348,264.694C133.434,266.553 146.25,269.188 152.057,266.993C155.34,260.575 169.148,265.663 175.549,265.294C178.615,264.62 181.514,267.302 186.696,262.355C188.152,263.104 192.827,260.921 197.177,259.863C200.803,258.991 208.029,253.348 207.574,253.745C211.777,251.467 229.475,234.704 234.274,234.055C239.25,234.591 239.229,230.049 241.667,228.806C243.308,225.104 249.881,219.639 253.241,210.492C256.307,209.803 257.381,204.686 257.217,201.826C257.696,204.306 262.352,186.407 264.256,183.046C265.609,179.781 266.877,176.773 266.533,173.151C268.241,171.821 269.295,166.35 267.932,162.978C267.803,138.127 262.793,119.288 260.252,109.732Z" style="fill:rgb(5,24,55);fill-rule:nonzero;"/>
        </g>
        <g transform="matrix(4.16667,0,0,4.16667,0,0)">
            <path d="M270.881,21.964C270.898,21.279 270.112,20.89 269.582,21.324C265.776,24.436 256.242,32.93 255.066,37.9C254.428,40.595 254.736,43.638 255.15,45.866L271.729,29.92C271.053,27.128 270.831,23.891 270.881,21.964Z" style="fill:rgb(213,59,40);fill-rule:nonzero;"/>
        </g>
        <g transform="matrix(4.16667,0,0,4.16667,0,0)">
            <path d="M289.115,48.571C290.452,47.307 291.601,46.158 292.411,45.313C292.887,44.819 292.561,44.005 291.876,43.968C289.568,43.843 285.404,43.188 282.448,41.907L266.165,57.569C268.376,58.218 271.72,58.929 274.734,58.465C277.826,57.989 282.482,54.491 286.411,51.038C283.794,50.195 281.883,49.129 281.883,49.129C283.825,49.245 286.731,48.918 289.115,48.571Z" style="fill:rgb(213,59,40);fill-rule:nonzero;"/>
        </g>
        <g transform="matrix(4.16667,0,0,4.16667,0,0)">
            <path d="M249.562,196.223C249.562,196.223 240.24,183.206 233.964,179.447C227.688,175.688 224.152,172.648 224.152,172.648C224.152,172.648 241.739,178.245 245.221,182.073C248.702,185.901 252.76,184.925 252.76,184.925L249.562,196.223Z" style="fill:rgb(5,24,55);fill-rule:nonzero;"/>
        </g>
        <g transform="matrix(4.16667,0,0,4.16667,0,0)">
            <path d="M72.761,211.827C75.154,210.138 104.126,198.24 104.126,198.24C104.126,198.24 85.3,212.255 83.941,218.176L82.582,224.097L72.761,211.827Z" style="fill:rgb(5,24,55);fill-rule:nonzero;"/>
        </g>
        <g transform="matrix(4.16667,0,0,4.16667,0,0)">
            <path d="M175.664,48.174C179.514,50.066 170.911,78.949 170.911,78.949L185.117,48.592C185.117,48.592 171.814,46.282 175.664,48.174Z" style="fill:rgb(5,24,55);fill-rule:nonzero;"/>
        </g>
        <g transform="matrix(4.16667,0,0,4.16667,0,0)">
            <path d="M290.451,23.933C290.478,23.92 290.507,23.906 290.507,23.906C290.507,23.906 289.583,21.568 286.422,22.419C285.921,22.554 285.406,23.227 284.852,24.376L246.674,61.251C242.681,63.177 234.059,71.851 233.65,73.15L205.492,100.349C202.417,101.11 201.517,103.639 201.331,104.368L159.492,144.78L155.062,149.282C155.048,149.295 155.045,149.314 155.032,149.328C154.552,149.879 154.251,150.591 154.251,151.38C154.251,153.112 155.655,154.517 157.388,154.517C158.04,154.517 158.646,154.318 159.146,153.977C159.209,153.947 168.008,145.184 168.008,145.184L231.66,83.704L276.865,40.721C276.883,40.713 276.896,40.706 276.913,40.698C279.267,40.418 283.756,33.92 284.608,33.696C285.44,33.477 286.065,32.82 286.065,32.82L287.213,30.725L290.029,28.005C291.141,26.932 291.261,25.213 290.451,23.933Z" style="fill:rgb(5,24,55);fill-rule:nonzero;"/>
        </g>
    </g>
</svg>
