<?xml version="1.0" encoding="UTF-8" standalone="no"?>
<!DOCTYPE svg PUBLIC "-//W3C//DTD SVG 1.1//EN" "http://www.w3.org/Graphics/SVG/1.1/DTD/svg11.dtd">
<svg width="100%" height="100%" viewBox="0 0 1615 566" version="1.1" xmlns="http://www.w3.org/2000/svg" xmlns:xlink="http://www.w3.org/1999/xlink" xml:space="preserve" xmlns:serif="http://www.serif.com/" style="fill-rule:evenodd;clip-rule:evenodd;stroke-linejoin:round;stroke-miterlimit:2;">
    <g transform="matrix(1,0,0,1,-92.5708,-167.208)">
        <g transform="matrix(4.16667,0,0,4.16667,0,0)">
            <g transform="matrix(1,0,0,1,379.614,110.077)">
                <path d="M0,-33.378C0,-30.595 -2.257,-28.338 -5.04,-28.338L-27.693,-28.338C-30.477,-28.338 -32.733,-30.595 -32.733,-33.378L-32.733,-41.036C-32.733,-43.819 -30.477,-46.076 -27.693,-46.076L-5.04,-46.076C-2.257,-46.076 0,-43.819 0,-41.036L0,-33.378ZM13.608,-69.947L-46.342,-69.947C-55.487,-69.947 -62.901,-62.532 -62.901,-53.387L-62.901,36.569L-32.733,36.569L-32.733,0.631C-32.733,-2.153 -30.477,-4.409 -27.693,-4.409L-5.04,-4.409C-2.257,-4.409 0,-2.153 0,0.631L0,36.569L30.168,36.569L30.168,-53.387C30.168,-62.532 22.754,-69.947 13.608,-69.947" style="fill:rgb(27,27,26);fill-rule:nonzero;"/>
            </g>
        </g>
        <g transform="matrix(4.16667,0,0,4.16667,0,0)">
            <g transform="matrix(1,0,0,1,115.425,111.943)">
                <path d="M0,-37.108L0,-55.252C0,-64.398 -7.414,-71.812 -16.56,-71.812L-76.648,-71.812C-85.794,-71.812 -93.208,-64.398 -93.208,-55.252L-93.208,-23.464C-93.208,-14.318 -85.794,-6.904 -76.648,-6.904L-35.278,-6.904C-32.494,-6.904 -30.238,-4.648 -30.238,-1.864L-30.238,5.793C-30.238,8.577 -32.494,10.833 -35.277,10.833L-57.931,10.833C-60.714,10.833 -62.971,8.577 -62.971,5.793L-62.971,0L-93.208,0L-93.208,18.144C-93.208,27.29 -85.794,34.704 -76.648,34.704L-16.56,34.704C-7.414,34.704 0,27.29 0,18.144L0,-13.644C0,-22.789 -7.414,-30.204 -16.56,-30.204L-57.931,-30.204C-60.714,-30.204 -62.971,-32.46 -62.971,-35.243L-62.971,-42.901C-62.971,-45.685 -60.714,-47.941 -57.931,-47.941L-35.278,-47.941C-32.494,-47.941 -30.238,-45.685 -30.238,-42.901L-30.238,-37.108L0,-37.108Z" style="fill:rgb(27,27,26);fill-rule:nonzero;"/>
            </g>
        </g>
        <g transform="matrix(4.16667,0,0,4.16667,0,0)">
            <g transform="matrix(1,0,0,1,131.334,165.041)">
                <path d="M0,3.729L1.801,-1.334L3.633,3.729L0,3.729ZM-1.313,-6.959L-7.71,10.688L-2.45,10.688L-1.365,7.618L4.997,7.618L6.108,10.688L11.305,10.688L4.81,-6.959L-1.313,-6.959Z" style="fill:rgb(27,27,26);fill-rule:nonzero;"/>
            </g>
        </g>
        <g transform="matrix(4.16667,0,0,4.16667,0,0)">
            <g transform="matrix(1,0,0,1,158.491,171.524)">
                <path d="M0,-9.236L4.156,-9.236C5.409,-9.236 5.66,-8.994 5.663,-8.991C5.665,-8.989 5.911,-8.708 5.911,-7.354C5.911,-6.084 5.649,-5.757 5.597,-5.704C5.544,-5.652 5.218,-5.39 3.926,-5.39L0,-5.39L0,-9.236ZM10.099,-4.124C10.603,-4.865 10.921,-6.102 10.921,-7.905C10.921,-9.933 10.414,-11.387 9.413,-12.228C8.441,-13.044 6.822,-13.441 4.463,-13.441L-4.959,-13.441L-4.959,4.205L0,4.205L0,-1.473L3.939,-1.473C5.459,-1.473 5.771,-0.815 5.771,0.174L5.771,4.205L10.729,4.205L10.729,-0.147C10.729,-1.595 10.182,-2.677 9.283,-3.338C9.623,-3.561 9.893,-3.822 10.099,-4.124" style="fill:rgb(27,27,26);fill-rule:nonzero;"/>
            </g>
        </g>
        <g transform="matrix(4.16667,0,0,4.16667,0,0)">
            <g transform="matrix(1,0,0,1,192.362,163.9)">
                <path d="M0,6.012C0,6.727 -0.132,7.238 -0.354,7.38C-0.478,7.459 -1.043,7.718 -3.108,7.718C-5.655,7.718 -6.012,7.25 -6.016,7.245C-6.085,7.138 -6.434,6.392 -6.434,2.262C-6.434,-0.711 -6.067,-1.239 -6.026,-1.288C-6.009,-1.305 -5.574,-1.706 -2.942,-1.706C-0.997,-1.706 -0.534,-1.459 -0.462,-1.41C-0.45,-1.402 -0.178,-1.203 -0.178,-0.082L-0.178,1.154L4.82,1.154L4.781,-0.035C4.781,-2.347 4.273,-3.888 3.227,-4.746C2.229,-5.561 0.429,-5.958 -2.278,-5.958C-5.915,-5.958 -8.282,-5.493 -9.516,-4.536C-10.813,-3.53 -11.444,-1.613 -11.444,1.325C-11.444,7.605 -10.669,9.341 -10.085,10.1C-9.106,11.376 -6.881,11.97 -3.083,11.97C0.204,11.97 2.227,11.608 3.284,10.83C4.403,10.005 4.947,8.375 4.947,5.848L4.947,4.472L-0.055,4.472L0,6.012Z" style="fill:rgb(27,27,26);fill-rule:nonzero;"/>
            </g>
        </g>
        <g transform="matrix(4.16667,0,0,4.16667,0,0)">
            <g transform="matrix(1,0,0,1,220.401,169.202)">
                <path d="M0,-4.592L-6.525,-4.592L-6.525,-11.119L-11.483,-11.119L-11.483,6.527L-6.525,6.527L-6.525,-0.387L0,-0.387L0,6.527L4.958,6.527L4.958,-11.119L0,-11.119L0,-4.592Z" style="fill:rgb(27,27,26);fill-rule:nonzero;"/>
            </g>
        </g>
        <g transform="matrix(4.16667,0,0,4.16667,0,0)">
            <g transform="matrix(1,0,0,1,243.305,165.161)">
                <path d="M0,3.49L6.734,3.49L6.734,-0.399L0,-0.399L0,-2.873L8.622,-2.873L8.622,-7.078L-4.959,-7.078L-4.959,10.568L8.699,10.568L8.699,6.363L0,6.363L0,3.49Z" style="fill:rgb(27,27,26);fill-rule:nonzero;"/>
            </g>
        </g>
        <g transform="matrix(4.16667,0,0,4.16667,0,0)">
            <g transform="matrix(1,0,0,1,269.313,171.524)">
                <path d="M0,-9.236L4.157,-9.236C5.409,-9.236 5.661,-8.994 5.663,-8.991C5.666,-8.989 5.912,-8.708 5.912,-7.354C5.912,-6.084 5.65,-5.757 5.599,-5.705C5.546,-5.653 5.218,-5.39 3.927,-5.39L0,-5.39L0,-9.236ZM10.171,-4.124C10.676,-4.866 10.922,-6.103 10.922,-7.905C10.922,-9.932 10.414,-11.387 9.414,-12.228C8.442,-13.044 6.823,-13.441 4.463,-13.441L-4.958,-13.441L-4.958,4.205L0,4.205L0,-1.473L3.939,-1.473C5.46,-1.473 5.771,-0.815 5.771,0.174L5.771,4.205L10.73,4.205L10.73,-0.147C10.73,-1.595 10.255,-2.677 9.356,-3.338C9.695,-3.561 9.966,-3.822 10.171,-4.124" style="fill:rgb(27,27,26);fill-rule:nonzero;"/>
            </g>
        </g>
        <g transform="matrix(4.16667,0,0,4.16667,0,0)">
            <g transform="matrix(1,0,0,1,303.092,175.728)">
                <path d="M0,-17.646L-2.895,-13.051C-3.09,-12.75 -3.352,-12.299 -3.672,-11.712L-3.735,-11.602L-3.792,-11.7C-4.15,-12.35 -4.404,-12.794 -4.555,-13.039L-7.428,-17.646L-13.22,-17.646L-6.259,-6.69L-6.259,0L-1.3,0L-1.3,-6.685L5.862,-17.646L0,-17.646Z" style="fill:rgb(27,27,26);fill-rule:nonzero;"/>
            </g>
        </g>
        <g transform="matrix(4.16667,0,0,4.16667,0,0)">
            <g transform="matrix(-1,0,0,1,128.217,117.95)">
                <rect x="22.217" y="48.15" width="83.783" height="1.75" style="fill:rgb(27,27,26);"/>
            </g>
        </g>
        <g transform="matrix(4.16667,0,0,4.16667,0,0)">
            <g transform="matrix(-1,0,0,1,735.783,117.95)">
                <rect x="326" y="48.15" width="83.783" height="1.75" style="fill:rgb(27,27,26);"/>
            </g>
        </g>
        <g transform="matrix(4.16667,0,0,4.16667,0,0)">
            <g transform="matrix(1,0,0,1,267.089,138.471)">
                <path d="M0,3.642C0.903,3.377 1.059,2.553 0.763,1.712C0.467,0.871 0.078,-0.265 -0.545,-0.265C-0.841,-0.249 -1.027,-0.218 -1.447,0.918C-1.867,2.055 -2.2,3.377 -2.185,3.564C-2.169,3.751 -0.902,3.907 0,3.642" style="fill:rgb(27,27,26);fill-rule:nonzero;"/>
            </g>
        </g>
        <g transform="matrix(4.16667,0,0,4.16667,0,0)">
            <g transform="matrix(0.907855,0.419284,0.419284,-0.907855,261.625,139.52)">
                <path d="M0.524,-0.093C0.89,0.675 1.292,1.735 1.294,2.028C1.295,2.32 0.928,2.561 0.524,2.432C0.062,2.134 -0.642,1.356 -0.646,0.995C-0.651,0.633 -0.008,-0.167 0.524,-0.093" style="fill:rgb(27,27,26);fill-rule:nonzero;"/>
            </g>
        </g>
        <g transform="matrix(4.16667,0,0,4.16667,0,0)">
            <g transform="matrix(1,0,0,1,263.721,138.544)">
                <path d="M0,2.981C0.397,3.148 0.754,2.323 0.878,2.059C1.003,1.794 1.687,0.377 1.189,0.004C0.754,-0.167 0.442,0.16 -0.009,0.564C-0.461,0.969 -1.079,1.621 -1.099,1.81C-1.146,2.261 -0.305,2.853 0,2.981" style="fill:rgb(27,27,26);fill-rule:nonzero;"/>
            </g>
        </g>
        <g transform="matrix(4.16667,0,0,4.16667,0,0)">
            <g transform="matrix(1,0,0,1,285.219,121.672)">
                <path d="M0,3.877C-0.062,3.86 -0.124,3.84 -0.181,3.805C-4.254,1.315 -8.755,-4.138 -8.333,-5.028C-7.895,-5.954 -7.992,-7.171 -8.284,-8.145C-8.613,-8.714 -8.795,-9.253 -8.887,-9.783L-10.198,-9.784C-10.51,-9.784 -10.709,-9.936 -10.832,-10.159L-17.896,-10.165L-18.342,12.736C-17.968,12.948 -17.6,13.191 -17.254,13.506C-17.084,13.662 -16.949,13.847 -16.828,14.042C-9.184,13.659 -2.257,9.327 0,3.877" style="fill:rgb(27,27,26);fill-rule:nonzero;"/>
            </g>
        </g>
        <g transform="matrix(4.16667,0,0,4.16667,0,0)">
            <g transform="matrix(1,0,0,1,275.062,110.166)">
                <path d="M0,-2.021C-0.79,-1.928 -3.445,-0.943 -6.22,0.092L-0.676,0.097C-0.553,-0.127 -0.353,-0.278 -0.042,-0.278L1.279,-0.277C1.322,-0.59 1.376,-0.907 1.436,-1.234C0.937,-1.58 0.82,-2.118 0,-2.021" style="fill:rgb(27,27,26);fill-rule:nonzero;"/>
            </g>
        </g>
        <g transform="matrix(4.16667,0,0,4.16667,0,0)">
            <g transform="matrix(1,0,0,1,267.491,95.0061)">
                <path d="M0,7.823C0.846,7.75 1.611,7.632 2.384,7.495C2.775,7.426 3.143,7.362 3.498,7.3C3.183,6.389 2.052,5.627 2.222,5.452C2.45,5.219 2.111,4.283 3.748,5.803C4.63,6.622 5.714,6.676 6.519,6.59C6.633,6.54 6.734,6.488 6.821,6.433C7.466,6.023 8.494,4.579 9.496,3.884L9.528,0.008L0.152,0L0,7.823Z" style="fill:rgb(27,27,26);fill-rule:nonzero;"/>
            </g>
        </g>
        <g transform="matrix(4.16667,0,0,4.16667,0,0)">
            <g transform="matrix(1,0,0,1,277.036,93.758)">
                <path d="M0,-0.696L-9.153,-0.702C-9.205,-0.588 -9.274,-0.484 -9.36,-0.394L-9.368,-0.002L-0.006,0.006L0,-0.696Z" style="fill:rgb(27,27,26);fill-rule:nonzero;"/>
            </g>
        </g>
        <g transform="matrix(4.16667,0,0,4.16667,0,0)">
            <g transform="matrix(1,0,0,1,282.843,121.49)">
                <path d="M0,-4.643C-0.196,-4.787 -0.466,-4.754 -0.636,-4.579C-1.424,-3.768 -2.394,-2.671 -2.443,-2.146C-2.489,-1.665 -0.821,-0.268 -0.454,-0.062C-0.088,0.144 1.172,-0.108 1.722,-0.635C2.271,-1.162 3.054,-1.711 2.376,-2.444C1.837,-3.027 0.641,-4.174 0,-4.643" style="fill:rgb(27,27,26);fill-rule:nonzero;"/>
            </g>
        </g>
        <g transform="matrix(4.16667,0,0,4.16667,0,0)">
            <g transform="matrix(0.254025,0.967198,0.967198,-0.254025,280.731,88.5029)">
                <path d="M0.712,-0.425C1.085,0.084 1.519,0.615 1.514,0.947C1.51,1.28 0.855,1.378 0.712,1.048C0.57,0.716 -0.251,-0.098 -0.329,-0.464C-0.206,-0.699 0.34,-0.935 0.712,-0.425" style="fill:rgb(27,27,26);fill-rule:nonzero;"/>
            </g>
        </g>
        <g transform="matrix(4.16667,0,0,4.16667,0,0)">
            <g transform="matrix(1,0,0,1,279.027,93.7221)">
                <path d="M0,-0.393C-0.562,-0.373 -0.878,-0.438 -0.892,0.043L1.265,0.045C1.237,-0.341 0.571,-0.414 0,-0.393" style="fill:rgb(27,27,26);fill-rule:nonzero;"/>
            </g>
        </g>
        <g transform="matrix(4.16667,0,0,4.16667,0,0)">
            <g transform="matrix(1,0,0,1,226.426,60.6317)">
                <path d="M0,33.09L39.991,33.124L39.994,32.964C39.757,32.853 39.565,32.662 39.456,32.423L34.381,32.42C34.036,32.419 33.757,32.196 33.757,31.922C33.757,31.646 34.037,31.424 34.382,31.424L34.383,31.424L39.515,31.427C39.635,31.218 39.809,31.043 40.034,30.949L40.587,2.533C37.952,4.02 35.143,4.152 33.772,2.441C33.213,1.742 33.01,0.883 33.103,-0.034L0.809,27.878C0.981,28.452 1.07,28.963 0.824,29.182C0.262,29.682 0.439,29.932 0.627,30.932C0.814,31.932 0.262,31.995 0.012,32.995C0.003,33.03 0.005,33.058 0,33.09" style="fill:rgb(27,27,26);fill-rule:nonzero;"/>
            </g>
        </g>
        <g transform="matrix(4.16667,0,0,4.16667,0,0)">
            <g transform="matrix(1,0,0,1,263.058,136.136)">
                <path d="M0,0.545C0.016,0.141 -0.747,-0.918 -1.229,-0.451C-1.712,0.016 -1.836,1.37 -1.603,1.417C-1.369,1.463 -0.529,1.059 0,0.545" style="fill:rgb(27,27,26);fill-rule:nonzero;"/>
            </g>
        </g>
        <g transform="matrix(4.16667,0,0,4.16667,0,0)">
            <g transform="matrix(1,0,0,1,277.297,88.9259)">
                <path d="M0,-0.463C-0.018,-0.018 0.285,0.552 0.374,0.409C0.463,0.267 0.356,-0.356 0.392,-0.961C0.16,-1.015 0.018,-0.908 0,-0.463" style="fill:rgb(27,27,26);fill-rule:nonzero;"/>
            </g>
        </g>
        <g transform="matrix(4.16667,0,0,4.16667,0,0)">
            <g transform="matrix(1,0,0,1,285.781,120.629)">
                <path d="M0,2.611C0.298,2.795 0.55,2.84 0.756,2.543C0.962,2.245 1.328,1.627 1.718,1.031C2.106,0.435 1.786,0.275 1.396,0.023C1.008,-0.229 0.893,-0.229 0.389,0.435L-0.114,1.168L-0.366,1.649C-0.618,2.13 -0.298,2.428 0,2.611" style="fill:rgb(27,27,26);fill-rule:nonzero;"/>
            </g>
        </g>
        <g transform="matrix(4.16667,0,0,4.16667,0,0)">
            <g transform="matrix(1,0,0,1,243.312,97.223)">
                <path d="M0,3.591C2,3.653 1.937,3.841 3.625,4.841C5.312,5.841 6.875,5.841 9.625,5.528C12.375,5.216 14.625,4.903 18.5,5.403C20.311,5.637 21.717,5.703 22.927,5.673L23.08,-2.218L-16.028,-2.25C-15.818,-2.036 -15.577,-1.767 -15.313,-1.409C-14.25,0.028 -14.938,-0.471 -10.563,-0.284C-6.187,-0.097 -6.062,0.653 -5,1.779C-3.938,2.904 -2,3.529 0,3.591" style="fill:rgb(27,27,26);fill-rule:nonzero;"/>
            </g>
        </g>
        <g transform="matrix(4.16667,0,0,4.16667,0,0)">
            <g transform="matrix(1,0,0,1,261.498,114.251)">
                <path d="M0,20.809C1.059,19.63 2.609,19.247 4.139,19.645L4.574,-2.745L3.847,-2.746C3.303,-2.503 2.752,-2.277 2.259,-2.101C1.006,-1.654 0.575,-1.589 0.206,-2.183C-3.422,-1.759 -7.636,-1.719 -9.311,-2.063C-11.748,-2.563 -14.248,-2.938 -15.998,-3C-17.748,-3.063 -17.311,-2.938 -18.061,-2.063C-18.709,-1.306 -23.281,-0.876 -25.8,-0.086L-0.924,23.872C-0.967,22.656 -0.624,21.504 0,20.809" style="fill:rgb(27,27,26);fill-rule:nonzero;"/>
            </g>
        </g>
        <g transform="matrix(4.16667,0,0,4.16667,0,0)">
            <g transform="matrix(1,0,0,1,285.69,77.321)">
                <path d="M0,-0.341C0.274,-0.683 0.012,-1.103 -0.803,-1.813C-1.827,-2.549 -2.372,-2.733 -3.453,-1.97C-4.534,-1.208 -5.086,-0.262 -5.033,0.132C-4.98,0.526 -3.145,2.286 -2.92,2.339C-2.694,2.392 -0.275,-0 0,-0.341" style="fill:rgb(27,27,26);fill-rule:nonzero;"/>
            </g>
        </g>
        <g transform="matrix(4.16667,0,0,4.16667,0,0)">
            <g transform="matrix(1,0,0,1,266.305,57.9873)">
                <path d="M0,-3.125C-0.293,-3.015 -0.447,-2.694 -0.351,-2.397C0.099,-1.016 1.471,0.364 1.784,0.26C2.108,0.152 2.701,-0.888 2.966,-1.864C3.01,-2.024 2.977,-2.204 2.88,-2.338C2.057,-3.486 0.969,-3.489 0,-3.125" style="fill:rgb(27,27,26);fill-rule:nonzero;"/>
            </g>
        </g>
        <g transform="matrix(4.16667,0,0,4.16667,0,0)">
            <g transform="matrix(1,0,0,1,264.599,57.9423)">
                <path d="M0,-2.37C-0.756,-1.953 -1.312,-1.46 -1.146,-1.183C-0.956,-0.866 0.489,0.054 0.687,0.086C0.884,0.117 1.486,-0.232 1.486,-0.422C1.486,-0.583 1.146,-1.633 0.636,-2.258C0.482,-2.447 0.213,-2.487 0,-2.37" style="fill:rgb(27,27,26);fill-rule:nonzero;"/>
            </g>
        </g>
        <g transform="matrix(4.16667,0,0,4.16667,0,0)">
            <g transform="matrix(1,0,0,1,269.649,92.0661)">
                <path d="M0,-31.009C-0.378,-30.568 -0.838,-30.141 -1.37,-29.735L-1.945,-0.187C-1.897,-0.133 -1.859,-0.07 -1.823,-0.006L7.304,0C7.098,-1.037 6.627,-3.93 7.038,-7.113C7.544,-11.035 7.957,-9.045 7.511,-12.745C7.496,-12.862 7.51,-12.985 7.561,-13.092C8.929,-15.981 13.976,-19.91 15.549,-21.027C15.801,-21.206 15.878,-21.534 15.733,-21.807C14.236,-24.629 9.393,-30.184 0,-31.009" style="fill:rgb(27,27,26);fill-rule:nonzero;"/>
            </g>
        </g>
        <g transform="matrix(4.16667,0,0,4.16667,0,0)">
            <g transform="matrix(1,0,0,1,262.109,58.1633)">
                <path d="M0,0.658C0.073,1.419 2.408,1.11 2.453,0.975C2.611,0.499 1.516,-0.412 0.913,-0.698C0.659,-0.761 -0.073,-0.104 0,0.658" style="fill:rgb(27,27,26);fill-rule:nonzero;"/>
            </g>
        </g>
        <g transform="matrix(4.16667,0,0,4.16667,0,0)">
            <g transform="matrix(1,0,0,1,292.048,146.646)">
                <path d="M0,-106.516L-71.575,-106.516L-71.575,-71.996C-70.712,-71.659 -69.875,-71.257 -69.11,-70.832C-67.298,-69.707 -66.201,-68.039 -66.139,-67.601C-66.076,-67.164 -66.567,-66.429 -66.192,-65.429C-65.817,-64.429 -64.798,-62.645 -64.673,-61.957C-64.548,-61.27 -65.395,-61.082 -65.395,-60.207C-65.395,-59.999 -65.326,-59.725 -65.234,-59.425L-31.667,-88.437C-31.151,-89.296 -30.428,-90.133 -29.523,-90.872C-26.452,-93.38 -24.055,-93.29 -22.211,-91.652C-21.108,-90.672 -20.748,-89.293 -21.142,-87.856C-11.05,-86.226 -4.949,-78.706 -3.173,-73.082L-2.29,-72.986L-0.835,-70.698C-0.679,-70.451 -0.719,-70.128 -0.933,-69.928L-2.626,-68.338L-3.342,-68.801C-3.342,-68.801 -4.594,-68.014 -7.104,-67.344C-7.162,-67.328 -7.22,-67.306 -7.271,-67.274C-9.106,-66.159 -11.717,-62.793 -12.069,-59.739C-11.646,-59.338 -10.975,-58.762 -10.408,-58.539C-9.5,-58.183 -7.488,-58.397 -7.488,-58.397C-6.634,-59.679 -5.78,-60.337 -4.961,-60.373C-4.916,-60.375 -4.88,-60.367 -4.836,-60.367C-4.647,-60.683 -4.459,-60.862 -4.299,-60.853C-4.14,-60.845 -4.005,-60.62 -3.904,-60.253C-3.618,-60.18 -3.394,-60.097 -3.234,-60.07C-3.188,-60.062 -3.131,-60.039 -3.078,-60.022C-2.944,-60.418 -2.791,-60.659 -2.632,-60.653C-2.402,-60.644 -2.221,-60.129 -2.125,-59.353C-2.11,-59.336 -2.093,-59.323 -2.077,-59.305C-1.722,-58.877 -1.812,-57.633 -1.864,-56.957C-1.912,-56.36 -2.115,-55.37 -2.439,-55.028C-2.571,-54.637 -2.725,-54.398 -2.883,-54.405C-3.008,-54.41 -3.118,-54.576 -3.209,-54.842C-3.534,-54.822 -3.942,-54.815 -4.357,-54.823C-4.449,-54.687 -4.545,-54.608 -4.641,-54.609C-5.201,-54.617 -5.559,-54.738 -5.776,-54.94C-5.943,-54.971 -6.09,-55.006 -6.189,-55.051C-7.145,-55.48 -7.097,-55.905 -7.578,-56.012C-8.059,-56.119 -8.877,-56.403 -9.305,-56.386C-9.677,-56.37 -11.078,-56.395 -11.867,-56.65C-11.55,-54.917 -11.012,-53.501 -10.751,-52.878L-7.271,-52.875C-6.926,-52.875 -5.206,-52.595 -5.206,-52.25C-5.206,-51.905 -6.927,-51.625 -7.271,-51.625L-7.272,-51.625L-10.604,-51.628L-10.604,-50.14C-10.566,-50.139 -10.519,-50.152 -10.485,-50.145C-9.548,-49.957 -7.173,-47.145 -8.485,-43.77C-9.824,-40.328 -11.423,-40.332 -11.735,-40.02C-11.778,-39.977 -11.856,-39.892 -11.952,-39.787C-11.969,-39.357 -11.964,-38.904 -11.947,-38.441C-10.822,-38.431 -10.306,-38.494 -9.994,-37.404C-9.981,-37.359 -9.97,-37.315 -9.958,-37.27C-9.277,-37.281 -8.74,-37.211 -8.223,-36.751L-7.519,-36.75C-7.508,-37.204 -6.927,-37.231 -6.927,-37.231C-6.103,-37.261 -5.493,-37.254 -4.91,-36.748L-4.186,-36.747C-4.152,-37.175 -3.599,-37.202 -3.599,-37.202C-2.797,-37.231 -2.2,-37.225 -1.635,-36.745L-0.89,-36.745C-0.836,-37.147 -0.309,-37.173 -0.309,-37.173C0.472,-37.202 1.056,-37.197 1.605,-36.743L2.94,-36.741C3.492,-36.741 3.807,-36.316 3.579,-35.812C3.425,-35.471 3.452,-35.64 3.303,-34.958C3.413,-34.736 3.313,-34.366 3.026,-34.316C2.501,-34.224 1.622,-34.193 0.7,-34.744L0,-34.744C0.105,-34.528 0.072,-34.378 -0.211,-34.328C-0.737,-34.237 -1.616,-34.205 -2.544,-34.746L-3.269,-34.747C-3.17,-34.537 -3.204,-34.39 -3.483,-34.342C-4.012,-34.25 -4.891,-34.219 -5.823,-34.749L-6.574,-34.749C-6.481,-34.546 -6.517,-34.402 -6.793,-34.355C-7.322,-34.264 -8.201,-34.231 -9.14,-34.752L-9.535,-34.752C-9.553,-34.645 -9.578,-34.556 -9.627,-34.507C-9.798,-34.336 -10.603,-34.299 -11.301,-34.586C-10.173,-30.985 -8.152,-30.049 -3.962,-28.201L-3.183,-28.396L-1.401,-27.269C-1.063,-27.056 -0.955,-26.613 -1.155,-26.267L-2.55,-23.867L-3.475,-23.623L-3.665,-23.454C-5.919,-16.962 -11.111,-10.498 -22.8,-8.528C-22.736,-8.323 -22.669,-8.122 -22.589,-7.935C-22.152,-6.916 -22.331,-6.139 -22.725,-5.872C-23.355,-5.443 -23.39,-4.09 -24.462,-3.67C-26.079,-3.037 -28.27,-3.425 -29.878,-4.891C-30.3,-5.276 -30.609,-5.73 -30.858,-6.207C-30.871,-6.217 -30.886,-6.221 -30.897,-6.232L-57.596,-31.946C-59.335,-30.899 -59.129,-29.485 -59.548,-25.832C-59.985,-22.02 -59.298,-18.082 -59.173,-15.145C-59.048,-12.207 -59.36,-10.832 -59.61,-9.77C-59.86,-8.707 -61.11,-7.77 -60.173,-6.457C-59.235,-5.145 -59.048,-5.207 -59.048,-1.395C-59.048,-0.895 -59.065,-0.433 -59.094,0L0,0C9.146,0 16.56,-7.414 16.56,-16.56L16.56,-89.956C16.56,-99.101 9.146,-106.516 0,-106.516" style="fill:rgb(27,27,26);fill-rule:nonzero;"/>
            </g>
        </g>
        <g transform="matrix(4.16667,0,0,4.16667,0,0)">
            <g transform="matrix(1,0,0,1,262.119,60.7246)">
                <path d="M0,-0.666C-0.095,-0.254 0.539,0.413 0.968,0.349C1.396,0.286 2.126,-0.729 1.936,-0.856C1.143,-0.92 0.096,-1.079 0,-0.666" style="fill:rgb(27,27,26);fill-rule:nonzero;"/>
            </g>
        </g>
        <g transform="matrix(4.16667,0,0,4.16667,0,0)">
            <g transform="matrix(1,0,0,1,287.147,73.0128)">
                <path d="M0,2.87C0.289,2.818 0.92,2.548 0.814,2.259C0.71,1.97 0.211,0.997 -0.131,0.498C-0.473,0.025 -0.683,-0.053 -1.021,0.293C-1.554,0.841 -1.209,1.471 -0.972,1.838C-0.735,2.206 -0.289,2.923 0,2.87" style="fill:rgb(27,27,26);fill-rule:nonzero;"/>
            </g>
        </g>
        <g transform="matrix(4.16667,0,0,4.16667,0,0)">
            <g transform="matrix(0,-1,-1,0,284.924,72.6707)">
                <path d="M-0.341,-0.342C-0.153,-0.342 0,-0.19 0,0C0,0.188 -0.153,0.341 -0.341,0.341C-0.53,0.341 -0.683,0.188 -0.683,0C-0.683,-0.19 -0.53,-0.342 -0.341,-0.342" style="fill:rgb(27,27,26);fill-rule:nonzero;"/>
            </g>
        </g>
        <g transform="matrix(4.16667,0,0,4.16667,0,0)">
            <g transform="matrix(1,0,0,1,281.829,80.7939)">
                <path d="M0,-0.041C0.1,-0.188 0.109,-0.379 0.017,-0.532C-0.388,-1.198 -0.979,-1.856 -1.429,-2.184C-1.641,-2.338 -1.94,-2.283 -2.091,-2.069C-2.795,-1.063 -3.282,-0.135 -3.348,0.734C-3.354,0.819 -3.34,0.904 -3.302,0.981C-3.012,1.57 -2.241,2.297 -1.725,2.125C-1.262,1.97 -0.393,0.541 0,-0.041" style="fill:rgb(27,27,26);fill-rule:nonzero;"/>
            </g>
        </g>
        <g transform="matrix(4.16667,0,0,4.16667,0,0)">
            <g transform="matrix(-0.772013,-0.635607,-0.635607,0.772013,278.111,97.2864)">
                <path d="M-0.657,-1.806C-0.177,-1.466 0.151,-0.632 0.026,-0.172C-0.034,0.047 -0.346,0.192 -0.657,0.284C-0.74,-0.241 -0.943,-0.909 -1.281,-1.605C-1.125,-1.677 -0.924,-1.747 -0.657,-1.806" style="fill:rgb(27,27,26);fill-rule:nonzero;"/>
            </g>
        </g>
        <g transform="matrix(4.16667,0,0,4.16667,0,0)">
            <g transform="matrix(1,0,0,1,280.235,117.833)">
                <path d="M0,-3.574C-0.687,-3.688 -0.909,-3.62 -1.68,-2.91C-2.45,-2.2 -1.848,-1.65 -1.68,-1.306C-1.512,-0.963 -0.87,0.114 -0.39,-0.07C0.092,-0.253 1.649,-1.856 1.488,-2.062C1.328,-2.268 0.642,-3.185 0,-3.574" style="fill:rgb(27,27,26);fill-rule:nonzero;"/>
            </g>
        </g>
        <g transform="matrix(4.16667,0,0,4.16667,0,0)">
            <g transform="matrix(0,-1,-1,0,284.45,123.026)">
                <path d="M-0.358,-0.359C-0.16,-0.359 0,-0.199 0,-0.001C0,0.198 -0.16,0.358 -0.358,0.358C-0.556,0.358 -0.717,0.198 -0.717,-0.001C-0.717,-0.199 -0.556,-0.359 -0.358,-0.359" style="fill:rgb(27,27,26);fill-rule:nonzero;"/>
            </g>
        </g>
        <g transform="matrix(4.16667,0,0,4.16667,0,0)">
            <g transform="matrix(1,0,0,1,277.83,112.748)">
                <path d="M0,1.03C0.413,1.603 1.787,0.274 1.901,-0.115C2.016,-0.504 0.504,-0.573 -0.091,-0.504C-0.687,-0.436 -0.48,-0.184 0,1.03" style="fill:rgb(27,27,26);fill-rule:nonzero;"/>
            </g>
        </g>
        <g transform="matrix(4.16667,0,0,4.16667,0,0)">
            <g transform="matrix(0.034998,-0.999387,-0.999387,-0.034998,279.134,94.4597)">
                <path d="M-0.578,-0.915C-0.563,-0.919 -0.541,-0.924 -0.525,-0.929L-0.578,0.628C-0.917,0.396 -0.983,0.074 -0.973,-0.232C-0.96,-0.579 -0.842,-0.837 -0.578,-0.915" style="fill:rgb(27,27,26);fill-rule:nonzero;"/>
            </g>
        </g>
        <g transform="matrix(4.16667,0,0,4.16667,0,0)">
            <g transform="matrix(0.894864,-0.446339,-0.446339,-0.894864,279.467,89.4165)">
                <path d="M-0.394,-0.071C-0.173,0.018 0.243,1.282 0.267,1.41C0.291,1.538 -0.187,1.815 -0.394,1.76C-0.498,1.632 -0.887,0.851 -0.863,0.621C-0.839,0.39 -0.615,-0.16 -0.394,-0.071" style="fill:rgb(27,27,26);fill-rule:nonzero;"/>
            </g>
        </g>
        <g transform="matrix(4.16667,0,0,4.16667,0,0)">
            <g transform="matrix(-0.9661,-0.258167,-0.258167,0.9661,279.201,92.1287)">
                <path d="M1.164,-0.842C1.447,-0.722 1.758,-0.765 1.424,-0.02C1.351,0.252 1.309,0.308 1.164,0.269L-0.705,-0.23C-0.396,-1.048 0.137,-1.049 1.164,-0.842" style="fill:rgb(27,27,26);fill-rule:nonzero;"/>
            </g>
        </g>
        <g transform="matrix(4.16667,0,0,4.16667,0,0)">
            <g transform="matrix(-0.759653,0.650329,0.650329,0.759653,207.447,95.1922)">
                <path d="M0.399,-3.871C1.513,-5.036 2.189,-4.642 3.879,-5.878C3.804,-4.336 1.291,0.479 0.399,1.115C-0.492,1.751 -2.821,1.252 -2.917,1.04C-3.015,0.827 -0.716,-2.705 0.399,-3.871" style="fill:rgb(27,27,26);fill-rule:nonzero;"/>
            </g>
        </g>
        <g transform="matrix(4.16667,0,0,4.16667,0,0)">
            <g transform="matrix(1,0,0,1,201.875,42.963)">
                <path d="M0,100.851C0.562,98.018 1.312,97.226 1.375,94.289C1.437,91.351 0.5,92.788 -0.437,86.101C-1.375,79.414 -2.438,70.664 -2.75,69.414C-3.063,68.163 -4.5,66.288 -7.062,63.538C-9.625,60.788 -11.188,58.413 -11.875,58.163C-12.563,57.913 -14.938,56.226 -16.812,55.101C-18.687,53.976 -17.687,53.663 -17.687,53.038C-17.687,52.413 -18.875,53.038 -19.562,52.788C-20.25,52.538 -22.625,50.413 -22.312,47.663C-22,44.913 -20.062,43.476 -18.187,43.226C-16.312,42.976 -15.313,42.663 -10.375,42.163C-5.437,41.663 0.375,43.788 1.625,43.8C2.875,43.811 4.5,43.726 6.125,43.788C7.75,43.851 7.5,43.663 8.125,42.976C8.75,42.288 8.313,41.413 8.063,40.788C7.812,40.163 7.5,38.226 7.875,37.413C8.25,36.601 7.937,35.726 10.438,32.601C11.128,31.738 11.993,31.237 12.951,30.99L12.951,-2.833L-63.122,-2.833C-72.268,-2.833 -79.682,4.582 -79.682,13.727L-79.682,32.582L-49.732,32.582L-49.732,26.079C-49.732,23.295 -47.476,21.038 -44.692,21.038L-22.039,21.038C-19.255,21.038 -16.999,23.295 -16.999,26.079L-16.999,33.736C-16.999,36.519 -19.255,38.776 -22.039,38.776L-42.708,38.776L-42.708,63.372L-22.039,63.372C-19.255,63.372 -16.999,65.628 -16.999,68.412L-16.999,76.069C-16.999,78.853 -19.255,81.109 -22.039,81.109L-44.692,81.109C-47.476,81.109 -49.732,78.853 -49.732,76.069L-49.732,70.141L-79.682,70.141L-79.682,87.123C-79.682,96.269 -72.268,103.684 -63.122,103.684L-0.501,103.684C-0.35,102.727 -0.178,101.747 0,100.851" style="fill:rgb(27,27,26);fill-rule:nonzero;"/>
            </g>
        </g>
    </g>
</svg>
