<?xml version="1.0" encoding="utf-8"?>
<!-- Generator: Adobe Illustrator 27.0.0, SVG Export Plug-In . SVG Version: 6.00 Build 0)  -->
<svg version="1.1" id="Layer_1" xmlns="http://www.w3.org/2000/svg" xmlns:xlink="http://www.w3.org/1999/xlink" x="0px" y="0px"
	 viewBox="0 0 344 432" style="enable-background:new 0 0 344 432;" xml:space="preserve">
<style type="text/css">
	.st0{fill:#1C355E;}
	.st1{fill:#AA182C;}
</style>
<polygon class="st0" points="325.4,166.8 295.5,166.8 286.2,138.3 277,166.8 247.1,166.8 271.3,184.4 262,212.8 286.2,195.2 
	310.4,212.8 301.2,184.4 "/>
<path class="st0" d="M86.2,23.7c0,0-0.1,0-0.1,0c-0.1,0-0.3,0.1-0.3,0.2c-0.1,0.2,0,0.3,0.2,0.4c58.9,27.4,103.6,55.6,133,83.6
	c8,7.6,14.9,15.3,20.8,23.1h42C245.9,93.4,180.5,57.5,86.2,23.7z"/>
<path class="st1" d="M260,222.6c-2.4,8.3-5.9,16.7-10.5,25.1h50.8c5-8.4,8.6-16.8,10.9-25.1H260z"/>
<path class="st1" d="M210.7,297.4h45.4c10-8.4,18.7-16.8,26.1-25.1h-49C226.7,280.5,219.2,288.9,210.7,297.4z"/>
<path class="st1" d="M50.8,407.7c-0.2,0.1-0.2,0.3-0.1,0.4c0.1,0.1,0.2,0.2,0.3,0.2c0,0,0.1,0,0.1,0
	c71.7-28.6,129.4-57.6,172.2-86.4h-40C149.8,349.5,105.7,378,50.8,407.7z"/>
<path class="st0" d="M29.5,137.8h18.3l-4.3,44.9c-0.9,8.9,3,14,11.7,14c8.7,0,13.7-5.1,14.6-14l4.3-44.9h18.3l-4.3,44.8
	c-2,20.7-17.5,31-34.8,31c-17.4,0-30-10.3-28-31L29.5,137.8z"/>
<path class="st0" d="M120.7,213.6c-16.1,0-28-8-27.1-23.2h19.5c0,5.8,3.3,8.6,8.5,8.6c5.3,0,9-2.7,9.4-7.1
	c1.3-13.9-36.9-6.4-34.1-33c1.4-14.2,13.8-22.1,29.5-22.1c16.4,0,26.6,8.1,26,22.4h-19.8c0.1-4.8-3-7.7-7.9-7.8
	c-4.4-0.1-7.9,2.1-8.4,6.8c-1.3,13,36.4,7.2,34,32.3C149,203.1,138.2,213.6,120.7,213.6z"/>
<path class="st0" d="M200.8,199.6h-28l-5.8,13.3h-19.1l34.4-75h21.2l19.9,75H204L200.8,199.6z M190.8,158L179,185.5h18.5L190.8,158z
	"/>
<path class="st1" d="M38.1,222.5h-7l-12.5,25.2h6.9l2.2-4.6h9.8l1.3,4.6h6.9L38.1,222.5z M36.1,238.1h-6l3.7-7.8L36.1,238.1z"/>
<path class="st1" d="M68.3,237.7c4.3-1.3,6.2-4.6,6.4-7.2c0.4-3.7-1.9-7.9-9.4-7.9H54.7l-2.4,25.1h6.5l0.9-9.3h1.6l5,9.3h7.6
	L68.3,237.7z M60.7,227.7h3.9c2.5,0,3.6,0.9,3.4,2.9c-0.2,2-1.5,3-4,3h-3.9L60.7,227.7z"/>
<path class="st1" d="M99.3,239.3c-1.3,2.1-3.5,3.2-6.2,3.2c-4.4,0-7.1-2.9-6.7-7.3c0.4-4.5,3.6-7.3,8.1-7.3c2.7,0,4.7,1.1,5.6,3.1
	l0.1,0.3h7.3l-0.2-0.8c-1.4-5-6.1-8.1-12.3-8.1c-8.2,0-14.6,5.4-15.3,12.8c-0.7,7.4,4.7,12.8,12.9,12.8c6.3,0,11.5-3,13.9-8.1
	l0.4-0.8h-7.3L99.3,239.3z"/>
<polygon class="st1" points="132.1,222.6 131.1,232.4 120.9,232.4 121.9,222.6 115.3,222.6 112.9,247.7 119.4,247.7 120.4,237.5 
	130.7,237.5 129.7,247.7 136.2,247.7 138.6,222.6 "/>
<polygon class="st1" points="164.1,227.6 164.5,222.5 147.9,222.5 145.5,247.7 162.1,247.7 162.6,242.6 152.5,242.6 153,237.4 
	162,237.4 162.4,232.5 153.5,232.5 153.9,227.6 "/>
<path class="st1" d="M186.5,237.7c4.3-1.3,6.2-4.6,6.4-7.2c0.4-3.7-1.9-7.9-9.4-7.9h-10.6l-2.4,25.1h6.5l0.9-9.3h1.6l5,9.3h7.6
	L186.5,237.7z M178.9,227.7h3.9c2.5,0,3.6,0.9,3.4,2.9c-0.2,2-1.5,3-4,3h-3.9L178.9,227.7z"/>
<polygon class="st1" points="215.8,222.6 209.5,232.8 205.1,222.6 197.7,222.6 205.6,238.9 204.8,247.7 211.3,247.7 212.1,238.9 
	223.2,222.6 "/>
<g>
	<path class="st1" d="M78,401.9v0.8h-2.2v5.7h-0.9v-5.7h-2.2v-0.8H78z"/>
	<path class="st1" d="M78.8,401.9H80l1.9,5.5l1.8-5.5H85v6.5h-0.8v-3.8c0-0.1,0-0.4,0-0.7c0-0.3,0-0.6,0-1l-1.8,5.4h-0.9l-1.9-5.4
		v0.2c0,0.2,0,0.4,0,0.7c0,0.3,0,0.6,0,0.7v3.8h-0.8V401.9z"/>
</g>
</svg>
