<?xml version="1.0" standalone="no"?>
<!DOCTYPE svg PUBLIC "-//W3C//DTD SVG 20010904//EN"
 "http://www.w3.org/TR/2001/REC-SVG-20010904/DTD/svg10.dtd">
<svg version="1.0" xmlns="http://www.w3.org/2000/svg"
 width="1200.000000pt" height="1200.000000pt" viewBox="0 0 1200.000000 1200.000000"
 preserveAspectRatio="xMidYMid meet">
<metadata>
Created by potrace 1.14, written by Peter Selinger 2001-2017
</metadata>
<g transform="translate(0.000000,1200.000000) scale(0.100000,-0.100000)"
fill="#000000" stroke="none">
<path d="M1105 11158 c-4 -12 -447 -2625 -500 -2948 -14 -85 -28 -167 -31
-183 l-6 -27 409 2 408 3 22 145 c12 80 72 483 134 895 62 413 115 753 118
757 4 4 125 -297 270 -670 145 -372 304 -779 354 -904 l89 -228 162 0 161 0
56 138 c193 470 682 1659 688 1670 4 6 38 -194 75 -445 94 -632 194 -1291 201
-1330 l6 -33 222 -1 c122 -1 213 -4 202 -6 -48 -13 -401 -135 -509 -177 -381
-149 -816 -373 -1166 -601 -1051 -685 -1888 -1665 -2394 -2801 -49 -111 -76
-183 -75 -205 l1 -34 15 35 c370 870 833 1558 1464 2175 715 699 1568 1221
2489 1523 275 90 283 92 429 92 l133 0 -4 32 c-3 28 1 33 27 40 66 18 236 50
241 45 3 -2 -4 -28 -16 -56 -11 -28 -20 -54 -20 -56 0 -3 196 -4 437 -3 l436
3 36 107 c20 59 39 110 43 113 13 13 603 6 788 -10 262 -21 613 -68 638 -84 5
-3 18 -33 29 -66 l20 -60 289 -5 c239 -5 299 -9 344 -23 485 -157 725 -253
1091 -437 1030 -519 1921 -1328 2542 -2308 204 -322 362 -626 530 -1022 l15
-35 1 33 c1 39 -117 311 -227 522 -440 844 -1018 1549 -1743 2126 -496 394
-1087 735 -1665 960 -108 42 -461 164 -509 177 -11 2 31 5 94 6 103 1 113 2
106 19 -3 9 -55 145 -114 302 -59 157 -328 862 -596 1568 l-488 1282 -447 0
-447 0 -22 -57 c-12 -32 -265 -697 -562 -1478 -297 -781 -546 -1433 -553
-1450 -13 -29 -19 -31 -157 -61 -83 -18 -146 -28 -150 -22 -3 5 -11 46 -18 91
-7 45 -122 730 -257 1521 -134 792 -244 1443 -244 1448 0 4 -182 8 -405 8
l-406 0 -18 -42 c-9 -24 -152 -404 -316 -845 -165 -442 -302 -797 -306 -790
-3 6 -147 387 -319 845 l-313 832 -404 0 c-314 0 -405 -3 -408 -12z m5491
-1456 c100 -284 180 -520 177 -524 -2 -5 -166 -8 -363 -8 -197 0 -361 3 -363
8 -5 8 355 1042 363 1042 3 0 87 -233 186 -518z m468 -1340 c36 -104 66 -191
66 -194 0 -3 -21 -1 -47 3 -266 50 -614 80 -1010 86 l-351 6 43 126 c24 69 47
134 50 144 7 16 44 17 595 17 l587 0 67 -188z"/>
<path d="M9325 11158 c-3 -7 -232 -611 -511 -1343 -510 -1342 -684 -1802 -684
-1810 0 -3 195 -5 434 -5 l434 0 91 263 c50 144 94 268 96 275 3 9 131 12 593
12 l589 0 94 -271 c51 -149 98 -273 103 -275 6 -2 203 -3 438 -2 l426 3 -43
115 c-234 619 -1148 3017 -1156 3031 -9 18 -30 19 -455 19 -347 0 -446 -3
-449 -12z m643 -1465 c98 -282 177 -515 174 -518 -8 -7 -732 -6 -732 2 0 22
365 1042 371 1036 4 -4 88 -239 187 -520z"/>
<path d="M5875 7613 c-579 -11 -1222 -124 -1767 -312 -1703 -588 -3051 -1936
-3629 -3631 -213 -622 -312 -1222 -312 -1890 0 -504 52 -934 168 -1405 67
-268 98 -369 117 -373 12 -2 7 26 -28 145 -108 368 -177 740 -216 1163 -16
178 -16 744 0 935 120 1396 706 2660 1687 3640 750 749 1662 1267 2683 1526
476 120 905 172 1422 172 517 0 946 -52 1422 -172 1422 -360 2645 -1237 3453
-2476 524 -803 829 -1700 917 -2695 16 -184 16 -752 0 -930 -39 -421 -111
-810 -220 -1178 -32 -108 -36 -132 -24 -130 43 8 191 647 241 1038 58 453 60
972 5 1435 -179 1518 -957 2908 -2164 3871 -1064 849 -2379 1292 -3755 1267z"/>
<path d="M5715 6959 c-1476 -78 -2863 -797 -3785 -1963 -467 -590 -806 -1290
-979 -2018 -220 -924 -178 -1917 119 -2822 l51 -156 345 0 c189 0 344 3 344 8
0 4 -22 63 -49 132 -295 759 -378 1610 -235 2429 289 1655 1490 3028 3099
3540 266 85 570 150 885 188 113 14 221 18 490 18 368 0 478 -9 780 -61 1529
-262 2842 -1320 3429 -2762 154 -379 250 -755 308 -1207 26 -203 26 -806 0
-1020 -48 -392 -144 -782 -278 -1125 -27 -69 -49 -128 -49 -132 0 -5 155 -8
344 -8 l345 0 51 156 c103 313 188 700 224 1024 137 1199 -138 2387 -787 3399
-353 552 -835 1056 -1367 1432 -966 683 -2103 1011 -3285 948z"/>
<path d="M5610 6275 c-405 -38 -728 -107 -1100 -237 -1533 -534 -2673 -1874
-2954 -3470 -52 -297 -61 -408 -61 -788 0 -279 4 -386 18 -500 53 -431 153
-827 300 -1190 l35 -85 356 -3 c196 -1 356 -1 356 1 0 3 -23 53 -51 113 -359
763 -462 1603 -298 2428 117 583 381 1156 749 1621 590 748 1427 1251 2360
1419 247 44 327 50 680 50 353 0 433 -6 680 -50 932 -168 1774 -674 2361
-1419 790 -1004 1032 -2357 638 -3572 -51 -157 -120 -333 -188 -477 -28 -60
-51 -110 -51 -113 0 -2 160 -2 356 -1 l356 3 35 85 c147 363 247 759 300 1190
26 210 25 792 0 1005 -100 818 -395 1558 -877 2200 -734 978 -1826 1615 -3035
1770 -294 37 -690 46 -965 20z"/>
<path d="M5785 5024 c-163 -16 -255 -28 -350 -45 -435 -75 -861 -246 -1229
-491 -744 -496 -1253 -1270 -1406 -2136 -39 -226 -45 -295 -44 -577 0 -298 10
-405 60 -653 70 -343 212 -708 397 -1016 51 -85 79 -117 91 -105 3 3 -24 55
-60 115 -426 705 -565 1553 -387 2354 134 609 439 1158 884 1597 145 143 254
235 399 337 371 261 775 437 1210 526 234 48 387 63 650 63 263 0 416 -15 650
-63 509 -105 1002 -341 1400 -670 118 -98 326 -306 423 -423 653 -787 894
-1824 655 -2817 -75 -314 -203 -623 -372 -904 -64 -106 -73 -131 -39 -110 43
27 241 406 321 614 84 218 151 483 188 750 23 158 26 634 6 780 -76 548 -236
989 -512 1405 -300 454 -672 801 -1145 1065 -364 204 -736 326 -1175 385 -109
15 -528 28 -615 19z"/>
<path d="M5780 4374 c-164 -19 -296 -41 -411 -70 -1062 -266 -1851 -1178
-1960 -2268 -17 -171 -7 -517 20 -671 86 -495 281 -913 600 -1287 l66 -77
1905 0 1905 0 66 77 c317 370 515 796 600 1287 27 154 37 500 20 671 -79 784
-508 1488 -1176 1926 -295 194 -675 338 -1035 394 -100 15 -516 28 -600 18z
m482 -1344 c248 -51 477 -178 659 -367 220 -228 341 -513 356 -833 29 -622
-405 -1174 -1027 -1307 -119 -25 -381 -25 -500 0 -622 133 -1056 685 -1027
1307 15 320 136 605 356 833 308 320 744 455 1183 367z"/>
<path d="M5910 2434 c-226 -41 -405 -170 -498 -359 -44 -88 -62 -159 -69 -261
-20 -310 190 -597 493 -674 156 -40 333 -19 477 57 108 57 221 174 274 283 95
196 97 394 4 585 -48 100 -104 171 -184 231 -123 92 -232 132 -377 139 -52 2
-106 2 -120 -1z m280 -53 c163 -52 301 -172 374 -324 52 -108 66 -168 66 -280
0 -177 -59 -317 -185 -442 -129 -129 -263 -185 -445 -185 -182 0 -316 56 -445
185 -126 125 -185 265 -185 442 0 107 14 171 59 268 81 173 227 295 414 346
94 25 252 21 347 -10z"/>
</g>
</svg>
